/* XPM */
static char *images__2___1_1677262751[] = {
/* columns rows colors chars-per-pixel */
"64 64 239 2 ",
"   c #08060A",
".  c #1B0806",
"X  c #0A0916",
"o  c #0C111A",
"O  c #260A07",
"+  c #2C120D",
"@  c #291211",
"#  c #290F10",
"$  c #18162A",
"%  c #111227",
"&  c #1C2627",
"*  c #24252B",
"=  c #353936",
"-  c #292936",
";  c #56351C",
":  c #522F19",
">  c #79391B",
",  c #663113",
"<  c #4B3728",
"1  c #573828",
"2  c #443C36",
"3  c #5B3B34",
"4  c #583A36",
"5  c #4A2D25",
"6  c #693C2A",
"7  c #7C3D23",
"8  c #753D27",
"9  c #653C34",
"0  c #763F31",
"q  c #3B423C",
"w  c #74441E",
"e  c #5B422C",
"r  c #484439",
"t  c #554C3B",
"y  c #594836",
"u  c #59513C",
"i  c #68472B",
"p  c #78462B",
"a  c #6D4332",
"s  c #674A37",
"d  c #754734",
"f  c #695339",
"g  c #765437",
"h  c #7C5129",
"j  c #393946",
"k  c #2E3641",
"l  c #3E4545",
"z  c #444644",
"x  c #444A45",
"c  c #454A4B",
"v  c #4A4B4C",
"b  c #484848",
"n  c #534E46",
"m  c #4C524C",
"M  c #475347",
"N  c #56554B",
"B  c #4C4D53",
"V  c #464A53",
"C  c #514E54",
"Z  c #4C5354",
"A  c #4C5658",
"S  c #525454",
"D  c #545A54",
"F  c #595A56",
"G  c #54555A",
"H  c #59575D",
"J  c #545B5B",
"K  c #5A5B5D",
"L  c #5A5455",
"P  c #685B4A",
"I  c #745B46",
"U  c #645E56",
"Y  c #694A44",
"T  c #5D625C",
"R  c #58635A",
"E  c #63655C",
"W  c #65695D",
"Q  c #686659",
"!  c #756A58",
"~  c #766852",
"^  c #5B5C62",
"/  c #565C62",
"(  c #625E64",
")  c #5C6362",
"_  c #5E6965",
"`  c #636464",
"'  c #656B64",
"]  c #6A6C65",
"[  c #64646B",
"{  c #666A6B",
"}  c #6B6C6C",
"|  c #6A6468",
" . c #716D65",
".. c #6B7265",
"X. c #6D726C",
"o. c #6A756B",
"O. c #727264",
"+. c #73736C",
"@. c #7A756A",
"#. c #757A6D",
"$. c #7B7A6D",
"%. c #7B7465",
"&. c #6C6D73",
"*. c #666B72",
"=. c #736C73",
"-. c #746E7A",
";. c #6D7373",
":. c #6D7677",
">. c #727374",
",. c #747B74",
"<. c #7B7C73",
"1. c #74747A",
"2. c #757B7B",
"3. c #7B7D7B",
"4. c #797676",
"5. c #893E15",
"6. c #823E22",
"7. c #874318",
"8. c #944819",
"9. c #944E17",
"0. c #854224",
"q. c #83452A",
"w. c #8C4728",
"e. c #954C2C",
"r. c #87542B",
"t. c #98562A",
"y. c #8B4B32",
"u. c #87583A",
"i. c #945234",
"p. c #9B5B3C",
"a. c #995737",
"s. c #994F31",
"d. c #A35B28",
"f. c #A25C3B",
"g. c #A55B36",
"h. c #A04F32",
"j. c #9A6439",
"k. c #8A613D",
"l. c #AD642B",
"z. c #AA6629",
"x. c #B36B2E",
"c. c #B2652A",
"v. c #AC643B",
"b. c #A86538",
"n. c #B36C34",
"m. c #B46C3B",
"M. c #BC6B3B",
"N. c #B3663B",
"B. c #BB733C",
"V. c #B77439",
"C. c #A8713B",
"Z. c #A1591F",
"A. c #C4783E",
"S. c #C8753B",
"D. c #865743",
"F. c #995B43",
"G. c #A55F42",
"H. c #896548",
"J. c #996646",
"K. c #967050",
"L. c #A86946",
"P. c #B46D44",
"I. c #B86C44",
"U. c #BC7443",
"Y. c #B87648",
"T. c #A87855",
"R. c #BC7D54",
"E. c #B37954",
"W. c #A9714F",
"Q. c #84786B",
"!. c #817D76",
"~. c #937761",
"^. c #AD7E62",
"/. c #C47343",
"(. c #C47B43",
"). c #CC7D45",
"_. c #C47B4A",
"`. c #CC7D4B",
"'. c #C67646",
"]. c #D27E47",
"[. c #C47C53",
"{. c #CB7649",
"}. c #7C8275",
"|. c #7C827A",
" X c #77827A",
".X c #D5823E",
"XX c #BE8354",
"oX c #B9825A",
"OX c #AC815F",
"+X c #838275",
"@X c #83847C",
"#X c #87887C",
"$X c #908473",
"%X c #B18869",
"&X c #CD8246",
"*X c #CD834B",
"=X c #CE8A4C",
"-X c #C6844A",
";X c #D38345",
":X c #D3844C",
">X c #D38A4D",
",X c #DA8B4D",
"<X c #D78747",
"1X c #CC8451",
"2X c #C58557",
"3X c #D48552",
"4X c #D48B52",
"5X c #DB8C53",
"6X c #D88B59",
"7X c #DC9255",
"8X c #DC9459",
"9X c #D99959",
"0X c #D5944E",
"qX c #E49C5E",
"wX c #E3985A",
"eX c #E08B55",
"rX c #D09968",
"tX c #E79B61",
"yX c #E6A669",
"uX c #DFA46A",
"iX c #7C7E83",
"pX c #757C80",
"aX c #817E83",
"sX c #7D8184",
"dX c #7E838C",
"fX c #788682",
"gX c #828285",
"hX c #848A83",
"jX c #8A8C85",
"kX c #84858A",
"lX c #8A8A8D",
"zX c #87868A",
"xX c #8B928A",
"cX c #969289",
"vX c #8A8B92",
"bX c #939391",
"nX c #AA9B8A",
"mX c #AFA69F",
"MX c #D8B79B",
/* pixels */
";.&.&.>.;.1.-.-.V ^ [ / / ( ^ / ^ / &.1.=.=.-.=.!.-.( !.' ..X.:.X.X.X.X.1.^ bXlXlXiXzXvXaXaXzX=.} &.&.&.&.-.;.;.[ iXvXvXvXvXvXvX",
"} } } &.&.&.*.*.G [ [ H / ^ / H / A ( -.=.=.=.&.( ( aXbXbXxXhX#XxXhXbXjXzX3.*.aXzXiXaXkXaXzXgX^ -.-.-.&.&.-.1.-.[ pXlXkXkXkXkXgX",
">.>.&.&.-.;.-.&.V / / G G H C / / A / *.[ *.;.&.&.E lX!.}.}.}.}.|.}.o.' ..:.c iXdXsXsXdXkXlXpXJ *.&.*.&.*.&.;.&.[ 1.zXkXiXdXgXiX",
"[ [ ` [ [ [ ^ ^ V G C G G G C ^ / A ) *.[ *.&._ ` K gX4.}.}.}.}.}.}.T ..:.] Z 1.pXfX X:.1.dX2./ [ [ *.*.*.&.&.&.^ 1.kXkXkXzXzXkX",
";.&.&.&.&.&.*.[ B B B B G V V G B V A / A / A c R K X.}.<.#.<.%.}.}.Q ..X.D W { J ) / V V / A Z / C G G G G H H B *.iXkXkXkXkXiX",
"lXzXzXzXzXzXkXkXvXvXzXlXaXiX-.iX1.-.pXpXpX2.:._ :.X.] @X<.$.+X+X+X%...W ' F ' ;.:.sX:._ *.:.:.pXpX1.1.3.pX1.1.2.G -.kXkXkXkXkXpX",
"kXkXiXdXkXkXdXiXlXkXgXlXgX[ / -.} | &.&.[ *.{ ^ ` m F @.$.!.@. .+X..!.4.+.F m { { =.^ J *.*.[ ;.*.{ } } &.} &.&.) 1.zXzXkXkXzXkX",
"gXiXaXkXkXkXkXiXiXiXsXlXsXK G -.-.=.-.-.&.;.>.} } c F } ,.!.=.+.@X!.>.4.#.S U zX>.=.H K 1.1.} &.| | { &.-.&.>.1.^ 1.aXiX2.iXkXkX",
"dXiXiXiXkXkXgXkXpX-.>.3.( ' } E |  .H v ( gXgX3.3.` x X.3.} } X.3.|.>.3...R ,.jX3.sX3.=.x ..} } @X,.E { &.( &.1.B &.iXkXiXiXkXvX",
"zXzXkXkXkXkXiXiX;.=.>.} 3.bX4.K S F >.jXjX4.X.X.X.T q T >.3.3.gX>.#.,.|...R  X,.,.E ,.hX XD q |.3.bXgX} K J K G J 1.kXvXiXkXkXkX",
"kXkXaXkXkXdXiXiX2.3.>.3.3.X.}.] W T #.}.<.<.}...X...M ..@XgX@X<.+X}.|.!.R W }.W #.#.' #. XD  XhXjX#XhX|.>.` [ gX^ 1.kXaXdXaXiXiX",
"iXiXsXkXzXzXzXzXzX>.gX,.<.<.+.<. XR _ }.<.#.<.+X@.O.N U O.%.$.$.Q.%.O.! P ! +X}...}...o.D M xXhXjX|.#X|.+.` K >.( 1.kXvXzXkXvXzX",
"[ [ [ [ } &.[ [ v 3.} ] hX+.<.,. Xo.R W !.!.! Q.y f y s f ~ I I ~ H.I f f f I ~ $X! }.W N hXjX}.}.}.hXjXgX>.` &./ *.-.pX1.1.1.1.",
"G Z C B S B B c K b 3.3.' #.+XX.,.hX+.n Y ~ I Y 1 h g u.u.H.h p J.J.F.u.u.i i f u P ! N W xX>.hX#X+X#X@X+.J v K / ^ ^ ) ` ^ ^ ^ ",
"[ ^ ^ ^ ^ ^ G G >.>.m E @X<.+.#.=.3.!.U y 4 9 D.F.G.F.G.J.L.a.a.Y.I.I.I.W.L.u.D.h i e P cX#X$.jX#.#X<.W U { >.-.&.&.-.-.&.&.} &.",
"/ J H ^ H H G S { m Z E D <.}...!.@.Y < : D.T.F.a.f.G.v.N.P.l.t.5X/.N.N.N.I.Y.W.K.h g 5 ~ Q.Q.4.#X#.R W ` S ) &.-.&.&.;.;.-.>.:.",
"A ) ^ ^ C C ( C R R xX XD R ,.O.! s ; d h D.W.P.v.N./.I.Y.[.C.b.3X].]._._._.I.Y.P.w.W.g 1 y Q ..#.M T hX<.` - =.,.&.>.1.&.&.*.;.",
"A Z ^ H ( ( ( b _ |.|. X}.D E P 6 i i k.r.j.Y.m.M././.'.Y.-XC.C.8X3X3X=X*X*X_.`.B.e.E.L.u.e e t r o.}. X<.@X' X.| >.1.1.-.} ;.;.",
") Z ) K L ( L S .. X..}.}.U N < 1 h H.J.r.b._._.{.).).].*X2XV.C.tX6X4X:X*X1X*X6X'.t.2XE.K.u.i 5 Q #X#X}.jX3.' K =.2.[ { &.*.;.*.",
") J / ` b H C K }.}.}.+X%.%.y < u.j.L.C.t.v.1X`.].3X].3X>X4XY.(.qX5X5X=X*X=X=X5X).l.6X_.W.W.F.a y %.}.+XhX@X3.D ] 1.[ | -.&.pX*.",
"J H H ` C C ^ S '  X#.}.$XP 5 D.k.L.Y.Y.j.B.>X:X].<X,X,X,X0XU.A.tXwX,X>X:X>X=X5X].c.5X`._.R.E.F.i f %.$X}...X.T D } -.1.-.-.1.-.",
"G G / G ^ V >.` R R W O.Q.5 d J.C.m.Y._.z.V.0X>X;X<X<XeX5X7X-XA.tX7X0X>X=X:X&X>X<Xc.5X6X`.'.Y.W.K.i I Q.! E J R J T [ ( K ^ [ ) ",
"/ G ( G G J 2.3. X..! %.g ; J.F.I._._.(.z.V.0X>X<X,X,X,X,X6X(.A.qX0X<X&X=X=X=X;X.Xc.eXeX5X/.(.P.J.g i f Q }.3.o.o.A ^ ^ C H [ ^ ",
"( / H ( G |.;.:.o.}.%.~ ; D.J.P.'.].&X&XV.&X7X&X,X5X,X,X:X5XA.A.tX,X>X;X=X>X=X0X;Xc.0X<X:X`.`.U.Y.J.; I %.$.o.2.o.J -.iX( pXpXpX",
"/ H ^ H G X.2.o.o.<.Q I d J.L.U.`.].`.3Xx.=X9X=X4X8X,X=X4X4XB.A.tX,X3X].].3X=X1X0Xz.0X.X.XXX.XU.Y.Y.h H.! #.o.:.2.o.X.} [ 3.&.[ ",
"/ H ( C S X.2.:.o.$.! I g L.I.).`.`.:X3Xx.=X9X=X4X9X3X=X1X4XB./.tX,X].].].3X=X>XXXz.0X0XXX.XA.XXU.Y.K.g ! #.o. Xo. X+.#.} >.pXpX",
"v j b z b F ] ' E W P e j.C./.S.].:X3X6Xn.=X9X=X=X7X:X*X&X=XV.V.tX<X3X].].3X3X4X=Xz.9X=X.X=XXX.XB.m.W.i u W ' _ ) R l m H ^ ( H ",
">.^ | | ' X.X.X.,.O.f 1 T.R.:X;X:X5X6X6Xn.4X9X=X4X4X:X:X-X=XXX.XtX,X,XeX3X6X6X6X2Xz.9X0X0X=X=X.X).(.Y.i y W o.o._ o.W ] ( ( H [ ",
"&.Z X.,.gXhXhXjXhX!.n a R.2X;X.X5X5X6X7XV.>XtX4X4X4X:X:X*X4XXXV.qX<X,X,X6XeX6X8X4Xx.9X0X=X4X5X;X;X>XY.g y %. XfX|.hXcX@XaX>.Z &.",
":.D ,.+.<.O.E E @.Q.s g E.1XA..X,X:X,X6Xn.0X9X,X4X>X:X3X&X4XV..XwX<X0X,X5XeX5XeX>Xx.qX0X&X<X,X<XS.>XP.k.y Q. X XhX}.<. .+.;.l _ ",
";._ jX<.|.+X<.4. .@.s g oX1X.X.X,X>X:X,Xx.,XwX:X<X;X<X,X&X>X(.V.0X0X,X,X,XeX3XeX<Xx.qX>X&X;X<X<X.X0XXXH.y +X,.:.|.#X+X$.,.] Z fX",
"J D jXo.#.@X#X@X4.Q.y I oX2X;X.XeX,X>X>Xx.,XwX;X;X].].,X).>XB.V.0X.X,XeX,X,X].3X;Xx.yX7X;X;X;X.X.X=XrXj.y jX:.,.,.@X@.<.hX..l A ",
"T F 3.3.}.}.$.+X<.O.t g [.`.].;X5X:X>X>Xx.>X9X>X;X:X&X:X=X=XV.A.qX0X,X5X7X,X;X<X*Xn.tX0X:X:X<X.X;X:X8Xj.u jX<.}.,.|.<.$.3.` z X.",
"+.S 1.;.o...O.$.3.+.t g oX).;X:X>X:X=X0Xx.:XwX>X:X;X:X:X*X0XB.V.qX.X5X7X,X<X=X:X_.x.qX>X].:X.XS.;X,XqXj.N xX|.X. X|.@.#.,.| z ] ",
"3.m { ) ' T Q Q X.] u f 2X_.).].:X:X;X4Xx.=XwX:X).;X;X:X*X:XV.B.qX.X0X0X<X<X&X:X1Xn.qX,X:X].]..X(.=XtXj.u @X#...T ] E W ) S b =.",
"' z J R M D N E D F < s R.].:X;X:X:X:X>Xx.=X7X:X;X).).*X*X=Xn.V.qX.X0X=X<X<X*X3X*Xn.tX>X`.:X;X.X=X*XqXt.< D m T D R M L B v v } ",
"K v S / = D Q ..] E r i 2X:X].].>X:X:X=Xc.&X7X&X).;X).&X&X-Xn.V.qX:X`.:X<X<X&X>X).x.wX:X`.`.&X).*X*X9Xj.e R Q +.' F = H J G B K ",
"3.1.1.1.x  X#XnXjX<.u h R.`.).(.,X`.).*Xz.&X0X&X).).).&X*X-Xn.n.qX`.`.3X;X;X&X=X(.d.5X*X_.[.-X2X-X2X9Xj.u jXhX#X|.X.v iXgXiXiXpX",
";.&.&.&.q ..#XcX@X@.u i R.:X<X<X:X*X&X=Xz.-X4X&X].&X].*X*X*Xn.V.wX).`.*X&X;X).:X(.c.7X-XR.R.-XXXoX2X4Xr.y jX!...} ' V dXiXaXzXaX",
"1.*.-.&.q ..+X+X}.}.u f -X`.;X;X:X:X*X:Xc.=X7X&X;X:X).:X-X*XV.n.wX`.`.*X&X;X`.].`.c.7X&XR.E.E.oXE.XX2Xj.u jXQ.$.}.} V vXiXaXvXaX",
"1.>.*.-.l R %.+X@X@.u g -X&X;X;X:X`.).=Xc.4X7X(.].;X:X`.*X-XV.-X7X).`.`.&X;X).&X).x.qX*XE.W.K.oXOXOX2Xj.y jXQ #.X.} x dXdXdXiXaX",
"} &.*.&.l T $.$.@X$.u f R.(.).).<X:X`.=Xl.=X6X*X).).*X).:X*XY.U.6X&X`.`.&X&XA.*X;Xd.4X-XJ.%XnXMXMX%XoXT.n +XW O.W ` l sXdXdXaXaX",
"} 1.>.&.x W $.@...W y f -X`.;X,X:X*X:X=Xz.&X7X&X:X).:X`.:X*Xm.n.7X`.`.`.-X&X'.`.>XZ.uXXX> s I nXI H.%XK.y <.%.N T T x kXvXaXvXaX",
">.;.&.{ q T W W R R y h 2X_.S.S.).`.).*Xz.(.5X&X:X;X:X`.=X`.n.x.wX*X`.1X&X&X&X:X&X9.9XE.; y y nX~ I K.u.r ..O.Q T T c dXdXiXzXaX",
">.{ ;.{ q M t M b n = f 2X].].3X`.).).).d.&X6X&X*X].:X*X3X=XU.V.wX;X`.3X=X=X&X:X&Xz.9XOXK.nX] jXmXmXOXg r m M N D Z l fXdXdXvXlX",
"F c { <.o.}.+X+X+...y g 2X).).).&X*X).*Xz.=X7X:X].*X].*X6X=XU.B.wX<X1X*X=X;X&X3XA.t.uXr.~.%.q q q $X%Xe 2 ;.%.#.X.o.R :.:.) n N ",
"..F kXkXfX|.$X#X@X,.N g 2X[.:X:X(.).&X=Xz.-X7X>X:X:X3X*X3X2Xm.l.wX<X*X`.&X&X&X:X:XZ.yXh H.N M c = Q.I e m hX$.}.<. X2.sXfX} C ! ",
"O.S sX X}.#.+X$.|.O.y d R.{.).)./.).`.*Xd.U.4X*X3X`.`.*X3X*Xx.t.eX;X`.).&X&X-X=X-Xd.rXu.P @.F m b %.s e n  XW T O.<.hXsXfX} z | ",
" .N |.,.|.|.|.}.#.O.y h E.`.&X).`.[._._.t.B.6X1X`.`.`.`.`.4Xb.t.8X).(.).`.`.).`.U.t.uXk.; Q.nXcX$XI , 1 M jX} W @.+X|.kX3.;.x o.",
"| F jX,. X|.|.X...! e g E.*X].'././.I._.Z.I.6X1X3X`.`.1X1X3Xb.z.9X).A.(.).].{.).V.7.rXK.; : < f 1 1 i i t bX,.<.Q.+X|.3.X.X.M ;.",
"Q F xX:. X|.hX<.....y h E.[.S.S.M.M.M.M.8.M.6X)./.).`.`.(.:Xz.z.7XA.S.A.'.)./.{.B.7.8XJ.r.w i i a I T.i r jX,.|.!.Q.@X>.,.,.M J ",
"L S fXo.2.<.aX+...O.y g E.Y.S.M.M.M.n.M.8.c.*XA.S.S.{.{.B.-Xt.z.7XB.M.M.S./././.M.9.4Xj.C.XXoXW.^.OXrXh t hX|.|.+X@.hX2.,...z D ",
"( L  XfX X:.+.` T Q 3 d W.[.I.I.M.n.N.n.7.n.*XM.M.S.)./.M.(.d.d.4XV.n.N.M.I.I.I.l.5.:Xd.N.P.Y.W.p.J.E.w r ..<.<.@.O.|.:.) n b +.",
"L b A R m Z L S F F 4 d W.I.I.g.v.v.g.b.7.v.1XM.M.M././.m.U.t.d.2Xn.l.b.g.P.N.N.g.5.`.d.g.d.t.e.r.j.XXw < r M M N N B A x = x ' ",
"( H D A l F } <... .4 9 G.G.h.h.f.p.p.b.7.b.[.L.v.L.I.I.L.W.e.t.XXb.g.p.f.L.G.G.f.7.R.s.w.g.f.e.0.r.U.w e W o. XO.' c { } ] X.+.",
"L ^ D ) l | 4.@X#XQ.9 9 F.G.h.g.a.p.p.p.> j.E.G.f.f.L.f.b.L.e.i.R.b.g.p.F.L.F.F.p.6.W.p.0.s.s.6.e.w.C., y }. X}.<.+.l } &.>.4.] ",
"J A J R = ` +.$.#.<.y 6 D.i.a.a.s.a.y.a.> p.E.a.h.G.G.G.f.L.a.s.Y.d.d.s.a.F.p.F.i.> W.y.7 q.6.6.7.7.b.r.y xXo.,.+.' V *.1.X.4.{ ",
"S D J R z ] 3.4.#.<.u e y.y.y.e.y.y.y.i., y.L.e.s.h.h.h.h.f.w.w.I.d.e.e.s.s.y.i.e., G.y.6.6.6.6.7 w j.p y xX;. X<.+.j *.&.&.{ -.",
"` K D Z z #.3.+.+.$.n 3 d q.q.0.i.e.6.e.> w.G.h.s.h.h.h.h.a.6.w.N.8.e.w.6.w.q.y.6., i.q.> > 7 7 8 p r.6 r hX:.:.+.=.c pX-.-.=.1.",
"* * & * = #.!.+...O.t 1 d d p 7 6.6.6.7 , 5.h.w.6.6.e.h.6.e.6.6.g.8.8.5.6.w.q.q.p , y.p 7 8 8 p 6 8 y.; 2 |.:.:.!.!.c * * * = - ",
"X   % * = | 1.{ ' ' z 5 9 0 6 8 0 p 0 8 , q.F.q.w.6.y.y.y.y.0 q.p.w.7 8 7 0 0 8 p : p p 6 6 9 0 6 9 a 1 z 2.:.pXgXiXj X X X X   ",
"$ - l x c ( | | [ H b 4 Y 9 9 a 9 0 6 6 : 9 D.0 0 0 0 6.0 0 9 0 J.d a 9 0 d a 0 6 : 6 p 6 6 9 9 9 s d 1 x *.:.:.@.-.G V V V $ % ",
"% $ k k j b v m B l 2 4 9 6 1 9 3 4 4 4 4 4 Y 9 9 9 9 Y 9 s 4 4 Y 4 4 4 4 3 4 4 1 5 1 4 5 1 5 4 4 5 1 5 = l c c L n j j j k $ % ",
"$ $ % o o o X X o     O O O O + # . . # . . # O # O # # O @ O @ @ . # # # # # # O O + + O O . . O . O O   o o o .   X X % X $ % "
};
