/* XPM */
static char *_9471ed01869438ebbd8a6fcd0b7e5290t0lXWvx7eMcOiNX[] = {
/* columns rows colors chars-per-pixel */
"64 64 244 2 ",
"   c #090A0A",
".  c #0E1309",
"X  c #171806",
"o  c #151514",
"O  c #151A14",
"+  c #1B1B15",
"@  c #161B1C",
"#  c #1B1C1C",
"$  c #171618",
"%  c #0D1112",
"&  c #241D02",
"*  c #2B1E00",
"=  c #231E0A",
"-  c #281A05",
";  c #221D1D",
":  c #261F16",
">  c #301F05",
",  c #1E230B",
"<  c #1C211D",
"1  c #192115",
"2  c #242102",
"3  c #2A2200",
"4  c #23220C",
"5  c #2A2609",
"6  c #372900",
"7  c #23221C",
"8  c #2A251C",
"9  c #292717",
"0  c #322B1D",
"q  c #362615",
"w  c #34330C",
"e  c #1D1D22",
"r  c #151721",
"t  c #211D22",
"y  c #1E2122",
"u  c #232423",
"i  c #262B24",
"p  c #2B2B25",
"a  c #26252A",
"s  c #2C262B",
"d  c #252B2B",
"f  c #2C2C2B",
"g  c #2A2624",
"h  c #322D24",
"j  c #322D2C",
"k  c #362926",
"l  c #2D3123",
"z  c #2D322D",
"x  c #2A362D",
"c  c #333026",
"v  c #32322B",
"b  c #2C2C32",
"n  c #282831",
"m  c #322E31",
"M  c #312F3A",
"N  c #2D3233",
"B  c #2E3339",
"V  c #323232",
"C  c #373737",
"Z  c #443403",
"A  c #4A3500",
"S  c #423B2D",
"D  c #5E5718",
"F  c #5A4D0D",
"G  c #655812",
"H  c #615002",
"J  c #7B6F1D",
"K  c #796C17",
"L  c #7D711D",
"P  c #777115",
"I  c #776A0B",
"U  c #7B6E23",
"Y  c #766E26",
"T  c #7C7326",
"R  c #716D32",
"E  c #504C29",
"W  c #3D3E43",
"Q  c #423F48",
"!  c #474746",
"~  c #585859",
"^  c #4E4E4E",
"/  c #61625E",
"(  c #787951",
")  c #645F65",
"_  c #5E6364",
"`  c #646563",
"'  c #6B6B6B",
"]  c #686667",
"[  c #7B7A7B",
"{  c #767777",
"}  c #70746D",
"|  c #5E5B5E",
" . c #867705",
".. c #857212",
"X. c #827227",
"o. c #7B816E",
"O. c #988A13",
"+. c #AB9A12",
"@. c #AB991A",
"#. c #A69816",
"$. c #AA940D",
"%. c #9B9435",
"&. c #B29921",
"*. c #B2A63A",
"=. c #CBB112",
"-. c #CCB629",
";. c #EED407",
":. c #F5D503",
">. c #FCD603",
",. c #F6D902",
"<. c #FCD903",
"1. c #F5D50B",
"2. c #FCD60B",
"3. c #F5DB0B",
"4. c #FBD90B",
"5. c #EED31E",
"6. c #ECD413",
"7. c #F5D512",
"8. c #FBD512",
"9. c #F5DA13",
"0. c #FCD913",
"q. c #F3D41C",
"w. c #F5DB1D",
"e. c #FCDB1B",
"r. c #FAD719",
"t. c #F4CD0C",
"y. c #FDE017",
"u. c #D8C53A",
"i. c #D7C52D",
"p. c #EBCE28",
"a. c #EDD323",
"s. c #EDD22B",
"d. c #E5D22D",
"f. c #F2D322",
"g. c #F2D22A",
"h. c #FBDD2A",
"j. c #F7DA26",
"k. c #E7CD39",
"l. c #EED131",
"z. c #EDD737",
"x. c #F5DD34",
"c. c #F9DD34",
"v. c #F4DC3B",
"b. c #FBDD39",
"n. c #F3D333",
"m. c #F2CF29",
"M. c #FAE12B",
"N. c #F8E225",
"B. c #F8E137",
"V. c #D7C012",
"C. c #9B975E",
"Z. c #C8B946",
"A. c #EDD946",
"S. c #EBD74F",
"D. c #F8E14B",
"F. c #F9E657",
"G. c #D9CE6E",
"H. c #F7DF65",
"J. c #F3DD75",
"K. c #FBE464",
"L. c #FAE56B",
"P. c #F7E769",
"I. c #FFED7A",
"U. c #F7E479",
"Y. c #F9EB7D",
"T. c #D4C357",
"R. c #7C8383",
"E. c #898A89",
"W. c #96968C",
"Q. c #9B9B9B",
"!. c #979897",
"~. c #908E90",
"^. c #A1A19C",
"/. c #B6B299",
"(. c #9E9FA4",
"). c #9EA5A2",
"_. c #A3A3A3",
"`. c #ABACAD",
"'. c #A7A9A8",
"]. c #ACB3AD",
"[. c #B8B4AA",
"{. c #ACACB1",
"}. c #B5B6B4",
"|. c #B7B9B8",
" X c #B0AFB3",
".X c #9EA49A",
"XX c #C5B895",
"oX c #BBC2BE",
"OX c #F7E687",
"+X c #FDEE9B",
"@X c #F5E794",
"#X c #FDF39D",
"$X c #EDE288",
"%X c #C0C3BE",
"&X c #C9C6AC",
"*X c #FFEEA3",
"=X c #F5EEA8",
"-X c #FCF1A2",
";X c #FFF8A8",
":X c #FFFCB6",
">X c #DED194",
",X c #BBBCC2",
"<X c #C3BDC3",
"1X c #C7C8C8",
"2X c #D9DAD8",
"3X c #D6CFD7",
"4X c #FFFEC4",
"5X c #FFF8C7",
"6X c #E6E8DE",
"7X c #FFFFD4",
"8X c #FFFFDB",
"9X c #E6E6C7",
"0X c #DFDFE1",
"qX c #DFE4E4",
"wX c #E5E5E4",
"eX c #EBEBE5",
"rX c #E5E5EA",
"tX c #ECECEC",
"yX c #E9E7E8",
"uX c #F3EDED",
"iX c #F1ECE5",
"pX c #EEF1E9",
"aX c #FFFEE4",
"sX c #F2F2ED",
"dX c #FEFEEB",
"fX c #F7F4E9",
"gX c #EDEDF1",
"hX c #E9E7F3",
"jX c #F1EDF3",
"kX c #F6EEF8",
"lX c #ECF1F4",
"zX c #EEF2F9",
"xX c #F6F6F6",
"cX c #F3F3F3",
"vX c #FAF5F4",
"bX c #FCFBF4",
"nX c #F5F5FA",
"mX c #FAF5FB",
"MX c #F5FBFC",
"NX c #F9F9F9",
"BX c #FEFEFE",
"VX c #FDFDFC",
"CX c #F7F8F3",
"ZX c #DFE1E0",
/* pixels */
"BXcXtXNXyXxXcXwXBXyXsXVXwXxXNXwXVXeXgXMX' . t u @ < < 1 ; + ; + # + t # ; ; # ; e @ u % ).BX6XCXsXyXVXwXxXxXwXBXgXcXnXgXnXcXtXVX",
"yXtXNXyXNXtXxXBXyXNXcXrXNXwXlXxXwXcXlXxX} y f a z d N N m M j f j j V f j m s m b d f # `.nXjXuXsXsXwXCXtXwXBXyXnXnXhXVXtXgXNXyX",
"NXcXtXBXyXxXsXtXxXcXsXNXcXBXxXBXVXBXNXBX} $ b B 7 1 # e r t e e y e y y a n g p f f c O {.mXmXmXNXxXBXbXcXNXtXNXgXgXNXtXxXcXtXxX",
"lXsXNXtXNXtXxXcXcXNXtXNX1X|.1X<X1X<X<X1X` y b a ! ~ ~ ~ ~ | ~ ~ ~ ^ ~ | W a f p p i 9 7 ~.3X<X1X1X1X1X|.6XNXyXxXxXcXgXnXcXcXcXsX",
"yXxXNXwXBXtXtXVXtXtXxXxX}   u 7 # 7 + u : p m # |.VXCXCXVXBXVXBXBXBXBXMX[ r y d g p p p 7 # + # # # e % ^.VXNXyXxXgXyXVXtXtXBXyX",
"BXtXyXBXwXNXcXyXBXyXtXBX] ; V f i x V j j j j t [.VXdXCXbXNXdXdXvXvXvXbXC.@ v z c p p c p z z i V f m # _.NXwXNXtXsXBXwXNXVXZXBX",
"yXxXxXwXBXlXtXVXcXBXBXBX{ $ f d y < $ 9 ; + 4 . ].dXaXaXdXdXaX8XaXaXaXaX( X 4 4 - - 2 , 4 i i i u f m $ Q.VXmXyXVXcXwXBXtXtXBXwX",
"xXcXcXNXyXcXcXcX1XQ.'.`.^ # V u _ R.[ [ { { [ } XX:X=X-X=X=X-X+X+X+X*X:X*.G U U U U K R E 9 f s f f b o `.VXrXNXtXcXNXyXxXxXtXNX",
"xXtXcXcXsXNXtXBX~   o + a f f y oXNXBXBXBXBXVX8XOXA.l.l.l.l.g.f.j.m.m.g.x.c.c.x.b.b.n.H.X.: k b s s j $ (.BXgXcXsXsXCXeXsXxXgXxX",
"tXcXxXtXxXtXtXBX] u V f f f f u [.bXbXbXsXxXfX5XH.m.j.8.r.8.8.4.1.2.0.8.6.3.;.:.:.>.,.c.I 3 k k j p j $ !.xXcXwXCXsXwXVXpXcXnXyX",
"BXcXtXVXtXxXtXcX` + V f u ; # . /.8X8XaXaXaX8X4XH.k.s.a.s.s.a.a.a.a.m.n.z.z.B.B.e.1.:.N.I & 2 5 9 0 h o  XBXkXBXsXpXVX6XxXcXtXBX",
"yXcXxXwXVXlXtXBX] o f d { ^.^.W.>X+X$X@X@X@X@XOXI.U.I.I.I.I.I.OXI.I.I.I.Z. ... .=.y.:.9.=.O.O.%.E 9 h ; ` E.R.{ 3XNXwXbXyXcXmXrX",
"NXtXcXNXwXNXtXBX] u m @ |.BXVX8XJ.n.n.g.q.a.a.k.+X4X8X8X8X8X8X8XaXaX7X7X( . 3 & $.j.2.2.w.N.M.F.X.= v j + e t   ~.bXsXsXxXcXuXBX",
"xXsXxXtXcXcXyXBX` $ V + |.VXcX7XH.6.0.2.<.<.3.d.+X8XVXNXCXbXbXbXVXbXfXdXo.O C 3 &.h.t.>.,.;.:.x.Y 4 0 c p b b t '.BXtXsXcXsXjXjX",
"yXxXxXtXBXVXBXBX] @ j u |.NXVX7XK.q.9.:.,.>.4.s.*XaXbXbXaX7X7X7X7X7X4X7Xo.1 z & @.h.2.2.,.,.<.b.U 5 9 9 p f b $ ).VXtXbXuXtXNXtX",
"BXcXyXBXE.~ ` ] C u b # |.BXNX8XK.f.9.2.4.2.1.l.*XaXVXdX=X$XJ.U.U.J.J.@X( , f 3 @.h.8.2.,.,.>.b.J 5 0 p f a b @ !.BXcXZXBXxXrXBX",
"rXxXxXMX~   8 + u j d e |.VXMX8XK.q.1.3.2.<.>.g.*XaXbXaXU.k.g.f.f.f.f.A.Y 2 f 3 +.h.1.<.>.>.>.b.U - k k a y B O '.NXwXBXuXgXNXrX",
"NXcXtXNX' e v p p f d < [.bXdX:XF.q.9.4.,.>.,.s.-XaXbX7XL.f.8.>.>.>.,.c.L 2 c 3 @.h.1.>.>.>.>.h...- q 0 l x x % !.VXjXgXcXnXgXxX",
"pXpXpXVX] $ f p z a N 9 XX5X:X#XD.r.4.4.>.<.<.g.+XaXbX7XL.f.8.>.>.2.,.b.U 2 v 3 @.h.1.>.>.>.,.h. .w Z 6 5 < x # ^.VXCXtXNXsXcXcX",
"eXfXfXCX` < V # _.tX2X9X>XJ.H.S.h.8.3.,.>.<.2.s.-XaXbX8XL.s.4.>.<.<.:.x.L 2 h 3 @.M.2.>.>.>.2.r.p.-.u.T.R 4 p u C ! ^ C _.VXCXtX",
"VXtXwXVX] @ n y |.BXVX7XU.A.d.j.q.4.,.<.,.>.<.g.*XaXbX8XL.f.4.<.<.<.,.b.J 2 f 3 @.M.1.<.>.>.>.4.r.j.a.F.T 2 v f 8 8 a % '.NXwXNX",
"uXxXCXNX~ y B y  XBXfX7XH.f.3.,.1.4.,.<.>.>.2.s.*XaXbX8XL.f.8.>.<.2.,.c.L 2 c 2 @.M.1.<.>.>.>.2.2.t.3.z.L 2 g f h p n e !.NXBXqX",
"jXjXsXNX_ < B @ |.VXmX7XK.f.4.2.2.2.>.<.>.>.2.g.*XdXCX8XL.a.8.>.>.<.>.c.J & v 3 @.j.2.,.>.>.>.2.>.>.<.h.L 2 f f h 8 V $ ).BXyXNX",
"NXuXpXbX` @ d y }.BXmX8XH.q.0.1.<.<.,.<.<.>.2.s.-XaXbX8XL.a.4.<.>.>.,.c.L 2 c 2 +.h.2.>.>.>.,.2.>.<.:.h...2 j s p p v o !.BXgXnX",
"yXcXcXcX] + V # }.VXvX8XK.f.r.4.4.,.<.<.>.<.>.g.*XaXxX7XL.a.4.>.<.<.,.c.J & c 3 @.M.1.>.<.>.2.<.>.>.,.c.X.4 j n p g f O !.VXxXhX",
"BXcXrXBX| ; v ; }.VXmX8XK.f.r.3.2.>.<.<.<.>.2.n.*XdXVX7XP.f.0.>.2.>.,.c.J & h 3 @.h.1.>.>.>.>.>.>.>.2.b.J 2 j n s g v O ^.VXhXVX",
"rXcXNXlX] $ m ; [.VXNX7XK.w.3.3.,.<.<.<.>.<.2.l.-XaXbX7XL.f.8.>.<.>.2.c.L & v 3 @.M.:.<.>.>.>.>.>.>.:.x.J 3 f n b b f O W.VXmXyX",
"MXlXgXBX] ; m # |.BXxX7XF.6.3.,.>.>.<.<.<.>.2.l.-XaXdX7XL.f.8.2.<.<.,.c.J 2 c * @.M.1.>.<.>.>.>.<.<.,.x.L & z n n n f O ^.VXuXmX",
"CXpXtXBX` : f # |.BXmX8XK.q.4.3.>.>.>.<.>.>.<.n.*XaXdX7XP.a.8.>.>.>.,.c.J 2 f 2 @.M.1.>.>.>.>.>.<.<.,.x.L 2 p f s f f O ^.VXeXNX",
"wXsXxXsX] + v < |.BXnX8XK.q.4.<.>.>.<.<.>.<.1.n.-XaXdX7XL.f.8.>.>.,.>.c.J 2 c 3 @.h.1.>.>.>.>.>.>.<.,.x.L 2 c p b b f O Q.VXxXwX",
"BXjXtXVX/ + v e ,XMXnX8XK.q.2.>.2.>.,.<.>.2.2.s.#XaXdX7XK.f.8.2.>.>.,.b.L & c 3 @.M.1.>.>.>.>.2.2.2.,.c...& c p g g N O ).BXyXVX",
"tXzXnXnX/ : z + ,XnXnXaXK.r.2.>.>.>.>.<.>.<.2.n.*X8XbX7XL.f.8.>.>.>.:.x.U 2 v 2 @.h.1.>.>.>.>.2.2.2.,.c.L & l g p p f o !.VXNXyX",
"MXnXhXVX` + x < |.VXnX8XL.f.2.>.>.>.>.<.>.>.2.l.-XaXxXaXP.f.8.2.>.<.,.v.U = f 2 @.M.7.2.>.>.>.>.>.>.>.c.J 2 p p p p p O ).MXgXMX",
"sXgXkXmX` + N # }.BXxX7XL.q.2.>.>.<.>.<.>.2.2.n.-XaXVX8XP.5.2.>.>.<.2.v.U 4 v 2 @.h.7.2.>.>.>.>.>.>.>.c.L 2 c i h g v o !.MXgXcX",
"yXNXkXmX` @ b y ].VXCX7XK.f.4.,.<.<.,.>.<.<.4.n.#XaXbX7XK.6.2.>.>.>.>.h.K 2 v 2 @.N.1.2.>.>.>.>.>.>.>.n.L 2 l i g j j o !.BXxXgX",
"bXeXyXmX] # M e }.VXCX7XP.j.4.<.,.<.2.2.<.<.,.l.#XaXvX8XP.q.2.>.<.<.>.c.L 2 c * +.N.4.2.2.>.,.,.<.,.>.b.L , l p k s j o '.BX0XVX",
"6XdXvXmX) e M e ].BXNX7XP.a.4.<.<.2.2.4.<.<.<.s.#XaXxX8XL.m.8.2.2.2.2.b.K 2 c * +.N.>.>.2.1.,.,.,.<.:.v.T 4 f f m s M @ W.VXVXyX",
"dXeXiXVX] e N e |.BXxX8XP.a.8.,.<.>.8.4.<.<.<.f.-XdXxX8XL.g.8.2.2.2.1.v...2 c * +.y.1.>.2.>.<.,.2.<.1.b.U = f f m t m @ ^.VX6XvX",
"cXcXuXvX` @ b t |.BXxX8XL.j.0.<.>.>.2.2.<.<.<.s.-XdXbX8XP.5.<.>.>.2.,.c.L - m > +.j.2.2.2.>.>.>.<.>.2.b.X.& j f k g n r ).BXuXfX",
"tXgXvXVX_ y V @ |.BXvX7XP.s.8.,.>.>.>.>.>.<.<.g.#XdXxX8XP.q.2.<.>.>.,.x.L 4 j * +.N.t.>.2.>.>.>.>.,.:.x.X.& h p p a B r !.BXfX6X",
"MXzX0XBX` r B @ |.VXdX7XP.s.6.4.>.,.2.>.4.>.>.g.*XdXbX8XK.5.8.>.>.>.>.c.U = M * +.N.:.>.2.2.>.2.,.3.;.B.P 2 c 0 8 g N r ).BXyXbX",
"lXzXNXvX] @ C t [.VXbX8X$XS.A.s.r.2.>.,.2.2.>.g.*XaXvX8XP.f.0.>.<.>.>.c.T 4 m 2 +.N.1.>.>.>.>.r.j.d.z.H.T 2 0 p l p N @ Q.NXCX6X",
"nXnXhXVX] # u f C ^ ! W XX5X:X;XD.7.4.,.4.<.2.m.*XdXBX8XL.q.1.>.>.>.<.c.U 2 l 3 #.N.1.4.>.>.1.x. .A H A c 0 h $ E.6X6X1XuXmXgXNX",
"nXgXuXVX` ; V p 7 < d o |.bXvX7XK.q.3.,.2.2.2.g.*XdXvX8XL.s.e.<.>.>.>.v.K 2 l 2 #.M.1.,.>.,.:.x...> q 8 p f f $ ^.VXuXNXmXjXzXkX",
"6XiXfXVX/ % a a f x y y [.dXbX7XK.5.4.,.,.<.2.n.-XaXbX8XY.d.N.9.1.3.q.D.U X c 3 #.M.t.2.,.,.,.M.L 2 h g n b b $ {.BXrXCXyXuXmXyX",
"VXiXiXbX[ C ! Q N a N < |.VXsX7XP.5.3.,.,.>.2.n.@X9X6X9XG.u.u.-.i.i.A.T.R 2 c & &.M.>.>.>.>.,.h.P 5 j b d a b e !.BXBXZXmXvXyXBX",
"wXMXjXrXNXrXhXVX` o B @ }.BXVX7XL.f.1.,.>.2.>.b.P w x l w Z Z Z A Z Z Z w 1 x 3 &.h.>.>.>.2.>.x.P 2 8 f f p m $ {.NX2XNXrXcXBXZX",
"MXlXnXMXgXxXkXmX' e x y }.BXnX8XL.m.r.>.2.>.>.b.P , l i 0 c q k g 0 0 : l x z 3 @.h.>.>.2.8.t.v.Y 4 p f i f j @ Q.NXMXeXNXlXtXMX",
"lXcXNXlXcXlXtXBX' + V # ,XBXNX8XU.l.f.t.>.<.>.b.I * 5 4 = 4 ; 7 # 8 5 4 = = : - +.j.4.2.3.r.j.D.R , l i 8 + 7 . !.BXyXcXlXxXcXlX",
"lXsXcXsXcXcXtXBX) @ f u !.3X1X&X>XJ.H.D.r.:.1.j. .H H D G G D D D G F F H G G H =.e.,.3.=.=.-.Z.R 1 v # ! / ^ ^ ,XNXgXVXtXxXxXtX",
"VXtXyXBXwXNXsXxX} # a f a u f + &X7X7X;XF.7.e.8.h.j.M.x.v.v.B.l.x.v.x.b.B.v.n.b.r.8.:.M. .3 6 3 9 8 p 1 ].VXcXBXcXcXNX0XNXcXyXNX",
"yXNXNXwXBXtXyXBX` e C j f i f u ].VXjX7XP.s.f.7.t.>.>.,.>.1.,.>.,.,.>.,.1.;.;.1.8.7.;.B.J - h p l p f + Q.xXxXwXxXNXrXBXtXcXNXtX",
"cXcXsXNXrXxXcXNX|   7 o u V f u oXBXVXaXOXS.b.h.e.2.>.>.0.2.>.>.>.2.>.<.t.h.M.j.n.b.M.F.T 5 h p p p V O '.VXwXBXtXcXNXrXBXcXwXNX",
"xXxXuXcXxXcXsXxX_.} [ [ ! e f u R.`.{./.C.%.#.$.=.8.4.,.>.2.>.>.>.2.>.e.=.$.+.#.#.O.O.*.D 5 h g g i v o ^.BXgXjXcXcXcXcXsXcXxXsX",
"yXcXxXtXNXtXlXBXcXBXVXNX{ # V f e t ; + 5 5 3 & +.w.y.,.:.<.<.>.,.:.:.h. .- 3 3 3 6 3 X 9 p f f p i f # ).VXBXyXcXnXyXBXtXcXVXwX",
"BXlXyXBXyXNXcXwXNXwXtXBX' # V f m m C z l l h 3 +.M.6.3.1.;.4.1.1.3.6.A.X.3 v f j a V j f V f z f V V # `.VXwXVXgXgXNXwXBXsXwXVX",
"wXxXNXwXBXyXuXBXyXxXNXxX`   $ o O @ X . u f p 3 *.F.v.v.B.B.B.M.c.B.x.P.T & c f j b a f < . 1 . o $ @   !.NXNXrXNXxXwXBXyXcXNXwX",
"xXtXlXNXtXxXcXtXxXcXyXBX}.!.Q.~._.~.!./.! f p q G .... .I  . . . . . .X.E 9 p d s s j + { ).E.).Q.~.'.E.2XBXtXNXgXgXNXyXNXcXtXNX",
"cXcXcXcXcXcXcXsXcXcXlXcXBXNXVXBXBXBXVXVX[ r f g q > > * 2 2 2 2 , & 3 & 8 f f p m g v $ ].MXVXVXBXBXBXBXgXnXsXcXcXcXcXcXcXsXsXsX",
"yXcXxXtXNXtXcXNXtXcXNXwXNXyXcXxXwXMXrXnX{ e V j m k m V V x N x z C j j B n x f u j C + `.zXnXhXjXcXrXcXcXjXBXrXxXcXwXNXtXcXxXtX",
"BXcXyXBXyXVXcXwXBXlXyXBXwXBXxXwXBXrXnXMX_   $ # + O u r t # O 1 O + = + e r 1 1 1 ; e   '.MXrXVXnXgXNXtXcXcXwXBXyXtXBXwXNXtXyXBX",
"wXcXNXwXBXyXlXBX6XNXxXyXBXyXlXBXqXBXlXlX2X].1X|.].1X X,X1X`.oX|.[.%X].|.<X`.1X].}.<X|.,XqXhXVXtXcXcXwXBXcXsXNXyXNXxXwXBXtXxXBXwX",
"NXcXsXxXtXxXcXtXcXxXtXxXuXcXtXtXVXyXlXMXpXNXvXBXVXNXVXMXbXBXcXBXBXxXVXbXMXVXMXMXvXVXVXcXMXxXeXfXtXxXxXrXNXcXyXcXtXsXbXtXcXcXtXNX",
"cXsXgXNXyXxXxXjXxXtXcXcXcXcXcXcXnXxXcXpXfXfXuXuXzXgXjXlXuXvXtXlXzXhXsXtXcXxXyXlXfXiXfXcXgXcXiXfXCXtXcXxXeXNXsXxXcXsXxXyXNXcXyXNX"
};
