/* XPM */
static char *coin_2d_super_mario_coin_2d_11563191115sspsxa9g5b__1_1677264070[] = {
/* columns rows colors chars-per-pixel */
"64 64 104 2 ",
"   c #743E15",
".  c #764016",
"X  c #7A4515",
"o  c #7E4915",
"O  c #774219",
"+  c #79451D",
"@  c #7B481F",
"#  c #7D4A23",
"$  c #7F4D29",
"%  c #814E15",
"&  c #855215",
"*  c #885615",
"=  c #8C5B14",
"-  c #905F14",
";  c #946314",
":  c #9A6B13",
">  c #9F7113",
",  c #A37513",
"<  c #A67913",
"1  c #AA7D12",
"2  c #82522C",
"3  c #855631",
"4  c #875935",
"5  c #885A36",
"6  c #8A5C39",
"7  c #8E623F",
"8  c #8E6342",
"9  c #906544",
"0  c #946B4B",
"q  c #997253",
"w  c #9C7659",
"e  c #9E795C",
"r  c #A07C5F",
"t  c #A27E63",
"y  c #AC8012",
"u  c #B18612",
"i  c #B58A12",
"p  c #B98E12",
"a  c #BD9411",
"s  c #C49C11",
"d  c #D7B20F",
"f  c #DAB60F",
"g  c #DEBA0F",
"h  c #C7A011",
"j  c #CBA410",
"k  c #CFA910",
"l  c #D3AD10",
"z  c #D6B110",
"x  c #D9B410",
"c  c #E1BE0F",
"v  c #E5C30F",
"b  c #E8C70E",
"n  c #ECCB0E",
"m  c #F0CF0E",
"M  c #F4D40E",
"N  c #F7D80E",
"B  c #F8D90E",
"V  c #A38166",
"C  c #A7856A",
"Z  c #A8866B",
"A  c #AA896F",
"S  c #AB8C73",
"D  c #AE917A",
"F  c #B1947D",
"G  c #B39781",
"H  c #B49984",
"J  c #B79D89",
"K  c #B89F8B",
"L  c #BAA18C",
"P  c #BCA592",
"I  c #C0A997",
"U  c #C3AE9C",
"Y  c #C5B2A2",
"T  c #CAB6A6",
"R  c #C7B6A9",
"E  c #C8B7A9",
"W  c #CBBAAD",
"Q  c #CEBFB4",
"!  c #CFC0B4",
"~  c #D1C2B5",
"^  c #D4C5BA",
"/  c #D6C9BE",
"(  c #D7CAC1",
")  c #D9CEC5",
"_  c #DDD3CA",
"`  c #DED6D0",
"'  c #E0D5CD",
"]  c #E0D7D1",
"[  c #E2DAD3",
"{  c #E5DED9",
"}  c #E7E1DC",
"|  c #EAE3DE",
" . c #E7E4E1",
".. c #EAE6E3",
"X. c #EDE9E5",
"o. c #EFEFEF",
"O. c #F1EEEC",
"+. c #F2F0EE",
"@. c #EFF0F0",
"#. c #F4F4F4",
"$. c #F9F8F7",
"%. c #F7F7F8",
"&. c #F7F8F8",
"*. c #FAFAFA",
/* pixels */
"*.%.o.*.$.o.*.$.o.*.&.o.*.&.o.*.&.@.&.&.@.#.[ P V 7 $ 7 7 7 q V S H P R ! ) ) ` | } ..$.$.@.*.$.o.*.&.o.*.%.+.%.*.o.$.*.o.$.*.#.",
"%.$.%.%.%.$.#.%.#.#.#.$.#.$.#.%.#.#.&.@.! V $ X . . . .   . . . . . X X O # $ $ 7 7 0 V P ` #.$.#.#.$.$.#.#.$.%.#.$.%.#.%.#.#.#.",
"o.%.*.+.#.*.o.#.*.#.#.*.#.#.*.#.@.@.~ V @ . . o ; , y u y > = o . . . ; : ; - * o o . . X 2 D } *.#.#.*.#.#.*.#.#.*.#.#.*.#.o.*.",
"*.%.@.*.$.o.*.%.o.*.$.o.$.&.o.*.o.J # X . - p g m N N N N M b d u = . o p v m b c g h > o   . 7 W *.&.o.%.%.+.%.$.o.$.&.o.$.*.#.",
"%.#.%.#.%.#.%.%.#.#.#.$.#.#.&.} V     o h n B B N N N N N N N B N b a * . ; z N N N B N z : . . $ P #.%.#.#.%.#.#.#.#.#.$.%.#.%.",
"o.#.*.+.%.*.+.#.*.#.#.*.#.#.[ 0   . y g N B B B N N N N N N N N N B B v y . o a M N N N N n i o . @ K $.#.#.*.#.#.*.#.#.*.#.o.$.",
"*.%.+.*.$.o.*.$.o.*.$.o.*.[ 8 . o a M N N N B B B N m M M B B B N N N B M s o o i m N N N N N a o   @ P $.*.o.%.&.o.$.&.o.$.*.#.",
"%.%.%.#.#.%.#.#.#.$.#.$.} 0   o h M N N N B M g i > ; ; : y j b N B N N B B z * O u M N N N N N h o   # E $.%.#.#.$.#.#.$.#.#.%.",
"o.#.*.@.$.*.o.#.*.#.#.O.e   o s B B B B M k o o       .     o o i v N B N N N f * X a N B N N N M a X   4 _ *.#.#.*.#.#.*.#.o.&.",
"*.$.@.*.$.o.*.$.o.&.%.D . X a N B B B n y o     o y s k h a y o . * h M N N N N d o o h B M N N B M 1 . . e X.&.&.o.$.&.o.$.*.#.",
"$.$.&.$.#.$.#.#.$.$.W #   1 M N B B n o     X y f M B B B B N v i o X u m N N N B h X o c N N B B B b ;   O U %.%.$.#.%.%.%.#.%.",
"o.#.*.@.#.*.#.#.*.} 8   ; b N N B n o     o a M N M N N N N N B B g ; X y m B N B M i X > m N B N N B l o   7 { #.*.#.@.*.#.o.$.",
"*.%.o.*.&.o.*.$.+.F   o l N N N g o o   o h B B N N N N N N N N B B b , . y M N B B n ; X s B M N N N M 1   . L &.o.&.*.o.$.*.#.",
"#.&.$.%.#.&.#.$._ $   y M N N m y   X o s N N B N N B N N N N B B B B n > X a B B M B z o * b B N N N N v &   6 } $.%.#.%.#.#.%.",
"@.#.&.#.#.*.#.+.S . * v N N N a X .   y N N B B b b v v b v v v v b M B v - o d B B B M y . i B N N N N B i   . P *.#.+.*.#.o.%.",
"*.#.o.*.&.o.*._ $ . i N N B g & o o o n N N B N o o o o o o o o o ; n N B l o ; m M B B c o o v B N N N B g &   0 ..*.*.o.$.*.#.",
"%.$.$.#.#.&.#.F   & c N N N , . . o k N N N N b o o o . . o o o   * b B B B 1   s B N N B u   p N N N N N N 1   # Q %.#.%.#.#.%.",
"o.#.&.#.#.*.{ 6 . y N N N d o . . > M N N N N b o o O   y g g f - * c B B N b & * c N N B g % * b B N N N B l #   G #.#.*.#.+.*.",
"*.%.o.*.&.@.T O o d B B N 1 .   o d N N N N N b o o     y M M M : & b B B B B i + s N N B N <   s B N N N N m -   8 X.*.o.%.*.#.",
"#.$.$.#.%.#.V   : m N B c o . . > M N N N N N b o   .   y M N M : & c B M B B c % = m N N N k + , M N B N N B u   # ( %.%.#.#.%.",
"o.#.*.#.%...4   p B B B p . . . j N N N N N N b o o o   y N N M : % c B B M B M , + l N N N n = & v B N N N B l X   P #.*.#.+.*.",
"*.%.o.*.&.E O o f B B m :   . = b N N N N N N b o o o   y N N M : & b B B B B B j   1 N N N N 1   s B N N N N b &   C %.o.%.*.@.",
"#.%.%.#.%.F   = n B B g o . . 1 N N N N N N B b o o     y N N M : & c B N B B N c & - m N N B j + 1 N B N N N M :   9 X.%.%.%.%.",
"+.#.*.#.O.w   1 N B B s . . . j N N N N N N B b o       y N N M : & b B N N N N N > + x N B B c % - m M N N N B u   2 [ *.#.+.%.",
"*.%.o.*...4   a B N N y     & c N N N N N N N b o X X . y N N M : & b B B N N N N s   s B B B m - % c B N N N B s   % ( @.%.*.#.",
"#.%.$.%._ # X l B B M :     - m N N N N N N N b o o .   y N N M : & b B B B N N N k   1 M B B B 1   l B N N N N d o   Y *.%.#.%.",
"@.%.*.#.E X % g B B b * .   < N N N N N N N N b o   .   y N N M : & c B N N N N N c % : M B B B s   s B N B N N c %   K *.#.o.%.",
"*.&.@.*.U   = b B B g o . . i N N N N N N N N b o . .   y N N M : % c B N N B N N c & * n B M B s   u B B B N N b *   D #.*.*.+.",
"%.%.$.#.H   - m N B d X     s B N N N N N N N b o o .   y N N M : & c B N N N B N m - % c B N B z   < M N N N N m -   t %.#.#.%.",
"+.#.$.#.A   : M B B k . . X k B N N N M N N N b o o .   y N N M : & b B N N B M N M : % c B N B g % > M N N N N m -   t %.#.+.%.",
"*.%.o.*.A   : M N B h . . X d N N N M N N N N b o X .   y N N M : % b B B M B M N M >   x B N B g % : m N N N N M :   q o.%.*.#.",
"#.%.%.#.V   > M N B h .   X d N N N N N N N N b : X .   y N N M : & c B B B B B N M , 2 x B N B c % : m N N N N M :   w #.#.#.%.",
"+.#.%.#.t   , N B B s     + x B N N N N B B N b * O O   1 B M M : % b B B B B M N M > X d B N N v % ; m B B M B M :   w %.#.+.$.",
"*.%.o.*.C   , M N B j O X + z B N N N B M M B b *       y B B M : & c B B B B B N N > o f B B N c % ; M B M B B M :   w o.#.*.@.",
"#.#.%.#.A   : M N B k     X k B N N B M B B B b *       y B N M : & c B B M B M N M : o c B N B g X : N B B B M m ;   e $.#.#.&.",
"@.%.%.#.G   - m N B l %     s B N N B B M B B b *   +   y M N M : % n B B B B B N n - & v B N B d X < N B M B B n -   V $.#.#.*.",
"*.%.@.*.U   * n B B c %     p B N N N N N N B b *   +   y B B M : & b B M B M B N b & = m B N B j . y N B B B N b *   D o.&.*.#.",
"#.#.*.%.T   % c B B n *     1 N N N N N N N B b *       1 N N M : * c B B B B B B g o : M N N B a   s B B B N N c o   K *.#.#.&.",
"#.#.%.%.) 2 X z N N M :     ; m N N N N N N B b *       y B N M : & b B B B M B B k   u N N N N y . k B M M B B d X . Y *.%.#.%.",
"*.%.@.*...5   s B M N u     & v N N N N N B B b *   O   1 N N M : & c B M M B B B i   s B N N M : o g N B B B B s   @ / @.$.*.o.",
"#.#.%.#.O.q   1 N N N k     X k B N N N N N N b *   O   y B N M : % c B N N N N M : % g B N N v & = n N M B M N 1   $ ` *.#.#.$.",
"#.#.%.#.%.G   - m N N c *     1 N N N N N N N b & +     1 N N M : & b B N N N N c & - m N N B l X < N N B B B m ;   8 X.*.$.#.&.",
"*.$.o.*.*.E   % f N N M >     - n B B N N N N b *   O   y N N M : & b B N N N N s   u N N N N i . a B N N B B c %   V $.o.$.*.@.",
"+.%.%.#.%.{ 4   s B N N s     + j B N N N N B b *       y B N M : * c B N N N M : % x N N N m ; o c B N N N B h . . L $.*.#.#.&.",
"#.#.$.#.#.#.t   : m M N v & O   > M N N N B B b *   +   y N N M : & n N N N N x % ; M N N N d X : N N N M B M < . # ( #.&.%.#.$.",
"*.#.o.*.%.#.T   % c N N N u     $ l B N N B B b *       y B N M : & v N N N M 1   s B N N N u X a B N N N B v *   8 o.*.o.&.*.o.",
"#.#.%.#.#.*.{ 6   u N N N g &   O : m N N N B b *   +   , b n v - & v N N N x % ; m B N N v * & v B N B B B s .   F #.#.&.#.#.$.",
"#.#.$.#.%.%.#.F   2 v B N N 1 O   O s N N N B b &       o * * &   * v N N M ,   s B B N B s   1 N N N B B m ; . # / $.#.&.#.#.$.",
"*.%.o.*.$.O.*._ 2   a B N B v * O   & g B N N n ; o % % % % % % o ; n N B s . > m N N B b = o f B M B N N k X . 0  .*.*.@.*.*.@.",
"#.#.%.#.#.%.#.#.S   & v N N B h X     ; b B N N b c c v c v v c b b N B z o o g B N N B a . 1 N N N N N M : . . Y *.#.@.*.#.@.*.",
"#.%.$.#.#.%.#.%._ 2   u N N B N y O O   > n B N B B N B B B B B N N N d * X h N B B B c * o g B N N N B j X . 0  .*.@.#.&.#.#.$.",
"*.%.O.*.%.o.*.%.+.G   o l N N N m :   O O : v N N N N N B N N N B M k * . p M N N N m 1 . i N N N B B b - . X P *.@.*.*.@.*.*.@.",
"@.#.%.#.#.*.#.#.*.{ 6   ; n B N B b :       = k M B B N N N B B b i o . u M N N N B s X - b N N M B N i . . q | #.&.#.#.*.#.@.*.",
"#.%.%.#.#.$.#.#.*.%.W #   1 m N N B b , . O   o < l n m m n x i = . o a M N N N B f & o l N N N N B k X . X ! &.#.$.#.#.&.$.#.$.",
"*.%.O.*.%.O.*.%.o.*.$.D O O a N N N B m a & O     X = ; ; * o   . : d N N N B B v - . i N N N N B c = . . D o.&.%.o.%.$.o.%.*.@.",
"@.%.*.#.#.*.#.#.*.#.#.O.e   o s N N N N B c y & +         + o : h m B N B B B v : . < m N N N N b : . . 9 } &.@.#.*.#.#.*.#.#.*.",
"#.#.%.#.#.$.#.#.%.#.#.*.{ 0   o s N B B N B N v j p y y u h g M N M N N N N v : . > n N N N N n > . . 4 ) $.%.#.%.$.#.#.$.#.#.$.",
"*.%.o.*.&.o.*.$.o.*.$.o.*.' 7   X a m B N N N B B N N N B B N N N B N N N z = O < b B N N N b : .   2 ! *.%.o.$.$.o.*.&.o.$.*.@.",
"#.#.&.#.#.*.@.#.*.#.#.%.#.#.[ 0   . < g B B N N B N N N N N N N N N B m a o + i m N N N N d ; .   2 ! *.#.#.*.#.#.*.#.#.*.#.#.&.",
"#.%.$.#.#.$.#.#.%.%.#.%.#.%.%.} t .   * a n B B N N N N N N N N B m j ; X = k M B N N v i %     8 ( %.%.#.%.%.%.#.$.#.#.$.#.#.$.",
"*.%.o.*.$.o.*.%.+.%.%.o.%.$.o.*.+.K 2   . = a f m N N N M M m g p ; X X > l g l j s 1 *     @ C { *.$.o.&.$.o.&.&.o.$.*.o.&.*.#.",
"o.%.*.+.#.*.#.#.*.#.#.*.#.#.*.#.#.*.( V #     o ; > u i y : = o . . . X & o X X         @ q R o.*.#.#.*.#.#.*.#.#.*.#.+.*.#.#.&.",
"#.#.$.#.#.$.#.#.$.%.#.$.#.%.%.#.%.%.&.+./ S 6 +             . . . . X @ # $ $ 4 7 8 q F ~ o.&.$.&.#.#.$.#.#.%.#.#.%.#.%.%.%.#.#.",
"*.$.o.*.$.o.*.$.o.*.%.o.*.%.+.%.*.o.&.*.o.%. .R D e 9 9 q e C F H P T W ~ _ _ ` X...X.*.%.+.*.$.o.*.&.o.*.$.o.*.*.o.$.*.o.*.*.o."
};
