/* XPM */
static char *_2a3033802064d06a343a91382582659oyVlgWr5yBErHIla[] = {
/* columns rows colors chars-per-pixel */
"64 64 225 2 ",
"   c #010001",
".  c #0A0101",
"X  c #050805",
"o  c #040409",
"O  c #0B0A0B",
"+  c #090408",
"@  c #140402",
"#  c #160905",
"$  c #1A0B06",
"%  c #1A0C0A",
"&  c #160B0A",
"*  c #1D110D",
"=  c #10100E",
"-  c #110F12",
";  c #141313",
":  c #191415",
">  c #1D1C1C",
",  c #181718",
"<  c #0F0F11",
"1  c #220E0B",
"2  c #290E08",
"3  c #29110E",
"4  c #25140D",
"5  c #241412",
"6  c #261916",
"7  c #281B19",
"8  c #311813",
"9  c #22211F",
"0  c #2C221D",
"q  c #2A2017",
"w  c #32231D",
"e  c #39231C",
"r  c #1E1E22",
"t  c #261F20",
"y  c #1D2224",
"u  c #252324",
"i  c #2B2323",
"p  c #2A2629",
"a  c #2C2B2B",
"s  c #23282A",
"d  c #352624",
"f  c #322E2D",
"g  c #3B2D2A",
"h  c #3B2924",
"j  c #2C312C",
"k  c #37322F",
"l  c #2C2D31",
"z  c #322F30",
"x  c #2B3336",
"c  c #353333",
"v  c #3B3534",
"b  c #3D3B3B",
"n  c #383837",
"m  c #46261D",
"M  c #4B2C22",
"N  c #452A25",
"B  c #45312D",
"V  c #53342A",
"C  c #55352C",
"Z  c #423D3E",
"A  c #493A35",
"S  c #543A32",
"D  c #593A32",
"F  c #6A3C26",
"G  c #663C2C",
"H  c #6A3C2C",
"J  c #643926",
"K  c #653D32",
"L  c #6A3E32",
"P  c #5A423A",
"I  c #4C433C",
"U  c #6D422E",
"Y  c #70452E",
"T  c #6C4334",
"R  c #65443C",
"E  c #6B443B",
"W  c #674537",
"Q  c #714533",
"!  c #764B3B",
"~  c #7B4E3D",
"^  c #794C37",
"/  c #7B5134",
"(  c #7C513D",
")  c #775031",
"_  c #7A522F",
"`  c #3A3D41",
"'  c #423F40",
"]  c #4A3E42",
"[  c #3B4043",
"{  c #454343",
"}  c #4B4444",
"|  c #4C4A4B",
" . c #4A4945",
".. c #534D4E",
"X. c #594945",
"o. c #5C544F",
"O. c #544F51",
"+. c #575455",
"@. c #565559",
"#. c #5D5B5C",
"$. c #595858",
"%. c #444B53",
"&. c #6A4B43",
"*. c #7B4E41",
"=. c #724D46",
"-. c #69524A",
";. c #775245",
":. c #7D5142",
">. c #75544B",
",. c #7B544B",
"<. c #7D5A4E",
"1. c #7B584B",
"2. c #625C5C",
"3. c #695954",
"4. c #7C5B52",
"5. c #7A5B56",
"6. c #6A615E",
"7. c #79615B",
"8. c #5F5D62",
"9. c #635F60",
"0. c #646264",
"q. c #6B6664",
"w. c #6C6A6B",
"e. c #676668",
"r. c #726462",
"t. c #736E6D",
"y. c #7B6A66",
"u. c #746F72",
"i. c #757373",
"p. c #7D7B7C",
"a. c #797877",
"s. c #6C7170",
"d. c #824E41",
"f. c #815542",
"g. c #845B4C",
"h. c #895C4C",
"j. c #855848",
"k. c #845D52",
"l. c #895D52",
"z. c #825F59",
"x. c #976D4B",
"c. c #836054",
"v. c #8D6354",
"b. c #89665B",
"n. c #936656",
"m. c #956B56",
"M. c #9B6D55",
"N. c #956759",
"B. c #946A5A",
"V. c #9B6D5D",
"C. c #986759",
"Z. c #97715D",
"A. c #9C715E",
"S. c #997054",
"D. c #A16D5F",
"F. c #A2725E",
"G. c #A0785F",
"H. c #8D6D64",
"J. c #886B66",
"K. c #946D63",
"L. c #9C6E61",
"P. c #8E7169",
"I. c #957166",
"U. c #9D7263",
"Y. c #94736B",
"T. c #9B746A",
"R. c #9C786C",
"E. c #9F7867",
"W. c #887E7A",
"Q. c #9A7B75",
"!. c #A16F61",
"~. c #A27465",
"^. c #A57966",
"/. c #A37669",
"(. c #A47A6B",
"). c #AA7B6C",
"_. c #A87868",
"`. c #A47C72",
"'. c #AD7E72",
"]. c #88807C",
"[. c #99837D",
"{. c #A78173",
"}. c #B28274",
"|. c #7A7C82",
" X c #817F80",
".X c #848282",
"XX c #898586",
"oX c #8D8C8C",
"OX c #8A8887",
"+X c #948C8C",
"@X c #898D91",
"#X c #8E9396",
"$X c #949394",
"%X c #9C9A9B",
"&X c #999695",
"*X c #979090",
"=X c #A78C83",
"-X c #A09E9E",
";X c #A39B97",
":X c #B08F88",
">X c #9DA29E",
",X c #A3A29E",
"<X c #989BA4",
"1X c #A39FA0",
"2X c #9FA3A2",
"3X c #A4A3A4",
"4X c #A9A5A5",
"5X c #ABA9A6",
"6X c #ACAAAB",
"7X c #A6A7A9",
"8X c #B1ACAD",
"9X c #B1A1A1",
"0X c #B4B1AD",
"qX c #B1AFB1",
"wX c #B5B2B3",
"eX c #B9B8B9",
"rX c #AFB8B7",
"tX c #CAA69C",
"yX c #C1BDBC",
"uX c #C2C1BE",
"iX c #C1BFC0",
"pX c #BBC4C3",
"aX c #C9C8C8",
"sX c #D6D4D6",
"dX c #D1CFCF",
/* pixels */
"                                    X     X     X   o                   o         o           .                                 ",
"                                        X   X     o - o #.3Xa.a.a a.5X+X>Xs o < o   o     . .                 .                 ",
"                                o         O   X z <X7X+ ' 8Xq.r.9 +X;Xu.4X0., | a.<               o X                           ",
"                                      o     X @XdX6X+XO.* d d g @ 7 d 6 d } - oXiX@.u ,   o               X                     ",
"                                o       | s.j uXXXq.} @ @ 8 2 2 8 3 3 1 8 % 7 *X2...0.u %.y   o                                 ",
"                                o   s %XaX0X; c +.% 6 w 3.P.J.>.=.J.J.J.J.N 8 @ B } . #.rX8.s o o                               ",
"                                  O %X5X&X6.0 . # w P Y.H.I.`.*.,.Q.T.K.T.T.M D 8 @ 7 ;X1X9.@.x o                               ",
"                        o       j = e.oXk w $ d &.S P.Y.T.C./.~ *.L.(.K.U.b.W R.>.&.$ B ] ' 2.- u =                             ",
"                        X     > eXoXO g 4 8 >.b.T.W b.~.V.D._.d.*./.).!.F.v.U V.T.Y.>.e * 6 : t yX$X                            ",
"                    X     + O $.7X].0 @ -.b.T.U.U.L V.j.f.F.F.^ *._.).V.D.n.U F.K.E.c.P Y.N 1 9XXXp.e.X X                       ",
"                          X &X0. .k 0 N 4.Q.U.!.~.H D.^ ^ F.F./ ^ _.).M.F.n.F _.^.U.c.E T.P.S h Z p b ,                         ",
"                O         ` sX0Xt.$ A 5.=.U.C.~.!.H D.d.^ F.F./ ^ _.).M.F.C.F _.(.L.h.T `.Y.c.3 . I +.O.:   o                   ",
"                          n #.5Xt.@ D ,.*._.!.V.!.H C.d.! F.~.( d._.).V.A.m.J /.~.~.l.E /.K.B.2 } eXaX6Xc o   X                 ",
"                    X   0. X  a A h &.=.*._.).D.D.H V.! Q ^.~.~ ~ ~.(.V.~.N.G U.L.^.h.T L.~.v.m h #.9.} c . X                   ",
"                      O @XsXoXv 3 S Y.=.*.).).U.V.U V.j.f.U.~.~ ~ ^.U.V.L.B.G L.L.K.v.L T.U.v.V 6 z t ; b ;   X                 ",
"                X      .rX X].k 3 z.`.*.! /.).V.A.U b.U.U.L._.~ d.~.L.L.V.B.T L.L./.j.E U.U.:.=.-.+ B u.sX0.                    ",
"                    ; a.3X#.Z 6 D B.(.:.! (.).U.!.L n.U.L.V./.*.*.U.A.A.U.B.H ~.!.!.l.L Z.{.<.E J.d 2.&X0.@.p                   ",
"                    O ' f u : % 4./.U.! ! (.).V.!.H N.^.U.V./.~ ~ ~.^.N.V.m.L K.~._.l.E E.Z.g.W T.S . t > y >       o           ",
"                    u wX8X1X9.# 4.U.U.( ! ^.).U.L.H n.~.V.L.~.~ ~ F.U.:.f.m.K L.K.!.l.Q A.) ( Y (.V 0 yX,XoXw.                  ",
"                    c sX8XOX' % 1.U.^.:.! ~.U.V.!.L n.L.V.L.).~ ~ ~.U.! ^ m.K U.L./.l.E U.J / Y T.M N 0X>XoXb         o         ",
"                    p 6X%X2.b @ 4.~.T.*.*.U.L.L.~.L n.~.V.V.~.*./ F.).~ / Z.G U.K./.j.L U.U / U '.M w ;X;X2.b           o   o   ",
"                    O f z p - * 4.L.L.*.:.(.L.U.L.L n.~.~.!.~.~ / D./.~ ) S.D I.L.U.j.Q U.U / Y U.V # k j 9 ;   o     o         ",
"                o   p 1XXX%X9.$ 4.L./.*.*./.V.L.~.H n./.~.V.~.! ~ ~./.*.) m.G T.A.~.h.E T.W ;.W Q.h 0 eX$X$X6.          o       ",
"                    u wX8X*X} & 4.U.T.! *./.L.~.U.H n.).).L.^.d.~ L./.*./ x.J L.A.~.g.T R.P ;.P {.3.b dX6X#X| X                 ",
"                    O b b t - % ,./.L.*.*.U.U.L.L.L n.)._.V.~.! ! ^.R.*./ x.F V.D.A.h.W [.J.Q.Q.].8.y [ ` t :                   ",
"                  X > %XW.a.@.% 4./.T.*.*./.L.L.~.L n.)./.V.~.:.:.U.T.*./ x.F ~.V.^.g.R J.r.r.t.2.` y #X` 9.9.. .   o         X ",
"                    p aX4X6X..$ <.U.^.*.( ^.C.~.~.H n.(./.V./.*.;.U.R.*./ x.F F.V.~.:.&.r.r.9.r.t...x @X[ <X+.                  ",
"                X   u 5X4XoX' @ <.A.v.! ! (.C.~.L.H n.)./.C./.*.:.T./.*./ x.F D.V.~.k.&.5.&.X.X.o.I y @.|.<X|   .               ",
"                    < b b u : % k.m.U ! ! {.V.V.L.H n.).(.L.~.d.*.T./.! ^ S.H F.V.A.l.&.H.5.-.-.3.A ; r x y < X                 ",
"                  X 7 &Xp.a.+.$ <.m.G ( / A.V.U.!.H n.)./.V./.*.*.^./.! ( m.G U.U.T.k.L T.`.z.R Q.A f 6X.Xa.$.                  ",
"                o   p aX5X8X} & <.m.Y ( ( A.V.A.L.H N.(./.L./.*.d.!.U.:.:.m.K U.K.^.l.E U.(.h.Q `.m d yX3X5X .X           o     ",
"                    p eXwXOX| @ c.m.Y Y ( ^.S.m.!.H n.~.~.C./.*.*.!.^.g.h.K.K I.U.L.l.E ~.U.j.Q (.V e 5X5X@XI     X     o       ",
"                    O ` Z t ; : z.n.U ^ / G.M.M.L.H n.~.L.L.^.*.~ /.~.L.L.N.G L.L.~.g.L ~.~.h.Q /.D # Z ` u =                   ",
"                    t @.t u.9.@ 1.U.n.( ^ G.D.M.U.K C.~.K.U.U.! ! /.!.!.U.N.H L.V./.g.Q ~.~.h.L (.M 5 &X$Xa.#.                  ",
"                    u q.u.qXXX@ 4.T.).~ ~ G.D.x.V.G C.~.L.U.~.*.:.^.L.L.U.N.H ~.!.~.h.T _.).l.Q {.m g aX3XqXOX                  ",
"                    : #.XX8X@.* z.L.~.! ( ^.M.m.U.K C.~.L.K.~.~ ! (.V.V.U.n.H L.V.~.g.T !.'.l.Q }.m 0 3X6X>Xw.  X               ",
"                    u 6X4XW.b @ 4.!./.*.! U.V.F.U.K C.~.L.L./.~ *.~.!.V.U.m.H L.V.~.h.T ~.}.l.L U.V 7 0XoXw.b                   ",
"                X o O c p : > % >./.~.d.*.U.F.V.U.K C.~.L.T./.*.*.~.!.V.U.b.H ~.L.~.h.T !.}.l.E {.V # j r , >                   ",
"                    i 6X%X&Xu.@ ,./.~.*.*./.L.V.I.K C.U.L.L.~.~ ! /.!.V.U.B.H V.L.!.h.E !.}.h.L E.m v p.@.$X0.  o               ",
"                  X p wX1X8Xe.% 4.L.L.*.;.T.V.L.Y.K K.~.K.U./.:.:.~.~.V.U.n.H D.L.~.j.Q /.}.h.E E.M g 3X{ oX|                   ",
"                    p eX.Xt.{ # 5.U.^.! >.Y.T.I.I.R b.E.I.I.(.! ( ~.~.).V.B.J L.L./.l.T ~.'.l.E `.M 7 8X0.#.b                   ",
"                    u w.{ } z % 4.T.^.tXH.;.1.;.;.D g.Z.I.B.`.! *.~.~.).U.B.H ~.L.~.g.T ~./.j.L E.C 5 &X9.c j                   ",
"                    O c z i > % >.U.E.<.4.tXK.I.4.D b.Z.I.U.T.:.*.~._.).A.N.H L.L./.g.E ~./.g.T E.S & z a p 9 X                 ",
"                o   a dX6X6Xw.@ <.E.{.W =X:Xb.I.R.>.I.U.U.Z.^.! ~ _.!.).L.n.H ~.L./.j.T ~.~.l.T (.M f aX3X6Xe.                  ",
"                X   a qX1X Xb % z.K.!.=.4.`.Y.R.Y.>.B.Z.U.L./.~ ~ ~.!.'.F.m.H !.L.~.g.T ~.U.l.E (.M 0 eX7X|.b X                 ",
"                    > *Xq.{ z # ,.!./.=.K 5.K.H.c.D K.A.K.L.L.d.~ _.!.).V.C.H !.L./.c.T U.~.l.L R.S 7 *X0. .c                   ",
"                    - c z f t & 1.~.D.*.5.Y.,.,.z.R v.^.U.V._.~ d.~.~.).U.N.H L.U.L.g.E /./.k.L {.M # [ l p u                   ",
"                o   p sXaX6XW.# g.V./.*.,.`.K.K.Y.K B.V.L.U.~.~ ~ ~.~.).A.N.H ~.L.n.g.L ~.U.k.W E.M w uX7X3X.X                  ",
"                    a aX>X%X$.$ 4.)./.~ *./.L.K.U.G N.U.U.V.^.~ ( ~.~.'.L.V.H A.!.U f.Q E.T.g.W {.M q >X%X>X$.      o           ",
"                    u 7X%Xi.v $ j.'._.*.*.~.L.L.T.T b.U.L.V./.:.~ ~.~.).L.C.H A.D.H d.Q U.T.g.E R.V 0 &X>Xs.n           o       ",
"                  + u 6X%X0.{ $ ,.'.).~ *./.L.L.A.G n.U.U.V.~.~ ~ ~.~.`.L.N.G I.A.U ( Q E.A.h.T (.m w 0X3Xe.{           o       ",
"                X   ; #.b z : $ g.)._.~ *./.n.l.U.K m.U.L.V.~.~ d._.~.(.K.B.U A.A.U ( Y ~.G.h.E (.C 4 $.l u 7         o         ",
"                X   , #.a > { $ <.)./.~ ( ^.j.U U.U m.U.A.A.~.~ d./.!.!.I.B.U A.A.U ( U G.F.h.Q (.M 5 u.9.8.}                   ",
"                    s $X| *X].# g.}.~.~ ~ (.j.U U.G B.V.B.U.~.~ d.!.L.L.U.B.D Z.Z.U ( Y ~.~.h.L '.M B dXqX8XXX        o         ",
"                X   u #.e.-Xw.# <.}.~.! ~ _.h.Y U.J m.f.:.A.^.( d./.L.L.U.B.U I.Z.U ( Q U.U.g.E Q.C t wX&X4Xu.                  ",
"o                   , 8.+Xe.v $ :.}._.( ( _.f.F A.U Z.( ! U.~.~ ~ !.L.L.U.b.G U.A.W ;.Q T.T.z.E Q.B t 4X<X@X`                   ",
"                  X u 7XOX+.Z # k.~.~.~ ~ _.h.U A.J V.( ! ^.~.~ ~ _.V.I.V.B.G L.K.v.g.R Q.Y.7.X.=Xy.y 7X|.@.b           o       ",
"                    O c y > : $ <.!.~.~ ~ _.j.U U.J m.f.*.V.~.~ ~ /.V.L.U.V.L U.L.U.k.R Y.[.+X[.y.o., x y , ;                   ",
"                X   p eX&X&Xt.$ <.~.~.~ ~ ^.h.U ^.J V.V.n.~./.d.~ ^.L.U.!.K.H L.L./.l.=.5.3.3.r.6.I j rX#X7Xa.o                 ",
"                    c aX$X5Xp.@ 4.~.~.~ ~ ^.h.U A.J M.~.V.A.!.~ ~ U.V.L.!.C.H ~.L.T.1.R 7.7.r.r.a.I s pX@Xs.9.                  ",
"                    u 6X-X6Xp.$ <.U.~.~ ~ _.h.U ~.F n.A.V.V./.*.*./.L.U.L.K.H L.U./.g.&.5.P P X.W I j >X` e.9.o       o o       ",
"o                 X s %X%X3Xa.@ 4.U.~.~ ~ _.h.U G.U n.~.V.L._.*.*.~.L.T.L.N.H L.m.^.k.W Y.P.5.X.7.I j s.9. XO..                 ",
"                X   u 7X$XoX} $ 1.T.^.! ~ _.h.U A.H n.~.V.V./.~ *.~.L./.U.N.G L.A.A.h.T R.Y.4.&.Q.A * +.+...Z                   ",
"                    > 7Xt.| b # 4.^.U.( d._.h.U F.F n.~.V.L./.*.*.~./.`.U.N.G U.Z.E.g.T U.R.4.&.Q.B 7 6Xu...] .                 "
};
