/* XPM */
static char *_5909219ef9c44d3edc02aee2f5e2621hw4HCDDikNAM7Qpl[] = {
/* columns rows colors chars-per-pixel */
"64 64 204 2 ",
"   c black",
".  c #0B0201",
"X  c #0C0905",
"o  c #01010D",
"O  c #0C0C0A",
"+  c #130101",
"@  c #1A0101",
"#  c #140D07",
"$  c #14110C",
"%  c #1B140A",
"&  c #030514",
"*  c #0D0C1C",
"=  c #080719",
"-  c #100F1F",
";  c #121111",
":  c #1D1810",
">  c #11111D",
",  c #2A0202",
"<  c #350201",
"1  c #390403",
"2  c #231308",
"3  c #231C13",
"4  c #39160F",
"5  c #3B210E",
"6  c #2B241A",
"7  c #363011",
"8  c #332B19",
"9  c #0A0C24",
"0  c #110F24",
"q  c #131225",
"w  c #1A1A25",
"e  c #151329",
"r  c #18172A",
"t  c #1A1929",
"y  c #050E35",
"u  c #191C34",
"i  c #22222D",
"p  c #282727",
"a  c #392D28",
"s  c #262532",
"d  c #2A2A36",
"f  c #2D2C3A",
"g  c #272638",
"h  c #303032",
"j  c #38383C",
"k  c #333033",
"l  c #201F2D",
"z  c #470402",
"x  c #560503",
"c  c #440915",
"v  c #7A0704",
"b  c #750604",
"n  c #670503",
"m  c #482811",
"M  c #532E14",
"N  c #4F2C13",
"B  c #643818",
"V  c #683B19",
"C  c #463827",
"Z  c #493B29",
"A  c #4A3B3B",
"S  c #76421C",
"D  c #7D471E",
"F  c #584831",
"G  c #50412D",
"H  c #6A563B",
"J  c #061245",
"K  c #09164D",
"L  c #0B1552",
"P  c #3C3D42",
"I  c #3B3A4D",
"U  c #363547",
"Y  c #091B69",
"T  c #091A66",
"R  c #0C1E76",
"E  c #12236C",
"W  c #3F4045",
"Q  c #414245",
"!  c #45464B",
"~  c #494A4D",
"^  c #47484C",
"/  c #4C4D52",
"(  c #484757",
")  c #4F5055",
"_  c #515256",
"`  c #54555A",
"'  c #57585C",
"]  c #595A5E",
"[  c #735E41",
"{  c #7A6344",
"}  c #5C5D62",
"|  c #5F6065",
" . c #616266",
".. c #64656A",
"X. c #67686D",
"o. c #696A6E",
"O. c #6C6D72",
"+. c #696876",
"@. c #6F7075",
"#. c #717276",
"$. c #73747A",
"%. c #77787D",
"&. c #7A7A7E",
"*. c #72716F",
"=. c #880805",
"-. c #830604",
";. c #9A0905",
":. c #821A18",
">. c #A50906",
",. c #AD0A06",
"<. c #BE0A07",
"1. c #B40A06",
"2. c #CC0B07",
"3. c #C30B07",
"4. c #D60C08",
"5. c #DB0C08",
"6. c #D30C07",
"7. c #D7110D",
"8. c #EC0D08",
"9. c #E50A06",
"0. c #F40E09",
"q. c #FB0E09",
"w. c #F90C07",
"e. c #FD100B",
"r. c #FD1C17",
"t. c #F6322D",
"y. c #D0201C",
"u. c #81491E",
"i. c #864B20",
"p. c #8B4E21",
"a. c #8E5022",
"s. c #905122",
"d. c #866C4B",
"f. c #8C724F",
"g. c #8F7450",
"h. c #9B7D57",
"j. c #957954",
"k. c #857A7A",
"l. c #F84B47",
"z. c #FB6C69",
"x. c #9F8159",
"c. c #A6875D",
"v. c #AC8C61",
"b. c #B79567",
"n. c #BE9A6A",
"m. c #B0AB7D",
"M. c #C29E6D",
"N. c #C7A270",
"B. c #CAA472",
"V. c #D6AE78",
"C. c #D2AA76",
"Z. c #DBB27B",
"A. c #E2B87F",
"S. c #DEC744",
"D. c #FFED50",
"F. c #F0D950",
"G. c #0D2388",
"H. c #0E289A",
"J. c #0F2BA9",
"K. c #0F2AA4",
"L. c #102EB4",
"P. c #1131BE",
"I. c #7C7D83",
"U. c #767583",
"Y. c #6D7799",
"T. c #1133CB",
"R. c #1336D4",
"E. c #1439DC",
"W. c #153DEC",
"Q. c #163FF4",
"!. c #133FFF",
"~. c #1640F7",
"^. c #1741FC",
"/. c #1943FD",
"(. c #1A40EB",
"). c #3757DE",
"_. c #7F8085",
"`. c #818286",
"'. c #84858A",
"]. c #87888D",
"[. c #8A8A8E",
"{. c #8F908E",
"}. c #8B8C92",
"|. c #8B8B95",
" X c #98999A",
".X c #BBBBBB",
"XX c #9FA299",
"oX c #E8BC83",
"OX c #D1B6B5",
"+X c #EDC185",
"@X c #F3C689",
"#X c #FECE8F",
"$X c #FFD08F",
"%X c #FFD291",
"&X c #C0C0BF",
"*X c #FEC0BD",
"=X c #CBCACA",
"-X c #D0CFCF",
";X c #F7D3D2",
":X c #FCECEB",
">X c #EEF3F2",
",X c white",
"<X c #F4F4F4",
"1X c #ECE7E7",
/* pixels */
"}.}.}.}.}.}.I...@.@.@.O.O.O.O.@.O.].].I.].].                        &.O.} O.%.O.@.#.O.@.$.X.} | } } } } ` | | / @.#.$.#.@.@.@.@.",
"_.`.'.`.].].I...@.$.@.O.@.@.@.@.} _.`._.`.`.                        #.o.} X.$.O.O.@.O.O.#. .` } } } } } } | | _ X.+.@.O.+.o.o.O.",
"_.`.`._.`.].%...@.O.O.O.O.O.O.O.' &.].    O b -.:.k.`.k.:.-.-.-.v ,                   X.O.} _ ` } _ _ ` _ } ' / o.@.@.#.@.@.@.$.",
"`.].].`.].`.@.} O.O.O.X.X.X.X.X.} $._.    + y.t.l.:X,X:Xt.r.r.w.q.x . . . . . . . . . X.X.| ' } } _ _ } _ _ ` ^ | | | X.| X.| X.",
"`.'.`.`.'._.O./ ' ' ` ` ` ` ` ` _ ' ]     ; OX;X:Xz.l.z.;X;X*Xt.w.6.<.3.<.<.<.<.<.3.=.      / / ` ! / ` ) / _ / X.o.@.@.@.o.@.@.",
"_.`.].`.].`.O.' U.%.$.$.$.$.$.$.&.$.#.    $ -X<X:Xl.9.t.1X:X;Xt.w.q.q.q.q.q.q.q.q.q.3., @ + @.%.I.+.$.].}.].].}._._.].].].].].].",
"`.'.'.`.].'.%.| @.O.O.O.O.                X j ~ j 4 1 4 d h a 7.q.q.q.q.q.0.q.q.0.e.8.4.4.1.+      .O.'.]._.`.'._._.]._.]._._._.",
"`.'.`.&.I._.#.} $.@.#.#.@.                                  . 1.5.5.8.q.q.q.q.q.e.0.q.q.q.6.+     | O.`.].I._._._._._.]._._._._.",
"'.]._.I._._.X./ @.X.o.@.X.                                    @ @ , 3.q.q.q.q.q.q.0.q.0.e.4.+     } | {._.@.$.U._.].]._._._._._.",
"'.]._._.'.].$.' | ` ` | }                                           1.0.8.8.8.8.8.8.8.0.e.9.z 1 , | ' [._.$.@.#._._._.].]._.].].",
"I._._._.'.'.#.} %.X.X.$.%.            F { d.d.d.f.f.g.j.j.h.h.c.c.g.4 < < < < < < 1 1 2.q.q.8.0.3.+     _._._._._._._.'.]._._.].",
"].].].].].].%.| @.} } O.#.@. .~     X M.%X%X%X%X#X%X%X%X%X#X#X#X#X@XC O $ $ $ # .     >.5.4.4.4.1.+     _.].|._._.].|.]._._._._.",
"$.$.$.$.%.#.X.' @.' ' ..X.X.} /     X n.%X#Xd.H H b.#X#Xd.Z Z N.%X#XZ.V.V.V.V.C.a     + @ @ + @ +       | | | | X.X.X.X.X.| X...",
"} } | | ..| } ` } / ) ` _ / / Q     X n.%X@X8     f.$X#XZ     c.%X#X%X%X#X%X#X#XC           # $ $ .     ^ / } } ^ ~ ) ) ) ) ) ` ",
"O.O.O.@.@.@.O.@.@.O.$.%. .} } }       F [ H :     f.%X@XZ     x.%X#X%X#X%X#X%X@XC         X c.V.C.C     | X.U.$.` } } } } } | | ",
"$.#.@.@.@.O.@.@.X.O.U.%.} / ` }                   f.%X#XG   X h.%X#X#X#X#X#X@X@XC         X N.%X%XH : : | X.@.X._ _ ` } ` } ` } ",
"O.X.o.@.$.@.@.@.O.O...O...^     C [ { { d.d.g.j.h.V.$X#XB.b.b.oX%X#X$X$X@X[ C C $         X M.%X#X+XA.n.;     } _ } ` ) } } ' } ",
"#.@.@.@.$.@.@.@.$.$.O.#. .      h.%X%X%X%X%X%X%X%X$X#X$X$X%X%X#X%X$X$X$X@Xa           X $ : B.%X#X%X%XA.3     _ / } } ` } } ` ' ",
"O.O.O.+.o.o.o.@.O.#.O.@. .      h.%X#X%X%X#X#X#X#X#X$X$X$X$X%Xb.H H N.%X#Xb.v.v.H     [ V.C.@X#X#X%X%X+X6     } ! } } } } ` ` } ",
"O.#.#.O.+.O.@.@.X.#.O.O...      h.%X%X%X#X#X%X#X#X%X$X$X%X%X%Xf.    h.#X#X$X%X%Xv.X   j.%X%X%X#X%XZ.N.n.6     _ P _ ` _ } } } } ",
"@.%.$.O.@.$.$.@.O.%.O.O.}       Z { { M.%X#X#X#X%Xb.{ { { { { a     6 G G j.#X$XA.c.c.Z.%X%X%X%X%XH O X .  .} _ P ( ) _ } } ` } ",
"| | | } | X.| | } X.} } _             { %X%X%X%X%X[                       F %X$X$X%X%X+XZ.Z.Z.Z.Z.F     / / Q P ^ } _ ) } } _ ) ",
"} | | } | | | ~ ' } ' } } '           Z j.j.j.j.j.C           a c.c.c.c.c.N.%X%X%X%X%Xd.$ : % : % $  .| |  .} ' _ } } _ } } ` } ",
"$.$.@.o.@.%.X.` O.$.O.@.#.O.&.#.                              F %X%X%X%X%XoXB.B.N.N.B.F           $.$.#.@.#.%.@./ } } ` ` } } } ",
"| O.@.X.O.#.| ` O.O.O.O.o.o.O.#.O.          6 d.f.f.f.g.h.x.x.M.%X%X#X%X%Xh.X O O O O .       o.O.X.$.U.O.O.@.O./ } } } } } ` } ",
"$.U.$.@.#.#.X.} @.@.@.$.$.#.#.$.o.` } }     G @X+X+X+X+XoXoXA.Z.V.V.C.C.C.{ . + + + + + + + . O.%.@.#.#.O.O.O.../ } } ` } ` ` ` ",
"` | } ` ` ] / W } ` ' |  .} ] } ) P ! !     O a 8 6 6 3 3 3 : : % $ $ $ O X =.6.2.2.2.2.2.2.n     ` ` } ` ' ] ) W / ^ P ^ ^ W ( ",
"| X.X.| X.X.| | } `               ` | ]                                     >.q.q.q.q.q.q.q.v . . . ' | }  .X.} | X.| } | ....X.",
"O.@.@.@.$.$.$.@.@.  O p j j ~ / j   $.      , ;.>.>.>.>.v           @ >.>.>.5.q.q.q.0.q.q.0.5.2.2.x       O.$.@.@.$.o.| @.$.@.$.",
"o.O.O.O.O.O.X.X.    ; .X<X<X,X,X.XO         z 0.e.e.e.w.<..         , 9.q.q.q.q.0.q.q.0.q.q.q.q.e.n . + . X.o.X.X.o.| ' ..O.X.o.",
"U.%.$.%.$.@.@.#.    ; =X,X>X=X=X[.X   . z z b 0.w.e.w.e.<..   K G.G.K z x x x x x x x v 0.0.q.q.q.5.2.2.v     ..@.$.X.| @.U.$.$.",
"] ] ] ] ] ` ` ]     ; =X,X&X; O X     < 9.0.0.e.e.w.e.w.<.    H.^.^.R                 1 0.q.q.q.q.q.q.q.;.      ` ` ^ ^ ' | ' ` ",
"O.#.@.X.O.O.' P     ; =X,X.XO   + x x v 0.q.q.q.e.,.x x c R G.Y J J u o.#.*.o.*.o.o.o.A v v ;.w.q.q.q.q.;.      X. ...X.........",
"X.O.O.X.#.$...)     ; -X,X=XX   1 0.e.e.q.q.e.q.e.;.    9 (./.R     3 1X,X,X,X,X,X,X,X`.    1 6.6.5.0.q.,.      #.@.@.@.@.@.@.@.",
"$.$.$.#.#.$. ./     X #.[. .X   @ -.=.=.=.=.=.=.=.x y L L G.G.K / ] *.>X,X,X,X,X,X,X,X-XXX[./ @ @ z 8.q.1.      #.#.#.@.#.@.#.#.",
"$.$.O.O.O.X.} / ] ] }                             = T.^.R.&   $ =X,X,X,X,X,X,X,X,X,X,X,X,X,X{.    , 5.8.,.      O.X.X.O.X.X.O.+.",
"_ ` ` ` ' } _ / ] / _           X 7 7 3 y y y y y u Y.|.Y.O   ; =X,X,X,X,X,X,X,X,X,X,X,X,X,X{.      , , , W ^ ^ ` ` ` ) _ _ _ ` ",
"I.I._._.`.].'.`.].&.I... .$.    7 S.D.m.(.W.W.W.!.).F.D.S.%   X =X,X,X,X,X,X,X,X,X,X,X,X,X,X[.            .. .} %.%.$.$.$.%.%.U.",
"'.'.'.'.`.`._.`.].I.}.O. .$.    7 XXXX X/./.^.^.^.). XXX}.E L L | `.`.=X,X,X,X,X,X,X,X1X] ] h       | @.#.#.X.' O.O.O.X.X.O.O.@.",
"'._._.'.`.`.`.].`.I. X$.X.$.    y (./././.^.^./.^./././.^././.R.&     {.,X,X,X,X,X,X,X-X#           } O.$.#.X./ @.@.O.O.O.O.@.@.",
"I._._.`.'.'._._.'.I.`.o.} }     y ~.^.^.^.^.^.^.^.^.^.^.^.^./.E.L K K / &.&.&.&.k.&.&...K L K &     ^ ` } ` ) ) $.O.O.$.$.O.O.@.",
"_._._.'.`._._._.'.'.].          y ~.^.^.^.^.^.~.^.^.^.^.^.^.^.^.~.^.W.9               o T.^.^.J     %._._.$.| ^ X.....X.O.X.X.@.",
"'.].'.'.'.`.'._.$.&.X % 2 2 2 2 t G.K.J.E.^.^.^.^.^.^.^.^.^.~.^.^.^.Q.G.T T T T T T Y Y E.^.~.J     ].`.].].@.' O.o.O.@.@.@.#.$.",
"'._._.'._._.I.I.      V i.i.i.p.B       K./.^.^.^.^.^.^.^.^.^.^.^.^.!.!.^.^.^.^././././.^.^.^.J     I.$.I._.O./ @.O.O.O.O.X.O.@.",
"]._.].].'._._._.      V p.p.s.u.V % % # R L.L.Q./.^.^.^.^.^./.^.^.^.^.^.^.^.^.^./.^.^.^.^.^.~.y     }.}.}.[.O.^ O.#.#.#.O.O.#.#.",
"} } } } } } } `     + V p.p.s.s.u.u.u.S :   & R.^.^.^.^.^.^.~.^.^.^.^.^.^.^.^.^.^.^.^.^.^.^.~.J     | | | ..) W W ( _ _ _ ` ` ` ",
"..X.X.X.X.X.....      V p.p.u.s.u.s.a.i.2   & T.^.^.^.^.^.^./.^.^.^.^.^.^.^.^.^.^.^.^.^.^.^.^.L.H.Y       @.#.#.} | @.@.@.#.$.#.",
"+.o.O.O.O.O.O.O.    X V p.p.s.s.u.s.p.i.2   & R.^.^.^.^.^.^././.^.^.^.^.^.^.^.^.^.^.^.^.^.^.^.~.^.H.      @.+.@.` ..#.@.O.@.O.X.",
"@.@.@.X.*.X.o.*.    . S i.p.p.p.p.p.p.i.2   & L.R.R.E.R.R.R.R.R.W.^.^.^.^.^.^.^.^.^.^.^.^./.R.J y 9 % m m .     _ X.#.+.@.#.#.+.",
"@.$.#.#.*.*.#.%.    . S a.i.p.p.p.p.p.i.2     & & & & & & & & & K././.^./.^.^.^./.^.^.^.~.~.T.      5 s.S X     } X.@.+.+.O.O.+.",
"' ' ] ] ' ' _ _     X B S S D a.p.p.p.i.2                       Y L.J.J.J.J.J.J.J.W.^.E.K y y 2 m m M s.S X     ) } ..} }  . .} ",
"} } } ] ] ' _ ^       O X X B a.a.a.p.i.2      .| } X.| ....` ..                  T.^.E.&     M s.p.p.p.S X     ) } } } ' } } } ",
"*.$.*.*.*.@.| _             m B V V V B %     *.#.o.$.o.*.O.} *.                o Y G.R o     M p.p.p.p.S #     ] } } ] ' } } } ",
"o.*.O.O.O.@.} ~  .` ]                     ..o.o.#.*.@.o.*.o.' *.#.@.#.@.o.O.O. .}             M p.p.p.p.u.#     ] ] ] ] ' ' ' ' ",
"o.*.O.o.*.*.] W } ' ] ]                 / *.#.#.*...*.*.@.o.' *.#.o.@.o.X.o.@. .|       2 m m S p.p.p.p.D #     ] ` ` ` ` ' ` ` ",
"*.*.*.O.@.o.' j _ ~ / ~ Q Q ^ P j Q j j h _ ` / ] '  ...o.} ~ } | ] | | ]  .X.' !       m s.a.p.p.p.p.s.u.#     ] ' ' ] ] ] ] ] ",
"+.@.$.#.O.X.X.X.*.} ) ` ' _ ) ` ..} }  .X. .| | o. .#.'.`.&.I.I.&.`.I.I.I.'.I.@...      2 5 5 5 5 5 5 5 4 X     } ] ' ` ] ] ' ` ",
"o.O.O.@.O.o.| ] %. .` ' } ' ` ' $.#.#.#.#.@.$.I.o.} O.`.`.I.`.`.I.`.I.I.I.'.I.#. .O.@...                  Q h ^ _ ' ] ] ] ] ' ' ",
"$.#.O.@.$.$.@.+.$...' } } } } } #.#.$.$.O...+.#.$.O.U.}.].].}.}.}.|.|.].|.|.|.I.+.I.I.$.U.                | | o.]  .X. .} } } | ",
"f d s s s d d d f d i s s s l l d d f f U s s d d i d f d f f f f f f g f g U g l g f s l s f f U j p w w q > i p p i i l l i i ",
"o = * * = & & & = o & = * * & & * o o = > * * * w * q q * - > * - 0 0 9 0 0 0 * 0 q e 0 * * * - o * w t q q t t > > > q w w * & ",
"q g I ( ( I I I U U U U I I U U I g q q q t q e t 0 q t 0 q t 0 q e 0 e q e e q 0 e e e e q e e * i ( +.+.#.U.U.( ( ( ) ) I d q ",
"0 l   I I I I I U I I I I I   I U   r e q q 0 0 e 0 q t 0 e r   e e e e e e     9 e 0 e q q e r q q U / ( I ( ! P I U I U f t * ",
"q 0 0 * = = = * 0 0 9 9 = * 0 * * 9   e e e 0 e e     r 0 e r   e q q e q 0 e t e e e e q q e t t & = t = & 0 = - * * * - q w   "
};
