/* XPM */
static char *_330bfd3c42a4bcae9c8291626e9000bDbEqcbANvR65nG2Q[] = {
/* columns rows colors chars-per-pixel */
"64 64 204 2 ",
"   c black",
".  c #0B0201",
"X  c #0C0905",
"o  c #01010D",
"O  c #0C0C0A",
"+  c #130101",
"@  c #1A0101",
"#  c #140D07",
"$  c #14110C",
"%  c #1B140A",
"&  c #030514",
"*  c #0D0C1C",
"=  c #080719",
"-  c #100F1F",
";  c #121111",
":  c #1D1810",
">  c #11111D",
",  c #2A0202",
"<  c #350201",
"1  c #390403",
"2  c #231308",
"3  c #231C13",
"4  c #39160F",
"5  c #3B210E",
"6  c #2B241A",
"7  c #363011",
"8  c #332B19",
"9  c #0A0C24",
"0  c #110F24",
"q  c #131225",
"w  c #1A1A25",
"e  c #151329",
"r  c #18172A",
"t  c #1A1929",
"y  c #050E35",
"u  c #191C34",
"i  c #22222D",
"p  c #282727",
"a  c #392D28",
"s  c #262532",
"d  c #2A2A36",
"f  c #2D2C3A",
"g  c #272638",
"h  c #303032",
"j  c #38383C",
"k  c #333033",
"l  c #201F2D",
"z  c #470402",
"x  c #560503",
"c  c #440915",
"v  c #7A0704",
"b  c #750604",
"n  c #670503",
"m  c #482811",
"M  c #532E14",
"N  c #4F2C13",
"B  c #643818",
"V  c #683B19",
"C  c #463827",
"Z  c #493B29",
"A  c #4A3B3B",
"S  c #76421C",
"D  c #7D471E",
"F  c #584831",
"G  c #50412D",
"H  c #6A563B",
"J  c #061245",
"K  c #09164D",
"L  c #0B1552",
"P  c #3C3D42",
"I  c #3B3A4D",
"U  c #363547",
"Y  c #091B69",
"T  c #091A66",
"R  c #0C1E76",
"E  c #12236C",
"W  c #3F4045",
"Q  c #414245",
"!  c #45464B",
"~  c #494A4D",
"^  c #47484C",
"/  c #4C4D52",
"(  c #484757",
")  c #4F5055",
"_  c #515256",
"`  c #54555A",
"'  c #57585C",
"]  c #595A5E",
"[  c #735E41",
"{  c #7A6344",
"}  c #5C5D62",
"|  c #5F6065",
" . c #616266",
".. c #64656A",
"X. c #67686D",
"o. c #696A6E",
"O. c #6C6D72",
"+. c #696876",
"@. c #6F7075",
"#. c #717276",
"$. c #73747A",
"%. c #77787D",
"&. c #7A7A7E",
"*. c #72716F",
"=. c #880805",
"-. c #830604",
";. c #9A0905",
":. c #821A18",
">. c #A50906",
",. c #AD0A06",
"<. c #BE0A07",
"1. c #B40A06",
"2. c #CC0B07",
"3. c #C30B07",
"4. c #D60C08",
"5. c #DB0C08",
"6. c #D30C07",
"7. c #D7110D",
"8. c #EC0D08",
"9. c #E50A06",
"0. c #F40E09",
"q. c #FB0E09",
"w. c #F90C07",
"e. c #FD100B",
"r. c #FD1C17",
"t. c #F6322D",
"y. c #D0201C",
"u. c #81491E",
"i. c #864B20",
"p. c #8B4E21",
"a. c #8E5022",
"s. c #905122",
"d. c #866C4B",
"f. c #8C724F",
"g. c #8F7450",
"h. c #9B7D57",
"j. c #957954",
"k. c #857A7A",
"l. c #F84B47",
"z. c #FB6C69",
"x. c #9F8159",
"c. c #A6875D",
"v. c #AC8C61",
"b. c #B79567",
"n. c #BE9A6A",
"m. c #B0AB7D",
"M. c #C29E6D",
"N. c #C7A270",
"B. c #CAA472",
"V. c #D6AE78",
"C. c #D2AA76",
"Z. c #DBB27B",
"A. c #E2B87F",
"S. c #DEC744",
"D. c #FFED50",
"F. c #F0D950",
"G. c #0D2388",
"H. c #0E289A",
"J. c #0F2BA9",
"K. c #0F2AA4",
"L. c #102EB4",
"P. c #1131BE",
"I. c #7C7D83",
"U. c #767583",
"Y. c #6D7799",
"T. c #1133CB",
"R. c #1336D4",
"E. c #1439DC",
"W. c #153DEC",
"Q. c #163FF4",
"!. c #133FFF",
"~. c #1640F7",
"^. c #1741FC",
"/. c #1943FD",
"(. c #1A40EB",
"). c #3757DE",
"_. c #7F8085",
"`. c #818286",
"'. c #84858A",
"]. c #87888D",
"[. c #8A8A8E",
"{. c #8F908E",
"}. c #8B8C92",
"|. c #8B8B95",
" X c #98999A",
".X c #BBBBBB",
"XX c #9FA299",
"oX c #E8BC83",
"OX c #D1B6B5",
"+X c #EDC185",
"@X c #F3C689",
"#X c #FECE8F",
"$X c #FFD08F",
"%X c #FFD291",
"&X c #C0C0BF",
"*X c #FEC0BD",
"=X c #CBCACA",
"-X c #D0CFCF",
";X c #F7D3D2",
":X c #FCECEB",
">X c #EEF3F2",
",X c white",
"<X c #F4F4F4",
"1X c #ECE7E7",
/* pixels */
"@.O.O.@.$.#.#.@./ | | } } } } }  .} X.$.#.O.#.O.#.&.O.| O.%.                        ].].I.'.].O.O.O.O.@.O.@.#.#...I.}.}.}.}.}.}.",
"O.O.O.O.O.O.+.o.) | | } } } ` } } ' | @.O.O.@.O.+.#.o.} X.$.                        `.'.I.'._.} @.@.O.@.O.O.#.#.o.U.[.'.`.'.'._.",
"#.@.O.@.#.#.O.O./ } ` _ } ` _ } ` ) } o.X.                  , v -.-.-.:.k.'.k.:.-.b X     ].&.] O.O.O.O.O.O.@.O...%.].'._._.'._.",
"X...........} } ~ _ _ _ ` ` _ } } ' | O.X.. . . . . . . . . x q.e.r.r.t.:X,X:Xl.t.y.+     `.#.} X.X.X.o.o.o.O.O.} @._.'.`.].].`.",
"O.@.O.O.O.O.O.X./ ) ) ) _ ( ! _ ) /       =.3.3.<.<.<.<.3.<.6.w.t.*X;X;Xz.l.z.:X;XOX:     ] ' _ ' ` ` ` ` ` ] ' ) o._.`.`.'.'._.",
"].].].].].].'.`.].}.].}.].$.O._.$.#.+ @ , 3.q.q.q.q.q.q.q.q.q.w.t.;X:X1Xt.9.l.:X<X=X;     #.#.I.$.$.$.$.$.$.%.%.` @.'.].'.'.`._.",
"`.`.`.`.`.'.`.I.].'._.].'.O.|     + 1.4.6.8.e.0.q.q.0.q.q.q.q.q.6.a h h 4 < 4 W ~ j X                 O.O.O.+.@.| $.'.'.`.'.]._.",
"`._._.`.'.`.`._._.I.I.].'.O.|     + 6.q.q.q.0.e.q.q.q.q.q.8.5.5.1..                                   #.#.#.#.#.| @._._.&._.'.`.",
"_._._._.'.'.'._.%.@.@._.}.} }     + 4.e.0.q.0.q.q.q.q.q.q.3., @ @                                     ..@.o.X.@.) o._._._._.}.'.",
"'.'.'.'.'.'._.I.#.@.@.I.[.] | , 1 z 9.e.0.8.8.8.8.8.8.8.0.1.                                          | | ` ` | } #.'.'._._.'.'.",
"'.'._.'._.'._._.I._._._.    + 3.0.8.q.e.2.1 1 < < < < < < 4 g.c.c.h.h.j.g.g.f.d.d.d.d.{ F             %.$.X...%.] #.'.'._._._._.",
"_._._.'.].].'.'.].}.].'.    + 1.4.4.5.5.>.    . O $ $ $ O C @X%X#X#X#X%X%X%X%X#X%X%X%X%XM.X     /  .@.@.X.| | @.| $.'.}.[.'.[.'.",
"........o.o.o... ...} }       + @ + @ @ +     a C.V.V.V.V.A.#X$XM.Z Z d.#X$Xb.H H d.#X%Xn.X     / | X.X.| } } O.] X.$.U.$.$.$.#.",
"_ _ ) ) ) ( ~ ~ ' } / ~     . $ $ O           C #X#X%X#X%X$X#X%Xc.    G #X%Xf.    8 @X%Xn.X     W / / ) ' ) ( | ' } | | | | } | ",
"| | } } } } ` ` $.%.o.|     C C.V.c.X         C @X%X#X#X#X%X#X%Xx.    Z @X%Xf.    : H [ F       | | ] ..$.$.O.#.O.O.@.@.@.@.o.@.",
"} ] ' ] } ' ` ` X.#.o.} : : H %X%XN.X         C @X@X#X#X$X#X#X%Xh.X   G #X%Xf.                  ] _ ) } $.I.o.o.@.O.O.@.@.@.#.#.",
"} ` } } _ ` } ) }     $ n.oX+X#X%XM.X         $ C C [ @X$X$X#X%XoXb.b.B.#X$XV.h.j.g.d.d.{ { [ C     ~ ..O.X.O.O.#.O.#.#.@.X.O.O.",
"} ` ` } ` } } / _     3 A.%X$X#X%XB.: $ X           a @X$X$X$X%X#X%X%X$X$X#X#X%X%X%X%X%X%X%X%Xh.      | O.O.%.#.#.#.@.#.#.@.O.#.",
"} _ ` } } } } W |     6 +X%X%X#X#X@XC.V.[     H v.v.b.#X%XN.H H b.%X$X$X$X$X#X#X#X#X#X$X%X#X%Xh.       .@.O.O.O.O.+.O.o.O.O.O.O.",
"} } } } _ ` ) W _     6 n.N.Z.%X#X$X%X%Xg.  X v.%X%X$X%X#Xh.    d.%X%X%X$X$X%X#X#X%X#X#X%X%X%Xh.      ..#.O.#.X.#.@.O.o.O.#.#.O.",
"_ } } } ) ) ) W _ } | . X X H %X%X%X%X%XZ.c.v.A.$X$Xg.G G 6     a { { { { { b.%X#X#X%X%XM.{ { Z       } O.O.%.O.#.$.$.O.@.$.$.O.",
"_ _ } } ) _ _ ( P ! / (     F Z.Z.Z.Z.Z.+X%X%X$X%X%XF                       [ %X%X%X%X%X{             ` } } ..} } ..X.| } ....} ",
"} _ ' } _ } } ) } }  . .| ..$ : : % : $ d.%X%X%X%X%XN.c.c.c.c.c.a           C j.h.g.g.j.Z           ] } } ' } ' ( } ..} } } | } ",
"| } } } ' | | ) #.#.#.#.#.#.#.          F B.N.N.B.B.oX%X%X%X%X#XF                               #.&.O.@.O.O.%.O._ o.$.@.X.#.$.$.",
"} _ } } } | } / o.$.O.O.U.#.O.O.o.      . O O O O X h.%X%X#X%X%XM.c.x.h.g.g.g.f.d.6           O.#.O.X.O.O.O.O.O.' X.#.+.o.@.@...",
"} ) } } ` | } / | @.O.O.$.#.@.%.O.. + + + + + + + . { C.C.C.V.V.Z.A.oXoX+X+X+X+X@XZ     } | _ o.#.@.@.#.$.#.O.O.` X.#.@.@.$.$.@.",
"( ! W ! W W / W / | } _ } _ '     n 2.2.2.2.2.2.6.=.X O $ $ $ : : : 3 3 3 6 6 8 a O     ! ! P ) } } }  .| } ] ] W ) ' ` _ } | ' ",
"o.| X.| } | X.| | | | | } ' . . . v q.q.q.q.q.q.q.>.                                    ] | `               _ } } | X.X.| X.X.| ",
"$.#.$.@.| X.$.@.@.$.O.      x 2.2.5.0.q.q.0.q.q.q.5.>.>.;.@           v >.>.>.>.;.,       $.  j ) ~ j j p X   #.@.$.$.#.#.#.@.O.",
"o.X.@.| ' | +.| X.X.o.X + . n q.q.q.q.q.0.q.q.0.q.q.q.q.9.,         . <.q.q.q.q.0.z         $ .X,X,X<X<X.X;     X.o.@.O.@.o.+.o.",
"$.#.U.@.| X.#.#.|     v 2.2.5.q.q.q.0.0.v x x x x x x x z K G.G.K   . <.q.q.q.q.0.b z z .   X [.=X=X<X,X=X;     #.#.#.$.$.$.%.%.",
"' } | ` ^ ~ } _       ;.q.q.q.q.q.q.q.0.1                 R /./.H.    <.q.q.q.q.e.0.0.9.,     X O $ &X,X=X;     } ' _ ' } ] ] } ",
"| ......X.......      ;.q.q.q.q.0.;.v b A o.o.o.*.o.*.#.o.u J J T G.R c x x 1.q.q.q.q.0.v x x +   O .X,X=X;     P ' O.O.X.O.@.O.",
"#.@.#.#.@.@.@.@.      ,.q.0.5.5.6.<     x.,X,X,X,X,X,X,X1X3     R ^.W.y     ;.q.q.e.q.q.e.e.0.1   X &X,X-X;     ) ..%.#.O.O.O.o.",
"$.#.#.$.#.#.@.#.      1.q.8.z @ @ ) [. X-X,X,X,X,X,X,X,X>X*.` ~ K G.G.L L y z =.=.=.=.=.=.=.-.@   X ..[.#.X     _ ..#.#.#.$.$.#.",
"+.X.o.o.X.X.o.O.      ,.8.4.,     {.,X,X,X,X,X,X,X,X,X,X,X,X,X=X$   & R.^.T.&                             } ' } / ] o.o.O.#.$.#.",
"_ _ _ _ _ ` _ _ ~ ~ W , , ,       {.,X,X,X,X,X,X,X,X,X,X,X,X,X=X;   & Y.|.Y.L y y y y y 3 7 7 #           ` / ] / _ ] ] ` ` ` ` ",
"I.$.%.$.$.$.U.%.}  ...            [.,X,X,X,X,X,X,X,X,X,X,X,X,X=XX   # S.D.F.).^.(.(.W.(.m.D.S.7     $. . .I.%.[.'.'.'.'.`.I.I.U.",
"@.@.O.o.X.O.O.O.} X.@.#.O.|       h ] ' 1X,X,X,X,X,X,X,X-X`._.| L L E m.XX X).^././././.|.XXXX8     $...O.}._.[._._._.`.'.`.'.`.",
"@.@.O.O.O.O.#.@./ ..#.$.O.}           # -X,X,X,X,X,X,X,X{.    = R.^./././.^.^.^././././././.(.y     %...#. XI.`.].`._.'.'.'._.'.",
"@.+.@.#.#.@.@.$./ _ ] } ) (     & K L K ..&.&.&.&.&.&.x.( T K L E./.^.^.^.^.^.^.^.^.^.^.^.^.Q.y      .} o._._.`._._.`.`.'._._._.",
"@.o.o.o.o.| | X.~ } $._._.%.    J ~.^.T.o               y W.^.Q.^.^.^.^.^.^.^.^.~.^.^.^.^./.Q.y           ].'.]._._._.'.`.`.'._.",
"$.@.@.@.@.o.+.@.' @.].].`.].    J ~.^.E.Y Y Y Y T Y T T G.Q.^.^.^.^.^.^.^.^.^.^.^.^.^.E.J.K.G.w 2 2 2 2 % X U.%.'._.'.'.'.].'.'.",
"@.o.o.@.@.O.@.@./ O._.I.%._.    J ^.^.^.^./././.^.^.^.^.Q.~.^.^.^.^.^.^.^.^.^.^.^.^./.K.      B i.i.i.u.B       I.I.I._._._.'._.",
"#.@.O.O.@.#.#.+.~ O.].|.[.}.    J ~.^.^.^.^.^.^.^.^.^.^.^.^.^.^.^.^.^.^.^.^.^./.~.L.L.R # % % V p.p.p.p.V .     _._._._.].].'.].",
"` ] ` _ _ _ / W P _  . .|  .    J ~.^.^.^.^.^.^.^.^.^.^.^.^.^.^.^.~.^.^.^.^.^.^.R.&   : D u.u.u.p.p.p.p.V .     ' ` } } ] } ] ] ",
"#.#.#.@.@.@...] @.#.@.      Y H.L.~.^.^.^.^.^.^.^.^.^.^.^.^.^.^.^.^.^.^.^.^.^.^.T.&   2 u.s.s.p.p.p.p.p.V       ..X.o.o.X.o.o...",
"X.O.O.@.@.$.| ` O.O.@.      H.^.~.^.^.^.^.^.^.^.^.^.^.^.^.^.^.^.^.^.^.^.^.^.^.^.R.&   2 u.u.p.p.p.p.p.p.V X     O.O.O.O.O.O.O.O.",
"+.$.#.+.@.@.X._     . m m % y y J R./.^.^.^.^.^.^.^.^.^.^.^.^.W.R.R.R.R.R.E.R.R.L.&   2 i.p.p.p.p.p.p.p.V .     @.o.o.o.*.o.@.@.",
"X.@.@.+.*.*.X._     X S s.5       R.~.~.^.^.^./.^.^.^./.^././.K.& & & & & & & & &     2 i.p.p.p.p.p.p.s.S .     $.$.*.*.$.$.#.$.",
"| | | |  ... ._     O S u.B m m 2 y y K E.^.W.K.J.J.J.J.J.J.L.Y                       2 i.p.p.p.u.D S S B .     _ _ ' ] ' ' ' ` ",
"} } } ` ' | ] _     X S p.p.p.p.M     & E.^.P.o                 ..'  . .| X.| |  .    2 i.p.a.a.s.B # X X       ~ ) ' ] ] } } } ",
"} } ] ] ] } } ]     # S p.p.p.s.M     o R G.Y o                 #.} *.*.o.*.@.#.O.    % V B B B V m             _  .O.*.*.*.#.#.",
"] ] ] ' ] ] ] ]     # D p.p.p.p.M             }  .O.o.X.#.$.O.$.*.] X.O.o.@.*.@.o.o...                    ] ` | ^ } O.O.*.*.*.o.",
"` ` ` ' ` _ ' '     # u.p.p.p.p.S m m 2       }  .#.O.X.o.*.o.O.*.' X.*.*.*.X.*.*.#.*.~                 ] ] ] | Q ] O.*.X.*.*.X.",
"] ] ' ] ] ' ' '     # u.a.p.p.p.a.s.s.m       ! ' .. .] |  .] | | ~ | X... .` ] _ ` _ h P j Q j j ~ Q Q ~ ~ ~ _ j ` O.*.O.#.#.*.",
"` ` ] ] ' ` ] }     X 4 5 5 5 5 5 5 5 2       X.+.I.'.I.I.I._.I.&.I._._.].$.| o.| |  . . .} } .._ ) _ ' ` ) } O.X.X.X.@.#.#.#.O.",
"] ' ] ] } ] ` _ ! h P                   ..O.+. .$.I.].I.I.I.'.I._._._._._.@.| X.&.$.#.$.$.#.#.%.} _ ' } ] `  .%.]  .X.O.@.O.O.O.",
"} } ] } |  . .} O.} }                 $.U.I.U.@.I.|.|.].].|.|.].}.}.]._.[.U.O.$.#.+...O.#.#.@.#.} } } } } } ..%.*.@.$.$.O.O.@.$.",
"s i l l i s s i l w e w w s j P d f g l s d g i l U U f g f f f h f d f f g i d d g d j j f g g l l s s l l s f h s s s s d d f ",
"& * w w q > > > w w q q t w * o 9 - * * q q q 0 = 0 0 - 9 > q - - > * - w > * w * * * * = o & * & & * * = & & & & & & & * 9 = & ",
"q s I _ _ / ( ( U.U.+.X.+.( i > e e 0 q e e e e e e e e e e q q > r q 0 r r - r e e w e 0 e s U U U I I I U U U I I I ( W W g e ",
"* w f I I U U I ( ( ( ( ( j q q r e 0 e e q 0 0     e e e 0 e e   r q 0 r e 0 e 0 0 0 q e t   U U   I I I I I I I I I I I   u q ",
"  e q - * * * - = * & = r * & t r e 0 0 e q e e r e 0 0 e e e e   r e q r     e e 0 e e e   * 0 9 0 0 * = 9 0 0 = = = = * 0 q q "
};
