/* XPM */
static char *toppng_com_ixel_mario_png_pixel_pals_super_mario_mario_840x1241__1_1676888505[] = {
/* columns rows colors chars-per-pixel */
"64 64 208 2 ",
"   c None",
".  c #000000",
"X  c #0B0201",
"o  c #0C0905",
"O  c #00020C",
"+  c #0C0C0A",
"@  c #130101",
"#  c #1A0101",
"$  c #140C05",
"%  c #110E0A",
"&  c #1A0F06",
"*  c #14110C",
"=  c #1B150E",
"-  c #1C1206",
";  c #020515",
":  c #050816",
">  c #121111",
",  c #1D1810",
"<  c #1F1F1D",
"1  c #240201",
"2  c #2C0202",
"3  c #350201",
"4  c #3A0201",
"5  c #340D0C",
"6  c #221308",
"7  c #27160A",
"8  c #37190C",
"9  c #231C13",
"0  c #3B1312",
"q  c #3B210E",
"w  c #2C2419",
"e  c #27241B",
"r  c #332B19",
"t  c #363011",
"y  c #020A29",
"u  c #050D33",
"i  c #050F39",
"p  c #131A36",
"a  c #1C1627",
"s  c #392D28",
"d  c #363028",
"f  c #3C3C3B",
"g  c gray19",
"h  c #282727",
"j  c #470402",
"k  c #550503",
"l  c #590503",
"z  c #500608",
"x  c #440915",
"c  c #670503",
"v  c #7A0704",
"b  c #750604",
"n  c #482811",
"m  c #532E14",
"M  c #5C3316",
"N  c #41240F",
"B  c #643818",
"V  c #6B3C1A",
"C  c #603617",
"Z  c #713F1B",
"A  c #423625",
"S  c #463827",
"D  c #4B3D2A",
"F  c #4A3B3B",
"G  c #76421C",
"H  c #7A451D",
"J  c #7F481E",
"K  c #4F402D",
"L  c #564630",
"P  c #5D4C34",
"I  c #51422D",
"U  c #6A563B",
"Y  c #69553B",
"T  c #061245",
"R  c #07144D",
"E  c #0E1A4C",
"W  c #081656",
"Q  c #121244",
"!  c #17255E",
"~  c #091B69",
"^  c #091A66",
"/  c #0C1E76",
"(  c #0D217A",
")  c #4A4948",
"_  c #5A5A5A",
"`  c #4F4C52",
"'  c #735E41",
"]  c #7B6445",
"[  c #776143",
"{  c #6C6B6B",
"}  c #636468",
"|  c #72716F",
" . c #737372",
".. c #7C7C7C",
"X. c #820604",
"o. c #880805",
"O. c #870805",
"+. c #9B0905",
"@. c #930805",
"#. c #821A18",
"$. c #A50906",
"%. c #AD0A06",
"&. c #B40A06",
"*. c #BE0A07",
"=. c #CC0B07",
"-. c #C30B07",
";. c #D30C07",
":. c #DB0C08",
">. c #D60C08",
",. c #D7110D",
"<. c #EC0D08",
"1. c #E50A06",
"2. c #F40E09",
"3. c #FB0E09",
"4. c #F90C07",
"5. c #FD1C17",
"6. c #FD100B",
"7. c #D0201C",
"8. c #FF241E",
"9. c #F72D28",
"0. c #F53935",
"q. c #81491E",
"w. c #864B20",
"e. c #8B4E21",
"r. c #8E5022",
"t. c #905122",
"y. c #846B4A",
"u. c #896F4D",
"i. c #806747",
"p. c #8C724F",
"a. c #927652",
"s. c #957954",
"d. c #9B7D57",
"f. c #9D7F58",
"g. c #8F7450",
"h. c #857A7A",
"j. c #F84B47",
"k. c #FB6C69",
"l. c #9F8159",
"z. c #A4855C",
"x. c #A8895E",
"c. c #AC8C61",
"v. c #BE9A6A",
"b. c #B79567",
"n. c #B0AB7D",
"m. c #C29E6D",
"M. c #FC817D",
"N. c #CAA472",
"B. c #C7A270",
"V. c #D2AA76",
"C. c #D6AE78",
"Z. c #DBB27B",
"A. c #C7A16F",
"S. c #E1B77F",
"D. c #E3B87F",
"F. c #DEC744",
"G. c #F0D950",
"H. c #FFED50",
"J. c #0C2284",
"K. c #0D248C",
"L. c #0E289A",
"P. c #0F2BA9",
"I. c #0F2AA4",
"U. c #102EB4",
"Y. c #1131BE",
"T. c #6D7799",
"R. c #1336D4",
"E. c #1439DC",
"W. c #1133CB",
"Q. c #153DEC",
"!. c #153BE3",
"~. c #163FF4",
"^. c #133FFF",
"/. c #3E5AD0",
"(. c #1A40EB",
"). c #1741FC",
"_. c #1943FD",
"`. c #1640F7",
"'. c #3053EB",
"]. c #848585",
"[. c #8D8D8D",
"{. c #999A99",
"}. c #8F908E",
"|. c #B1AE8A",
" X c #858FB0",
".X c #BBBBBB",
"XX c #EABE84",
"oX c #E5B981",
"OX c #D1B6B5",
"+X c #EDC185",
"@X c #F3C689",
"#X c #FECE8F",
"$X c #F3C688",
"%X c #FFD291",
"&X c #FFD08F",
"*X c #C0C0BF",
"=X c #FEC0BD",
"-X c #CCCBCB",
";X c #C2C2C1",
":X c #D5D5D5",
">X c #D0CFCF",
",X c #FED9D8",
"<X c #F5D1D0",
"1X c #ECE7E7",
"2X c #FCECEB",
"3X c #FFFFFF",
"4X c #F4F4F4",
"5X c #EEF3F2",
/* pixels */
"                                                            . . . . . . . . . . . .                                             ",
"                                                            . . . . . . . . . . . .                                             ",
"                                          . . . . . . . . . 2 v X.X.X.#.h.].h.#.X.b o . .                                       ",
"                                          X X X X X X X X X l 3.6.5.5.0.2X3X2Xj.9.7.@ . .                                       ",
"                                    . . . O.-.*.*.*.*.*.-.*.;.4.9.=X<X<Xk.j.k.2X,XOX> . .                                       ",
"                                    @ # 1 -.3.3.3.3.3.3.3.3.3.4.9.<X2X1X0.1.j.2X4X-X> . .                                       ",
"                              . . @ &.>.>.<.6.2.3.3.2.3.3.3.3.3.,.s g g 5 3 0 f ) f o . . . . . . . .                           ",
"                              . . @ ;.3.3.3.2.6.3.3.3.3.3.<.:.:.&.X . . . . . . . . . . . . . . . . .                           ",
"                              . . @ >.6.2.3.2.6.3.3.3.3.3.-.1 # # . . . . . . . . . . . . . . . . . .                           ",
"                              2 4 j 1.6.2.<.<.<.<.<.<.<.2.&.. . . . . . . . . . . . . . . . . . . . .                           ",
"                        . . @ -.2.<.3.6.=.4 4 3 3 3 3 3 3 0 a.z.z.f.d.s.a.g.p.u.u.y.i.] P . . . . . .                           ",
"                        . . @ &.>.>.>.:.$.. . X % * * * + A $X%X#X#X#X%X%X%X%X#X%X%X%X%Xm.o . .                                 ",
"                        . . . @ # @ # # @ . . s V.C.C.C.C.S.#X&Xm.D D y.#X&Xb.Y Y y.#X%Xv.o . .                                 ",
"                        . . X * * % . . . . . S #X#X%X#X%X&X#X%Xz.. . D #X%Xu.. . r @X%Xv.o . .                                 ",
"                        . . A V.C.z.o . . . . S @X&X#X&X#X%X#X%Xl.. . D @X%Xp.. . , U ' L . . .                                 ",
"                        , , Y %X%XB.o . . . . S @X@X#X#X&X#X#X%Xf.o . I #X%Xp.. . . . . . . . .                                 ",
"                  . . * v.D.+X#X%Xm.o . . . . * S S ' @X&X&X#X%XoXb.b.N.#X&XC.d.s.g.u.y.] [ ' S . .                             ",
"                  . . 9 D.%X&X#X%XN., * o . . . . . s $X&X&X&X%X#X%X%X&X&X#X&X%X%X%X%X%X%X%X%Xd.. . .                           ",
"                  . . e +X%X%X#X#X@XV.C.' . . U c.c.b.#X%XB.U U b.%X&X&X&X&X#X#X#X#X#X&X%X#X%Xd.. . .                           ",
"                  . . w v.B.Z.%X#X&X%X%Xa.. o c.%X%X&X#X#Xd.. . u.%X%X%X&X&X%X#X#X%X#X#X%X%X%Xd.. . .                           ",
"                      X o o U %X%X%X%X%XZ.x.x.S.&X&Xa.D K w . . s ] ] ] ] [ b.%X#X#X&X%Xv.[ ] D . . .                           ",
"                        . . L Z.Z.Z.Z.Z.+X%X%X&X&X%XP . . . . . . . . . . . ' %X%X%X%X%X] . . . . . .                           ",
"                            % = = = , * y.%X%X%X%X%XB.z.x.x.x.z.s . . . . . A s.s.a.a.s.D . . . . .                             ",
"                              . . . . . L N.B.B.N.N.XX%X%X%X%X&XL . . . . . . . . . . . . . . .                                 ",
"                                  . . . X + + + + o f.%X%X#X%X%Xm.l.l.d.a.g.p.p.y.w . . . . .                                   ",
"                                  X @ @ @ @ @ @ @ X [ V.V.V.C.C.Z.D.oXXX+X+X+X+X$XD . .                                         ",
"                              . . c =.=.=.=.=.=.;.o.o + % * * = , , 9 9 9 e w r d + . .                                         ",
"                            X X X v 3.3.3.3.3.3.3.$.. . . . . . . . . . . . . . . . . .       . . . . . . .                     ",
"                      . . . k =.=.:.2.3.3.2.3.3.3.:.$.$.+.# . . . . . v $.$.$.$.+.2 . . .   . f ` ) f f h o .                   ",
"                      X @ X c 3.3.3.3.3.2.3.3.2.3.3.3.3.1.2 . . . . X *.3.3.3.3.2.j . . . . + .X3X3X4X5X.X> . .                 ",
"                  . . v =.=.:.3.3.3.2.2.v k l k k k k k j Q K.J.R . X *.3.3.3.3.2.b j j X . o [.-X-X5X3X-X> . .                 ",
"                . . . +.3.3.3.3.3.3.3.2.4 . . . . . . . . ( ).).L.. . *.3.3.3.3.3.2.2.1.2 . . o + > *X3X-X> . .                 ",
"                . . . +.3.3.3.3.2.+.v v F { { {  .{  . .{ p T T ^ J./ x l l &.3.3.3.3.2.v l l @ . + .X3X-X> . .                 ",
"                . . . %.3.2.:.>.;.3 . . ].3X3X3X3X3X3X3X1X9 . . / ).Q.y . . @.3.3.6.3.3.6.6.2.4 . o *X3X>X> . .                 ",
"                . . . &.3.<.j # # ` }.{.>X3X3X3X3X3X3X3X5X| _ ` E K.J.W W i z o.o.o.o.o.o.o.X.# . o } }. .o . .                 ",
"                . . . %.<.>.2 . . }.3X3X3X3X3X3X3X3X3X3X3X3X3X-X* . ; R.^.W.; . . . . . . . . . . . . . .                       ",
"                      1 2 2 . . . [.3X3X3X3X3X3X3X3X3X3X3X3X3X-X> . : T. XT.Q u u u u u 9 t t o . . . . .                       ",
"                      . . . . . . [.3X3X3X3X3X3X3X3X3X3X3X3X3X;Xo . - F.H.G./.~.Q.Q.Q.(.n.H.F.t . .                             ",
"                            . . . g _ _ 1X3X3X3X3X3X3X3X-X].].} W W ! [.|.{.'.).`.)._._. X|.|.w . .                             ",
"                            . . . . . % >X3X3X3X3X3X3X3X}.. . ; R._.).).).).).)._.`._._._._.(.i . .                             ",
"                            . . ; R W E } ..............` R R W E._.).).).).).).).).).).).).`.u . .                             ",
"                            . . T `.).W.O . . . . . . . y Q.).~.).).).).).).).).`.).).).).).`.u . . . . .                       ",
"                            . . T ~.).E.~ ~ ~ ~ ^ ~ ^ ^ J.~.).).).`.).).).).).).).).).E.P.I.K.a 6 6 6 6 - o                     ",
"                            . . T ).).).).).).).).).).).).).).).).).).).).).).).).)._.I.. . . C e.w.w.w.B . . .                 ",
"                            . . T ~.).).).).).).).).).).).).).).)._.).).).).)._.`.U.U./ & & - V e.e.e.e.V . . .                 ",
"                            . . T ~.).).).).).).).).).).).).).).).`.).).).).).).R.; . = H q.q.q.e.e.e.e.V X . .                 ",
"                      . . . ~ L.U.).).).).).).).).).).).).).).).).).).).).).).).W.; . 6 q.r.e.e.e.e.e.e.V . . .                 ",
"                      . . . L.).~.).).).).).).).).).).).).).).).).).).).).).).).R.; . 6 q.r.e.e.e.e.e.e.V o . .                 ",
"                . . X N m - y u T R._.).).).).).).).).).).).).Q.R.R.R.R.R.E.R.R.U.; . 6 w.e.e.e.e.e.e.e.V X . .                 ",
"                . . o G t.8 . . . W.`.~.).).)._.).).)._.)._._.I.: ; ; ; ; ; ; ; ; . . 6 w.e.e.e.e.e.e.r.G X . .                 ",
"                . . o G e.M n n 7 u i R E.).Q.P.P.P.P.P.P.P.U.~ . . . . . . . . . . . 6 w.e.e.e.e.q.G G C X . .                 ",
"                . . o G e.e.e.r.m . . ; E.).Y.O . . . . . . . .                   . . 6 w.e.r.r.t.M $ o o . . .                 ",
"                . . $ G e.e.e.r.m . . O / K.~ O . . . . . . . .                   . . & B B B B B N . . . . . .                 ",
"                . . $ J e.e.e.e.m . . . . . .                                         . . . . . . . . . .                       ",
"                . . $ J e.e.e.e.G n n 7 . . .                                           . . . . . . . .                         ",
"                . . $ q.r.e.e.e.e.r.t.n . . .                                                                                   ",
"                . . o 8 q q q q q q q 6 . . .                                                                                   ",
"                      . . . . . . . . .                                                                                         ",
"                      . . . . . . . .                                                                                           ",
"                                                                                                                                ",
"                                                                                                                                ",
"                                                                                                                                ",
"                                                . .             .                           .     .                       .     ",
".                                                               .         . .             .                                     "
};
