/* XPM */
static char *sky1676888293[] = {
/* columns rows colors chars-per-pixel */
"64 64 205 2 ",
"   c #28607B",
".  c #13536F",
"X  c #1D698C",
"o  c #06699A",
"O  c #106B97",
"+  c #1D6E9C",
"@  c #196C96",
"#  c #13749E",
"$  c #197399",
"%  c #197294",
"&  c #286989",
"*  c #36768A",
"=  c #206890",
"-  c #2E6C93",
";  c #2D7296",
":  c #2A7B9B",
">  c #26789A",
",  c #397897",
"<  c #0D74A6",
"1  c #0379AB",
"2  c #1D7BA6",
"3  c #147CAA",
"4  c #1E7BAD",
"5  c #1874A4",
"6  c #147DB1",
"7  c #1C7BB1",
"8  c #2D7DA4",
"9  c #237BA5",
"0  c #3278A3",
"q  c #52788F",
"w  c #487B98",
"e  c #1986AF",
"r  c #0681B9",
"t  c #0A81B6",
"y  c #1585BA",
"u  c #1C85BB",
"i  c #1786B7",
"p  c #2580A4",
"a  c #2C83A7",
"s  c #2485AE",
"d  c #2E85AB",
"f  c #3483AE",
"g  c #3585A9",
"h  c #2F89B1",
"j  c #238ABB",
"k  c #278CB6",
"l  c #3386B5",
"z  c #4E8099",
"x  c #5D8B9B",
"c  c #488AA6",
"v  c #518EAD",
"b  c #5691A8",
"n  c #5699B7",
"m  c #6C8FAD",
"M  c #619FAC",
"N  c #789EAB",
"B  c #629CBA",
"V  c #619FB6",
"C  c #64A1BD",
"Z  c #168EC1",
"A  c #1C8DC3",
"S  c #138ECC",
"D  c #1E87C0",
"F  c #1895CC",
"G  c #0D89D1",
"H  c #0F9BD6",
"J  c #1995D2",
"K  c #159BD7",
"L  c #1C9BD3",
"P  c #119CDC",
"I  c #1A9DDB",
"U  c #1397D8",
"Y  c #238DC2",
"T  c #2391C5",
"R  c #2799CC",
"E  c #219EDB",
"W  c #299CDB",
"Q  c #2299D3",
"!  c #14A3DD",
"~  c #1BA3DC",
"^  c #38A1CE",
"/  c #23A2DD",
"(  c #29A1DB",
")  c #049FEA",
"_  c #0A9FEC",
"`  c #159DE1",
"'  c #1A9FE4",
"]  c #259DE1",
"[  c #04A5E6",
"{  c #0CA5E4",
"}  c #08ADE7",
"|  c #02A4ED",
" . c #0AA4EC",
".. c #03AAED",
"X. c #0BAAEC",
"o. c #14A4E4",
"O. c #1DA4E4",
"+. c #16AAE6",
"@. c #19A8E6",
"#. c #14A5EC",
"$. c #1BA5EB",
"%. c #15A9ED",
"&. c #1AABED",
"*. c #04A6F4",
"=. c #0AA5F4",
"-. c #03A9F5",
";. c #0AAAF4",
":. c #05A6FA",
">. c #0AA6F9",
",. c #02AAFA",
"<. c #0AAAFA",
"1. c #12A3F1",
"2. c #18A7F3",
"3. c #12ABF3",
"4. c #1FAEF6",
"5. c #11ADFF",
"6. c #04B1F5",
"7. c #02B1FC",
"8. c #0AB3FA",
"9. c #1BB3F3",
"0. c #16B1F4",
"q. c #23A5E5",
"w. c #23A7E9",
"e. c #22ABEB",
"r. c #29AAE5",
"t. c #29B0F4",
"y. c #489EC5",
"u. c #56A3CA",
"i. c #63A6C8",
"p. c #7BAAC4",
"a. c #7DB7CF",
"s. c #78B1C5",
"d. c #7FB5D1",
"f. c #5FBFF1",
"g. c #7EC2E7",
"h. c #8AAABF",
"j. c #84B7C7",
"k. c #9EBCC6",
"l. c #85BCD1",
"z. c #8FBFD5",
"x. c #80B2D5",
"c. c #A3B8CB",
"v. c #82C3DB",
"b. c #8BC4DA",
"n. c #94C3D0",
"m. c #91CBDD",
"M. c #98C5D9",
"N. c #98D1DC",
"B. c #B8CAC9",
"V. c #A1C7D0",
"C. c #A9CDD4",
"Z. c #A0CBDC",
"A. c #B2CAD7",
"S. c #AAD2DD",
"D. c #BFE0D9",
"F. c #86C9E9",
"G. c #95CBEA",
"H. c #9ED3E3",
"J. c #B9CEE1",
"K. c #AED3E6",
"L. c #ABD5EC",
"P. c #A7D6E5",
"I. c #B6D7E8",
"U. c #B2D6E2",
"Y. c #A7DFF6",
"T. c #ABDCF6",
"R. c #BADDF1",
"E. c #9EE1FB",
"W. c #A6E2FB",
"Q. c #ADECFD",
"!. c #A1E6F6",
"~. c #B3E3F6",
"^. c #B9E4FB",
"/. c #C2D5DB",
"(. c #C4DEEC",
"). c #C5E3ED",
"_. c #CEE2E9",
"`. c #D6EFE9",
"'. c #DAEAEC",
"]. c #DBE6EA",
"[. c #CBEDFA",
"{. c #C9E7F9",
"}. c #D9EAF9",
"|. c #C7F1FF",
" X c #C2FFFF",
".X c #CCFDFF",
"XX c #CCF2FB",
"oX c #DCF3FE",
"OX c #D3FDFF",
"+X c #DCFEFF",
"@X c #DDF0F4",
"#X c #E1EBEE",
"$X c #E0E6E6",
"%X c #F7FDEF",
"&X c #F7F4ED",
"*X c #E5F5FC",
"=X c #E5FEFF",
"-X c #ECFEFE",
";X c #E8F7F6",
":X c #F3F5F6",
">X c #F5FCF5",
",X c #FCFDF4",
"<X c #F0F7FD",
"1X c #F4FEFE",
"2X c #FCFEFD",
/* pixels */
"+.{ -.,.| ;.:.:.:.:.-.-.....-.-.,.-.-.*.*.-.,.,.,.-.-...-.-.-.,.:.*.-.-.-.-.;.*.,.-.,.6.-...*.*.=.*.*.| 6.....:.:.7.,.*.-.*.*.;.",
"t L ;...6.-.<.:.:.,.-.....-.-.,.-.-.-.;.-.:.*.-.*.-...-...-.-.-.-.,.-.-.-.-.-.*.:.-.-.-.-...;.;.*.;.;.-.| ..[ ;.,.:.*.8.-.;.*.-.",
"G.l I | 6.-.| ,.,.,.*.-... .-.:.-.,.-.-.;.*.-.-.-.;.;.*.=.=.....-.-.-.6.-.-.*.*.-.,.-.-.-.;.*.*.*.;.6.-...;.%.%.>.5.=.[ -.-.,.:.",
"1Xw A %.[ ..8.-.*.,.,.*. .;.-.:.-.-.-.-.*.-.;.-.....*.=.>.=.-.-.-.-.-.-.-.-.-.-.-.-.6.-.-.-.*.:.-...;.[ &.K t F #._ #. .| ,.:.:.",
"2Xj.f Z H { | ,.:.:.-.*.;.-.-.,.:.-.-...-.=.:.:.-.-.-.,.,.,.,.-.-...-.;.-.-.:.-.-.-.6.-.,.,.:.:.;.| [ e.D l n g F 9.{ } ..6.-.,.",
"2X}.  y.j / %.,.:.*.-.-.-.-.,.,.>.-.....*.:.:.:.-.-.-.,.:.:.,.,.....*.:.:.:.,.-.-.-.-.-.-.,.:.-.*.;.+.u g OX=X~.# H ! [ } ..,.,.",
"2X2Xc.|.& s ! | ;.-.-.-.-.,.,.:.*.-.....-.:.,.,.-.6...-.,.,.,.,.-.-.,.:.:.,.,.-.-.....-.-.-...;.>. .Q d +X1X-X=Xb $ I 2.| -.-.,.",
"2X2X2X2XN c F X...-.-.-.,.,.:.*.:.-.....;.-.,.,.-.-...-.,.,.,.,.6.,.,.,.:.,.,.,...| =.;.-.-.....=.w.s c =X#X2X'.).!.6 O.1.;.:.-.",
"2X2X2X1X=XF.1 0...-.,.,.:.,.*.*.,.,.*...;.-.-.-.-.;.=.|  .6.....-...-.-.:.:.:.-.| 3.=.>.-.7...} ! j , [._.B.2X:X$X=X8 R $._ >.=.",
"1X1X2X1XoXv Q  .-.,.-.*.,.,.-.-.,.*.*.=.-.-.-.-... .;.:.<.| ......;...;.*.:.-.-.;. .1.>.,.*.} ! e X R.1X*X2X2X2X2X1Xx.9 i I _ =.",
"=X1X:X2XJ.- ] >.-.-.-.;.-.-...-.-.,.,.-...-...-.*.,.,.,.,.-.6.......| } ;.=.-.-.| *.<.:.,.| e.3 b.=X1X2X2X1X2X,X,X2X(.w i.# r. .",
"/.`.2X<X=XF.G >.-.-...;.-.-...-.-.,.,.,.-...-...,.,.,.,.,.-.*.;.-.-...*.-.:.-.6.6.-.,.:.*.4.y i.-X2X2X2X1X<X2X,X2X2X1X=XI.. i ! ",
"B.;X1X1XL.u.O.,.-.....} ;.-.-.:.=.:.-.,.-.;.;.=.:.,.*.3.3. .;.:.,.,.6.,.,.:.-.-.6.[ 7.*. .J g K.1X>X,X,X2X2X,X2X2X2X2X<X2X^.y.i ",
"+XS.n.l.& 3 #.,.-.........-.:.*.;.-.,.6...*.*.=.*.3.e.1 y J 2.<.,.,.,.-.:.:.-.-...6.*.*.9.r g.=X-X1X>X,X<X2X2X2X2X2X2X2X2X=Xu.j ",
"i.= 3 r E e...-.-.-.-.-...-.-.:.-.:.-.-.-...=.=. .t.4 n B 8 / | >.:.-...;.*.-.-.-.| <.,.;.~ p Y.=X*X2X1X1X1X-X'.<X2X2X2X2Xc.l W ",
"6 ( 2.;.;.| ,.,.,.,.,.-.-.;.-.-.-.-.-.-.-.-.-. .O.< b =X-Xp.o q.1.=.....| ;...=.;.=.<.<...{ R : L.[.J.).1X=XV.XX-X;X<X2X2XK.9 ] ",
"$.1.*.;.| ;.-.-.,.-.,.-.-.-.-.-.,.-.*.:.-...-.&.y u.=X-X2X{.z h ~ ..-.-...;.*.;.>.*.;.-...X.%.y C OXM.j.L.j.s.m.P.C.-X>X1X+Xg.G ",
"<.-.-.-.-.-.-.-.-.-.-.-.-.-.-.-.-.,.*.>.-.*.{ / > l.=X#X2X].=XQ.1 t.[  .-.| ;.;.>.*.;.;.} ;.;.` s , Q.+Xb.Y..XW.j.XX=X=X.Xn A @.",
"-.-.-.*.-.-.-.-.-.-.,.-.-.-.-.-.-.;.*.=.>.#./ s M +X/.].2X].:X).$ ( O._ ;.6.-.,.=.:.*.<.*...,.;.&.y a v.+Xz.w ~.+X{.x V a 6 q.' ",
"-.*.-.-.-.-.-.-.-.*.-.-.-.-.-.-.-.-.*.=.#.J O * OX1X#X2X1X2X,X1Xc > 7 W { ..,.-.,.*.*.-.-.-.-.-.-.&.A $ X : 0 = ; = 9 5 J O.#.o.",
"-.-.-.-.-.-.-.*.-.-.-.-.-.-.-.-.,.,.*.3.O.k R.-X>X2X2X2X2X2X:X2Xc.m x.+ r.[ -.6.-.6.-.-.-.6.-.-.<.| &.w.K ~ w.q.U O.2.2.=._ >. .",
"-.-.-.,.-.*.-.-.-.-.-.-.-.-.-.,.,.-. .O.3 E.1X&X2X2X2X2X:X2X2X2X2X<XA.& T { 6.-.6.6.,.*.-.-.-.,.=.;.-.*.;. .;.;.,.-.:.*.<.*.=.;.",
"-.-.-.-.-.*.-.-.-.-.-.-.-.-.-.-.7.6.o.u B oX1X,X2X2X2X2X2X:X2X2X2X>X2XL.j P =.-.-.,.,.:.*.*.:.>.=.;.-.,.,...| ..-.,.-.-.;.| <.-.",
"-.-.-.-.-.-.-.-.-.-.-.*.-.,.-.-.-...%.o T.1X-X1X1X2X2X1X1X2X2X,X,X&X2X+X4 ' 1.:.-.,.:.>.=.;.*.*. .| 7.,.-.<.| ;.-.,.*.8.| 6.-.-.",
"-.-.-.-.-.-.-.-.-.-.-.,.-.-.-.-.-.-. .E 0 {.{.=X1X1X1X1XoX@X1X>X>X>X2Xq j 2._ <.-...-.-.;...-.-...-.-.-.*.:.>.,.:.,.,.,.*.-.-...",
"-.-.-.-.-.-.-.-.-.-.*.-.-.-.-.-.-.-.:.2.Y n ^.).A.*X=X[.C.+X-X>X>X,X2XM.i '  .-.6...,.-.....;.:.-.-.;.*.=.:.:.,.:.:.,.*.,.*.-.-.",
"-.-.-.,.-.-.-.,.-.-.-.-.-.-.-.-.| <.*.| t.< G.oXU.Z.H.l.S.n.S.(.2X2X1X+X^ !  .....-.<.=.*.*.*.>.:.,.;...;.;.-.,.:.-.*.;.:.-.-.-.",
"-.-.-.*.-.-.*.-.-.-.-.-.-.-.-.*.;.-.-.-.*.I + w .X Xv.!.Q.m.z.=XXX-XL.; y &.[ 6.-.-.*.-.;.*.*.,.:.,.| ..*...-.-.-.;. .;.=.-.-.-.",
"-.-.*.-.-.-.-.-.-.-.-.-.-.-.-.-.-.-.6.-.6. .q.j > F. Xb * Q.OXa.; l o F 9...*.-.-.,.-.-...6.-.-.,.-.-.;.;.-.-.-.-.......-.-.-.,.",
"-.-.,.-.-.-.-.-.-.-.-.-.-.-.,.-.-.-.......-.| w.j e 2 h h % > 9 Y S w.%.| -.7.-.,.-.,.-.....-.-.-.-.*.-.-.-.-.-.-.-.-.;...-.,.,.",
"-.-.-.-.-.-.-.-.-.-.-.*.-.-.-.-.-.:.-.-.6...8.| $.O.P O.@.$.o.! O.o. .;.;.-.*.*.:.:.-.-.-.-.,.:.:.-.-.-.-.-.;.-.-.-.*.-.-.-.-.,.",
"-.-.-.-.-.-.-.-.-.-.,.-.-.-.-.-.*.*.;.| ....-.,.=.*.;.-.*.,.-.-...X.| *.8.| -.-.:.,.-.-...-.>.:.*.*.-.-.-.-.| *.-.;.-.-.:.-.,.-.",
"-.-.*.-.-.-.-.-.-.*.-.-.-.-.-.*.-.-.-.;.-.-.-.:.-.*.-.-.-.,.:.-.;...-.-.-.-.-.-.:.-.-.-.-.-.:.:.-.=.-.-.-.-.*.*.-.-.-.-.-.-.-.-.",
"-.-.-.-.-.-.-.-.-.-.-.-.-.-.-.-.-.-.-.-.-.-.-.-.-.-.-.-.-.-.-.*.-.-.-.-.-.-.-.-.-.-.-.-.-.-.-.-.-.-.-.-.-.-.-.-.:.-.-.-.-.-.-.-.",
"-.-.-.-.-.-.*.-.-.-.-.,.-.-.-.-.-.-.-.-.-.-.-.-.-.-.-.-.-.-.-.-.-.-.-.-.-.-.-.-.-.-.-.:.-.-.-.-.-.-.-.-.-.-.-.,.-.-.-.-.-.-.-.-.",
"-.-.-.,.-.-.-.-.-.-.-.-.-.-.-.-.-.-.-.-.-.-.-.-.-.-.-.-.-.-.-.-.-.-.-.-.-.-.-.-.-.-.-.-.-.-.-.-.-.-.-.-.-.-.-.-.-.-.-.-.-.-.:.-.",
"-.-.,.-.-.,.-.-.-.-.-.-.-.-.-.,.-.-.-.-.-.-.-.-.-.-.-.-.-.-.-.-.-.*.-.-.:.-.-.-.-.-.-.-.-.-.-.-.-.-.-.-.-.-.-.-.-.-.-.-.-.-.-.-.",
"-.-.-.-.-.-.-.-.-.-.,.-.-.-.-.-.-.*.-.-.-.-.-.-.-.-.-.-.-.-.-.-.-.,.-.-.-.-.-.-.-.-.-.-.-.-.-.-.-.-.-.-.-.-.-.-.-.-.-.,.-.-.-.-.",
"-.-.-.-.-.-.-.-.*.-.-.-.-.-.-.*.-.-.-.-.-.-.-.-.-.-.-.-.-.-.-.-.-.-.-.-.-.-.-.-.-.-.-.-.-.,.-.-.-.-.-.-.-.-.-.-.-.-.-.-.-.-.-.-.",
"-.-.*.-.-.-.-.-.-.-.-.-.-.-.-.-.-.-.-.-.-.-.-.-.-.:.-.-.,.-.-.-.-.-.-.-.-.-.-.-.-.-.-.-.-.*.-.-.-.-.:.-.-.-.-.-.-.-.-.-.-.-.-.-.",
"-.-.-.*.-.-.-.-.-.-.*.-.-.-.-.-.-.-.-.-.-.-.-.-.-.*.-.-.-.,.-.*.-.-.-.-.*.-.-.-.-.-.-.-.*.-.-.-.-.-.*.-.-.-.-.-.-.-.-.-.-.-.-.-.",
"-.-.-.-.-.-.-.-.-.-.-.-.-.-.-.-.,.-.-.-.-.-.,.-.-.-.-.-.-.-.-.-.-.-.-.-.,.-.-.-.-.-.-.-.,.-.-.-.-.-.,.-.-.-.-.-.-.-.-.-.-.-.-.-.",
"-.-.,.-.-.-.-.-.-.,.-.-.-.-.-.,.-.*.-.-.-.-.-.-.-.-.-.-.-.-.-.-.-.-.-.-.-.-.-.-.-.:.-.-.-.-.-.-.-.-.-.-.-.-.*.,.-.-.-.-.-.-.-.-.",
"-.-.-.-.-.,.-.-.-.-.-.-.-.-.-.-.-.-.-.-.-.-.*.-.-.-.-.-.-.-.-.-.-.:.-.-.-.-.-.-.-.-.-.-.-.-.-.-.-.-.-.-.-.-.-.-.-.-.-.:.-.-.-.-.",
"-.-.-.-.-.*.-.-.-.-.-.-.-.-.-.-.-.-.-.-.-.-.-.-.-.-.-.-.-.-.-.:.-.-.-.-.-.-.-.-.-.-.-.-.-.-.-.-.-.-.-.-.-.-.-.-.:.-.-.-.-.-.-.-.",
"-.*.-.-.-.-.-.-.-.*.-.-.-.-.-.*.-.-.-.-.-.-.-.-.-.-.,.-.-.-.-.-.-.-.-.-.-.-.-.-.-.-.-.-.-.-.-.-.-.-.-.-.-.-.-.-.-.-.-.-.-.:.-.-.",
"-.-.-.-.-.-.-.-.-.-.-.-.-.-.-.-.-.-.-.-.-.-.-.-.-.-.-.-.-.-.-.-.-.-.-.-.-.-.-.-.-.-.-.-.-.-.-.-.-.-.-.-.-.-.-.-.-.-.-.-.-.-.-.-.",
"-.-.-.,.-.-.-.-.-.-.,.-.-.-.-.-.,.-.-.-.*.-.,.-.-.-.-.-.-.-.-.*.-.-.-.-.,.*.-.-.-.-.-.-.,.*.-.-.-.-.:.-.-.-.-.-.-.-.-.-.-.-.-.-.",
"-.-.,.-.-.-.-.-.-.-.-.-.-.-.-.-.-.-.*.-.,.-.-.-.-.-.:.-.-.-.-.-.-.-.-.-.-.-.-.-.-.-.-.-.-.-.-.-.-.-.-.-.*.,.-.-.-.-.*.,.-.-.-.-.",
"-.-.-.-.-.-.-.-.-.-.-.-.-.-.-.-.-.-.-.-.-.-.-.-.*.-.-.-.-.-.-.-.-.-.-.-.*.-.-.-.-.-.-.-.-.-.-.-.-.-.-.-.-.-.-.-.-.-.-.-.-.-.-.-.",
"-.-.-.-.-.*.-.-.,.-.-.*.-.-.:.-.-.-.-.-.-.-.-.-.-.-.-.-.-.-.-.,.-.-.-.-.:.-.-.-.-.-.-.-.-.-.-.-.-.-.-.-.-.-.-.-.-.-.-.-.-.-.-.-.",
"-.*.-.-.-.-.-.,.-.-.-.-.-.-.-.-.-.-.-.-.-.-.-.-.-.-.-.-.-.-.-.-.-.-.-.-.-.-.-.-.-.-.-.-.-.,.-.-.-.-.-.-.-.-.-.-.-.-.-.-.-.-.-.-.",
"-.-.-.-.-.-.-.-.-.-.*.-.-.-.-.-.-.-.,.-.-.-.-.-.-.-.-.-.-.-.-.-.-.,.-.-.-.-.-.-.-.,.-.-.-.-.-.-.-.*.-.-.-.-.-.-.,.*.-.-.-.:.-.-.",
"-.-.-.-.-.-.-.-.-.-.-.-.-.-.-.-.-.*.-.-.-.,.-.-.-.-.-.,.-.-.-.*.-.-.-.-.-.-.-.-.-.*.-.-.-.:.-.-.-.,.-.-.-.-.-.-.-.-.-.-.-.-.-.-.",
"-.-.:.-.-.-.-.-.-.-.-.-.-.-.-.-.-.-.-.-.-.-.-.-.-.-.-.-.-.-.-.-.-.-.-.-.*.,.-.-.-.-.-.-.-.*.-.-.-.-.-.-.-.,.-.-.-.-.-.-.-.-.-.-.",
"-.-.-.-.-.-.-.-.-.-.-.,.-.-.-.-.-.-.-.-.-.-.-.-.-.-.-.-.-.-.-.-.-.-.-.-.-.-.-.-.-.-.-.-.-.-.-.-.-.-.-.-.-.*.-.-.-.-.-.-.-.-.-.-.",
"-.-.-.-.-.,.-.-.-.-.-.-.-.-.-.-.-.-.-.-.:.-.-.-.-.-.-.-.-.*.-.-.-.-.-.-.-.-.-.-.-.-.-.-.-.-.-.-.-.-.-.-.-.-.-.-.-.-.*.,.-.-.-.-.",
"-.-.-.-.-.-.-.-.-.-.-.-.-.-.-.-.-.-.*.-.-.-.-.-.-.-.-.-.,.-.-.-.-.-.-.-.-.-.-.-.-.-.-.-.*.-.-.-.-.-.-.-.-.-.-.-.-.-.-.-.-.-.-.-.",
"-.:.-.-.-.-.-.-.-.-.-.*.-.-.-.,.-.-.-.-.-.-.-.-.-.-.-.-.-.-.-.-.-.,.-.-.-.-.-.-.-.-.-.-.,.-.-.-.-.-.-.-.-.-.-.-.-.-.-.-.-.-.-.-.",
"-.-.-.-.-.*.-.-.,.-.-.-.*.-.-.-.-.-.-.-.-.-.-.-.:.*.-.-.-.-.-.-.-.*.-.-.-.-.:.*.-.-.-.-.-.-.-.-.-.-.-.,.*.-.-.-.-.-.-.-.-.-.-.-.",
"-.-.-.-.*.-.-.-.-.-.-.-.-.-.-.-.-.-.,.-.-.-.-.-.-.-.-.-.-.-.-.-.-.-.-.-.-.-.-.-.-.-.-.,.,.-.-.-.-.*.:.-.-.*.,.-.-.-.*.-.-.,.-.-.",
"-.-.-.-.-.-.-.-.-.-.-.-.-.-.-.-.*.-.-.-.-.,.-.-.-.-.-.-.-.-.-.-.-.-.-.-.-.-.-.-.-.-.-.*.-.-.-.-.-.-.-.-.-.-.-.-.-.-.,.-.-.*.-.-.",
"-.-.-.-.-.-.-.-.-.-.-.-.-.:.-.-.-.-.-.-.-.-.-.-.-.-.-.-.-.,.-.-.-.-.-.,.-.-.-.-.-.-.-.-.-.-.-.-.-.-.-.-.-.-.-.-.-.-.-.-.-.-.-.-.",
"-.-.-.-.,.-.-.-.-.-.-.-.-.-.-.-.-.-.-.-.-.-.-.-.-.-.-.-.*.-.-.-.-.-.-.-.-.-.-.-.-.-.-.-.-.-.-.-.-.-.-.-.-.-.-.-.-.-.-.-.-.-.-.-."
};
