/* XPM */
static char *_07efd6577794bf28f32a097a5e448c3nAHWqburxfsvwy1A[] = {
/* columns rows colors chars-per-pixel */
"64 64 246 2 ",
"   c #160000",
".  c #1C0000",
"X  c #240000",
"o  c #2C0000",
"O  c #2C0A00",
"+  c #240800",
"@  c #330000",
"#  c #3B0100",
"$  c #340C00",
"%  c #3C0B00",
"&  c #3B1302",
"*  c #391806",
"=  c #361809",
"-  c #382113",
";  c #430100",
":  c #4C0300",
">  c #440B00",
",  c #4B0C00",
"<  c #530400",
"1  c #5A0400",
"2  c #530B00",
"3  c #5A0C00",
"4  c #441300",
"5  c #4B1400",
"6  c #451903",
"7  c #4C1B02",
"8  c #4C1E0B",
"9  c #441C0B",
"0  c #541200",
"q  c #5B1200",
"w  c #541B02",
"e  c #5A1C00",
"r  c #561F0B",
"t  c #401F10",
"y  c #640D00",
"u  c #680E00",
"i  c #651400",
"p  c #6A1400",
"a  c #641A00",
"s  c #6B1B00",
"d  c #731C00",
"f  c #7D1E00",
"g  c #761600",
"h  c #4D230A",
"j  c #49220C",
"k  c #552205",
"l  c #5A2205",
"z  c #54230B",
"x  c #5A260B",
"c  c #5D2A0C",
"v  c #59290A",
"b  c #492515",
"n  c #542511",
"m  c #5D2511",
"M  c #572A18",
"N  c #5B311B",
"B  c #6C2301",
"V  c #652B0C",
"C  c #6D2D0B",
"Z  c #682604",
"A  c #732301",
"S  c #7C2500",
"D  c #752B02",
"F  c #7C2B01",
"G  c #742D0A",
"H  c #7D2A09",
"J  c #6D300E",
"K  c #67310F",
"L  c #7F3307",
"P  c #642B13",
"I  c #6C2D13",
"U  c #662A17",
"Y  c #712E12",
"T  c #6B3214",
"R  c #63341B",
"E  c #6B341A",
"W  c #6B3A1B",
"Q  c #693715",
"!  c #723313",
"~  c #743419",
"^  c #743C1A",
"/  c #7C3D1B",
"(  c #733A15",
")  c #5D3823",
"_  c #643923",
"`  c #693925",
"'  c #7C3D22",
"]  c #753C26",
"[  c #7D411D",
"{  c #774019",
"}  c #7C4223",
"|  c #7A462A",
" . c #794C35",
".. c #764B30",
"X. c #881B00",
"o. c #901F00",
"O. c #822300",
"+. c #8E2200",
"@. c #822C01",
"#. c #8A2D01",
"$. c #942500",
"%. c #952B00",
"&. c #843102",
"*. c #8C3203",
"=. c #84340D",
"-. c #8B3A0A",
";. c #933403",
":. c #953A05",
">. c #93360B",
",. c #943B0C",
"<. c #9A3C0C",
"1. c #9C3807",
"2. c #843E1C",
"3. c #873713",
"4. c #953C13",
"5. c #9B3C11",
"6. c #A53C0B",
"7. c #BD3F08",
"8. c #A33D11",
"9. c #98400E",
"0. c #83411E",
"q. c #8B421B",
"w. c #9A4619",
"e. c #984518",
"r. c #A7430E",
"t. c #BC4405",
"y. c #BC4A06",
"u. c #BC460C",
"i. c #BD4B0C",
"p. c #B6470A",
"a. c #B7510E",
"s. c #A54514",
"d. c #AA4413",
"f. c #A64814",
"g. c #AB4915",
"h. c #AC4C1B",
"j. c #A6471B",
"k. c #B54C14",
"l. c #BD4C13",
"z. c #B34D1A",
"x. c #BC4E1B",
"c. c #B74714",
"v. c #AD531C",
"b. c #AE5A1E",
"n. c #B45115",
"m. c #BD5215",
"M. c #B4531C",
"N. c #BC531C",
"B. c #BC591D",
"V. c #B5581E",
"C. c #844322",
"Z. c #8B4422",
"A. c #834529",
"S. c #8C4B2A",
"D. c #874A29",
"F. c #944C25",
"G. c #9B4B25",
"H. c #944C2B",
"J. c #9B4D29",
"K. c #964624",
"L. c #8E512A",
"P. c #93512A",
"I. c #9C542C",
"U. c #995126",
"Y. c #894D31",
"T. c #954F32",
"R. c #8B5439",
"E. c #945232",
"W. c #9C5533",
"Q. c #9C5934",
"!. c #9B5B3C",
"~. c #96573A",
"^. c #AB4E24",
"/. c #A34E25",
"(. c #B84F22",
"). c #AC5424",
"_. c #A4542C",
"`. c #AB552B",
"'. c #AD5A2D",
"]. c #A7592B",
"[. c #B55423",
"{. c #BC5522",
"}. c #B45A25",
"|. c #BC5A24",
" X c #B1562D",
".X c #BD5629",
"XX c #B45B2C",
"oX c #BC5C2B",
"OX c #AC5631",
"+X c #A55A33",
"@X c #AC5C33",
"#X c #A45C3B",
"$X c #A55835",
"%X c #B45C33",
"&X c #BA5D32",
"*X c #B25C37",
"=X c #BC622D",
"-X c #B5612C",
";X c #AD623C",
":X c #A8633A",
">X c #BC6334",
",X c #B4643B",
"<X c #BB643A",
"1X c #BB683A",
"2X c #B76434",
"3X c #C44B05",
"4X c #C3450B",
"5X c #C34B0C",
"6X c #CA4C0C",
"7X c #C74707",
"8X c #C2500D",
"9X c #CC520D",
"0X c #C04610",
"qX c #C34D13",
"wX c #CB4D12",
"eX c #C34D19",
"rX c #CC4A16",
"tX c #C45213",
"yX c #CA5215",
"uX c #C3541C",
"iX c #CA531B",
"pX c #C3591D",
"aX c #C85A1A",
"sX c #C35523",
"dX c #C95523",
"fX c #C35A23",
"gX c #C25629",
"hX c #C35B2B",
"jX c #C95B2B",
"kX c #CA5D25",
"lX c #C75D2F",
"zX c #C4612C",
"xX c #C9632B",
"cX c #C36433",
"vX c #C16539",
"bX c #C3673B",
"nX c #955F43",
"mX c #A45F43",
"MX c #9B6247",
"NX c #AB6746",
"BX c #BB6641",
"VX c #B56A43",
"CX c #B66945",
"ZX c #B47352",
"AX c #BE7F60",
"SX c #C16840",
/* pixels */
"6X9X5X5X6X6X6X|.P # {.5X6X6X3X9X6Xm.q.# 5.iX6X3X3X3X3XiX X: d |.qX6X6X5XwXl..XA ; ].eXwX9X7XwXqXyX8.@ S.N.3X9X3X6XwX3XN.; r 1Xf ",
"5Xu.i.m.tXi.t.oXm # .X5XqXqXyXt.4X.XD.@ w.sXl.i.8X8XtXg.@X; d &Xk.qXqXl.i.k.cXd ; ].eX0X6X8Xi.m.uX8.@ A.[.i.i.tXu.5Xl.[.# h ,XS ",
"oXoXhXN.}.=XoX1XU # <XhX|.|.}.|.fXbXY.@ /.&XhXoX}.|.zXoXCX; B BXXX.X[.=XXX%X1XA ; NXOXjX|.N.oXoX&X_.o Y.<XV.cX|.hXfXXX*X% x AXs ",
"s s g d s a a s # @ p u s a A s p s 5 o 2 p s i B a u s a @ ; s s s s s p s i : @ q s s s A s i p 3 o 5 i s a B A p s a o # w , ",
"< < < @ @ , : , , 0 < 1 2 # o ; < < , , < 2 < : X > < < : < 2 : < 2 o o 2 < < 3 2 , < , # o , < < < q : : < ; o # < : < 2 2 ; @ ",
" XOXVXw w NX@XXXXX).oX X,X2.@ !.,X XXX'. X XOX#Xo ] *X X%X%X X>XXX;X8 8 ;X}.oX[.'.-X).,X] @ $X'.XXXXXX XXX'.MX# 3.CX@XOXXX).,XC ",
"qXc.*X2 1  Xz.tX5X8Xi.c..X#.# H.[.l.i.y.tXl.x.h.o ~ [.qXN.p.t.5Xu.&X5 > |.5X5Xi.l.l.5X|.~ o h.eXqXy.eXl.6XuX/.@ H oX{.c.wXl.M.F ",
"pXoXNXq q ,XhX{.pXuXgX|.<X3.# #X%XfXpXpXsXgXjX X@ ] vXgX{.fXfXpXdX<X7 4 <XfXuXfX|.hXN.cX| o OXhXfXfX{.fXdX.X#X; 3.<XoXsX|.{.cXD ",
"G I _ O @ E C T E E I ! E h X N Q ! C ! T K G Y X - W J T ~ J J C ] o + W V ! G E V ! W j . P I C ! Y I I P R X 8 E I I ~ E R & ",
"# # o @ # @ @ o . . @ @ o @ @ @ @ @ o X o @ # ; @ o @ @ o X o @ @ @ @ o @ o @ o . o @ @ o O @ # @ @ X o # @ @ @ @ @ # @ X X o X ",
"M.M.[.v.n.N.n.-XM # %XN.h.|.k.M.M.XXD.o e.}.M.k.N.M.M.^.mX, B XXV.M.V.M.v.[.*XA ; !.^.N.V.n.{.M..Xw.@ | '.M.M.M.M.z.k.XX% 8 NXA ",
"i.yX8X3X8X3X5X|.P o .X5X5Xi.3X3X3XN.D.o 4.iXqXtX3X3X7XN.$X; d oXl.5X5Xi.qXk.&Xd # @XeX6X3Xy.qXqXuX9.@ S.{.5Xi.5XqXtX6XsX# z BXf ",
"uXpXyXtXaXyXtX=XU # |.yXiXtXaXtX9X|.L.@ j.dXuXpXtX8XtXfX@X; A >XN.tXuXiXpXN.&XD ; ;XfXyXtXpXyXm.kXf.o Y.zXtXB.B.tXyXtX|.; P ,XO.",
"5.:.9.:.,.<.;.w.5 @ 4.1.:.<.9.,.6.9.Q o =.5.>.,.9.,.1.:.F.# 3 w.;.r.4.4.:.:.G.a @ q.>.6.<.,.<.<.1.*.o T ,.9.,.,.<.<.:.e.# 5 Z.a ",
"@ @ @ o o o @ @ o @ # # @ o X o @ @ o o @ # @ @ X o @ # o @ @ @ @ o X o # @ @ o o @ @ @ o X @ @ @ @ @ o o o o o @ @ o o X o o o ",
"H.S.~.> 4 R.S.F.H.K.G.J.E.E X  .T.G.F.U.H.H.J.Y.. N !.J.K.F.F.F.F.~.* & E.K.F.F.P.S.F.!._ o Y.S.G.F.S.L.F.S.R.X I Q.S.H.P.F.E.x ",
"uX{.<X3 2 ,X{.eXN.x.uXx.jX*.@ W..XqXuXuXn.uXN. Xo ^ hXl.eXN.l.uXuX%Xw > &XuXN.N.N.N.N. X/ @ ).B.m.m.m.N.N..XI.# #.oXuXx.m.B.).D ",
"N.z.*Xq 0 @Xz.N.N.{.gXc.|.-.@ Q.{.uXN.c.B.B.{.^.o W |.iXtXN.N.uXk.cX4 4 oXl.N.gX{.N.m.>X' o ).N.n.pXN.N.N.[.$X@ &.hXM.uXm.n.>XA ",
"F.Q.!.> & ~.~.H.H.H.F.U.!.W X  .E.U.H.Q.L.L.H.T.X N ~._.F.U.E.S.J.~.& * ~.J.H.K.S.P.K.!._ . D.P.H.U.F.F.T.E.R.o ~ W.T.H.F.L.~.m ",
"o o o o o o @ @ X @ @ @ o X X o @ @ o o o @ @ @ X o @ @ @ o @ @ @ # X X @ # # @ @ o # @ o o @ @ @ @ @ @ @ @ o o @ @ @ o o o o @ ",
":.,.>.,.<.;.6.<.e o 4.<.:.,.>.<.:.9.~ @ F 8.;.4.4.>.<.>.q.# q 4.>.*.,.5.;.5.5.y # q.;.6.,.>.<.;.<.=.o Y 9.;.<.,.>.5.>.e.o 5 K.y ",
"aXN.uXuXpXiXrXjXZ # &XuXpXuXuXyX9X|.Y.# j.kXm.qXdXeXiX{.,X: d cXN.pXuXiXuXeXlXf : %XdXrXiXiXm.pXfXj.@ D.zXtXm.pXiXpXu.zX% z bX$.",
"5X5XyX4X7XrX7XdXs ; oXl.i.tX7X3X8Xm.Z.# 1.yX5X3X6XwXyXk.'.: d sXi.tXu.3XqXl.oXf :  X0XwX5X5X5XqX8Xg.@ D.m.3Xy.8XtX5X5XB.@ k <XX.",
"N.N.z.x.{.(.sXlXG # #X X[.M.N.N.n.XXS.@ G.V.m.m.z.[.[. X#X; s 2X[.M.V.M.(.(.BXB ; #X[.x.N.M.}.M.}.w.o D.XXm.}.b.n.N.N.'.% z NXS ",
"# # @ # @ @ # @ o X o o @ @ # @ @ @ o . o @ # # @ O o o o X o @ @ @ o @ @ @ @ X X o @ @ @ @ @ @ # @ . X @ @ O @ # # # @ . . X o ",
"J V ` @ O ) V T P ~ E U Q k . M T C I E K K G V . - N T I ! I I I E O + ` T P T E K c R b X m T V V E P I ` M . w Y Y I P E N 4 ",
"N.|.,X2 5 ;X|.aXpXB.{.gX=X-.@ !.>XuXfXfXB.=X|.@XX W >XfXpXpXsXfXgX2X7 6 cXuXuXB.uXfXB.2X} o `.|.aXB.N.sXsX&X!.@ =.=X{.sXpXB.<XF ",
"qXk.%Xq w '.i.5Xy.tXi.l.pX@.o E.M.5Xi.p.a.i.k.^.o ^ |.t.5X5Xu.qX0XhX5 > sX3X8X8X5Xy.8X{.~ o v.i.y.3X5XiXi.h.Q.o F hXc.yX5Xp.oXd ",
"XX XCX5 5 NX'.XX-Xb.oX}.<X2.o MX*XXX X>XoX'.*X#XX | BX.XoX}. XoX.X,X9 9 <XgX[.[.).oXM.1X] X $XoX-X-X}.). X;XMX@ / VX'.XX-X'.:XG ",
"1 : 2 @ @ 0 : < ; 0 2 1 < ; o # < 1 2 2 2 < 1 : X @ 1 1 2 2 2 < 1 2 X X 2 1 3 2 q : < 3 # o : 3 : 2 q , 3 : > X # 2 < 2 , 5 > # ",
"p s u s s u p s % o q s i i A u i a 5 o 2 s p p a i p p e o ; a p y a s i y s ; o w p u i Z i p s 2 o , s u a s p u u a o @ a : ",
"zXN.gXhX.XoXgXBXP @ BXoXoX}.{.hX}.1XR.o G.zXsXfXgX|.jX XNX> Z VX&X.X|.}.oX*XBXC # NX%X|..X.XoXoX<XU.o Y.2X|.fX{..XjXhX,X$ n ZXS ",
"i.y.wX5X3Xi.i.}.c @ }.u.tXt.5X7X5Xv.S.@ :.tX5X4X4XqXu.k.OX, s XXu.5Xi.i.l.k.XXd ; '.k.i.5X5X5Xl.N.e.@ q.m.3X5X5X5X5Xt.|.# k 2Xf ",
"fXpXsXfXfXB.=X2Xc @ -XfXfXuXgXhX|.<XP.o j.=XgXjXjXsXfX=X@X; B 1XgXsXfXoX|.}.,XD ; :X-XpXgXfXuX|.oXU.@ H.cXN.zXN.uXfXxX-X# N NXA ",
"l w w l k 7 k z $ X x w w l z z w z 9 X 7 x w w m r l k n X % k e l z x w w x @ . z r w r m k w k 6 . 6 l w h k l w e k . + b * ",
"; % % X X & # ; % > ; > > o X X % # > 5 # , ; % . + % @ , > > # # % .   % ; > > , > # % o . % > ; ; 5 % # % O . o > # ; 4 % $ X ",
"fX&X,X2 w ,XgXdXjX(.gX.XxX-.o mX&X{..X{.uXuXgXOXX { 2XfXdXgXsXgXkX2X7 4 <XsXsXsXeXhX{.1X| @ ).fXpXsXgXsXjX&X~.@ 3.oX.XsXfX|.*XH ",
"tXp.%Xy 2 oX7.rX4XqXiX7.a.;.# W.z.wX5X4XyX5XrXz.o Q N.7X4X6X4XqXt.|.5 > jX7X7.wXwXt.6X{.~ @ f.3X3X7X4X5Xu.c.$X@ @.x.qXwX3Xu.gXg ",
"N.XX<Xq q <XhXeXsXsXgXsXcX,.@ Q.oXpXuXfXN.uX|.XXo ( >XpXfXdXpXpXpX=X7 5 hXkXdXpXN.kXuX>XC.# -XB.aXuXfXkXhX&XQ.@ -.cX|.N.pX|.cXO.",
"@.F L : ; =.O.@.F =.@.O.&.a @ G F @.F &.@.@.F D o k L F @.@.@.@.F &.# % @.O.@.@.&.F #.F e o B &.O.@.&.@.O.F ! o e &.F @.&.D L 3 ",
"# # # ; ; # # # X X # # ; # ; @ ; # @ X @ # # # ; # # # @ o o # # # # @ # # # o X @ # # # # # # # @ o o # # @ # # ; # @ X . @ @ ",
"Q._.OX`.`.`.`.mXb $ nX*XOX`.J.OX`.NX .. D.+X]._./._.@XW.MX% l NX$X]._.+X].I.NXU @ MXI.`.*X/._.+X+XD.o  .#X`.OXI._.OXOXmXO b NXZ ",
"N.k.eX0X0XqXl.&Xn $  Xc.l.eXeXqXqX[.Y.@ 9.B.k.uXeXeXqXM.$X; A  Xz.l.uXp.n.v.*Xd ; @XV.i.l.l.l.M.N.e.@ A..Xi.p.uXeXx.c.[.# n ,XS ",
"N.|.hXdXuXpXgX&Xc @ >X{.fXuXz.dXuX|.Y.@ e.|.N.uX{.eXpX[.NX; s vX{.dXsXN.B.[.SXA : :X}.N.dXuXsXN.hX/.o Z.cXtXsXN.{.jXiX&X% n CXf ",
"C.0.2.C.C.2.0.D.9 + } Z.C.C.A.C.2.D._ . ^ A.0.C.Z.Z.C.} ..@ 5 D./ 2.C.S.C.^ Y.w X | C.0.Z.Z.C.0.0.W X _ C.0.0.D.C.2.0.A.+ *  .k ",
"@ @ @ o o @ o o o o o @ @ o X o @ o o @ o @ @ o X o o @ o @ o o @ @ X X @ @ o o o o o o o o @ o o o o @ @ @ X X o @ @ o X X X X ",
"s.j._.< 2 U.j.f.w.f.d.f.h.F @ S.^.s.g.h.d.g.j.G.o Q ^.6.z.j.9.g.r.).4 5 ^.r.d.s.f.f.s.`.U o w.f.d.h.j.s.h.w.P.@ D v.s.s.f.s._.s ",
"iXz.2Xy q -Xl.yXwXeXeXuXaX;.@ $X|.l.qXqXqXrXeX(.o ( |.rXqXrXyXtXqX.X5 4 hXrXwXyXwXyX5XgX' @ z.iXwX5XqXuXqX{.I.@ *.fXtXyXqXuX}.S ",
"m.N. Xy q -XuX6XqXuXrXeXdX;.@ $XsXqXqXqXwXyXyX[.o ( fXwX4XwXwXl.wX|.5 > gXwX5XtX6XyXqX|.' @ z.yX9X5X5XiXqXsX_.@ *.fXl.iX5XtX|.X.",
"g.h._.2 2 ].f.g.f.h.z.j.h.@.@ S.^.g.g.h.f.g.g.w.o W ).d.x.h.s.h.d.`.7 7 [.d.g.h.h.d.g.'.E @ w.h.d.z.h.s.h.j.E.# D ).s.g.g.s._.B ",
"o @ o o o X o o o o o @ @ X X X o o o @ o o o o X X o o X @ o o o o X . o @ @ o o o o o o X o o o o X o @ o X X o o @ o X o X . ",
"0./ / C.} ^ { | * + } [ / [ C.[ / | ) . W } ' ' A.} ^ } ..@ 4 | / / 2.A.{ ^ | 6 . | } / C.2.[ 0.} W   ) | / ' C.} / C.} + =  .h ",
"m.B.gX{.N.pXN.=XV @ 2X{.fXpXk.pXsX&XS.o w.gXN.gXx.N.fX[.CX; A <XM.dXN.N.V.b.1XA ; :Xv.B.iXN.sXM.|._.o D.>XuXsX{.{.sXsXoX# n CXS ",
"tXtXu.qXtXp.qXoXc @ XXc.k.yXrXqXqXM.A.@ 9.iXl.eXiXqXl.M.$X; f }.x.qXiXu.a.M.%XA ; @XV.y.qXrXl.x.(.e.o A.[.wXu.iXeXl.l. X@ x ,XO.",
"`.`.*XOXOX*X_.:Xn O !.*XOX`.`.`. XNX .X F.@XOX X^.`.XX+XMX% a NXOX`._.'.OX_.NXP @ MXI.`.%X`.OX_.@XD.o  .+XXX`.`.`.`.'.;X$ b NXZ ",
"; ; ; ; ; # ; # X o # ; ; ; : ; ; # @ o # : ; ; : ; # # # o @ # ; ; ; # ; ; # @ X # ; ; # : ; ; ; # X o ; ; ; ; : ; ; ; X X @ o ",
"F S H ; ; G S D D H f f O.a o C S S D F F S F A @ e F S O.S @.S S H @ # F O.S S F D S F e @ D S @.S D D S S Z @ q F S F S F D 0 ",
"{.=XBXq 0 1XoXN.|.|.lX.XcX-.@ Q.>XdXfXuX{.sXhX).@ ^ oXdXdXfXfX{.kX2X7 5 vXdX{.fX|.jXN.vX] o ).zXpXpXsX.XhX%X#X# -.>X{.fXuX|.<XD ",
"a.p.&X1 3  Xp.6Xu.u.0XrXiX#.@ I.c.qX4XeX5Xu.u.[.X Q sX4X7X7X0XeXt.|.5 > .X7X5X5X4X6Xy.[.' # g.5X4X6X5Xl.u.{._.@ F |.l.4X5X5X{.X.",
"|.oXBX3 w ,X|.pXB.xXgXgXcX>.o nX&XhX.X.XfXfXhX'.o ] vXdXdXjXgX}.sX1X8 4 >XfXN.dXpXxX|.2X] o `.|.uXfX.X.XgX&XnX@ =.2X.XhXdX{.,XA ",
"> % 4 X X & % > 4 > > , > @   $ 4 ; > 5 % > 4 @   + > 5 ; , 5 > % % . . 4 ; 5 > 7 @ 4 6 o . % > > , 7 # > > = . O > > ; > 4 4 o ",
"7 7 5 8 7 9 7 7 O . 8 4 w 8 h * 5 w & . 4 w 5 8 9 9 6 4 b X o j 7 z 9 * 7 w 8 O . j 7 5 8 j 7 7 7 % . * 7 7 & j 7 7 7 7 . + t O ",
">X&X&X<X<X-X>XVXR o CXSX&X>XXXbX&XVXR.o I.<X<X%X2X1X1X'.NX> Z CX%X&X1X<X2X<XCXY # NX,X2X1X%X<X&XSXI.+ R.,XcXbX*X<XbXoXVX& n AXD ",
"$.$.$.$.+.$.$.#.4 @ @.+.+.%.$.%.%.@.V o d %.$.$.$.+.+.*.G # i *.$.$.+.+.#.f >.3 # D #.$.o.$.$.$.#.A o V +.$.o.$.$.o.$.*.o 4 L y "
};
