/* XPM */
static char *coin_2d_super_mario_coin_2d_11563191115sspsxa9g5b__1__removebg_preview1677331257[] = {
/* columns rows colors chars-per-pixel */
"64 64 73 1 ",
"  c None",
". c #743E15",
"X c #764016",
"o c #7A4515",
"O c #7E4915",
"+ c #774219",
"@ c #79451D",
"# c #7B481F",
"$ c #7D4A23",
"% c #7F4D29",
"& c #814E15",
"* c #855215",
"= c #885615",
"- c #8C5B14",
"; c #905F14",
": c #946314",
"> c #9A6B13",
", c #9F7113",
"< c #A37513",
"1 c #A67913",
"2 c #AA7D12",
"3 c #814F2A",
"4 c #82522C",
"5 c #855631",
"6 c #875935",
"7 c #885A36",
"8 c #8A5C39",
"9 c #8E623F",
"0 c #8E6442",
"q c #906543",
"w c #946B4B",
"e c #9A7253",
"r c #9C7659",
"t c #9D795B",
"y c #A17C5E",
"u c #A17E62",
"i c #AC8012",
"p c #B18612",
"a c #B58A12",
"s c #B98E12",
"d c #BD9411",
"f c #C49C11",
"g c #D7B20F",
"h c #DAB60F",
"j c #DEBA0F",
"k c #C7A011",
"l c #CBA410",
"z c #CFA910",
"x c #D3AD10",
"c c #D6B110",
"v c #D9B410",
"b c #E1BE0F",
"n c #E5C30F",
"m c #E8C70E",
"M c #ECCB0E",
"N c #F0CF0E",
"B c #F4D40E",
"V c #F7D80E",
"C c #F8D90E",
"Z c #A38064",
"A c #A7856A",
"S c #A8866B",
"D c #AC8C74",
"F c #AE9077",
"G c #AE917B",
"H c #B2957E",
"J c #B49680",
"K c #B49984",
"L c #B99E8C",
"P c #B9A08B",
"I c #BBA592",
"U c #C2AC9A",
"Y c #C3B0A0",
/* pixels */
"                       IZ0%%90eADKIY                            ",
"                     S%ooX+@XXXXXX++#$%688wuI                   ",
"                   Z$XXO;ippi,-OXXo:,:;=&O...4G                 ",
"                  %XO:djMVCCVBmgi-XOanNmnjk<&..0                ",
"                Z..OfBCVVVVVVVVCVmd=X:gVVVCBg:X.$               ",
"               w..ibVVVVVVVVVVVVVCCniXOdBVVVCMaO.#L             ",
"              q.OdBVVVVVVBBBBVCCVVVVBfOoaBCVCCVd&.#             ",
"             w.OfVVVVVVjs,::>ilmVCVVVVg-+pBVVVVVfO.$            ",
"            t.OfCCCVVzOO...X..OOanCVVVCh=odVVVVVVdo.6           ",
"            XodVCCCMiO..oifzkdiOX=kVVVVCgOolCVVVVB2X.y          ",
"           $.2BVCCMO..oihBCCVCVnsOopMVVVVko=jCVVVCm:.+          ",
"          0.:mVVCMO..OdBVVVVVVVCVj:XiMVVVVpX,NVVVVCxO.9         ",
"          .OxVVVjOO.OkCCVVVVVVVVVCM,XiBVVCM:XdVVVVVVi.X         ",
"         3.2VVCMi.oOkVVCVVVVVVCCCCCM,XdVVVCxO-nCVVVVb*.8        ",
"         .*nCVCdooXiVVCCmmnnmnnmbmVVm;OgCVVViXpVVVVVVa..        ",
"        4.aVVCj*oOOmVVCVOOOOOOOOO:MVCxO>NVVVn**bVVVVCb*.w       ",
"        .*nVVB1.XOxCVVVmOOoXXOOo.*nCCCp.fVVVVp.aVVVVVV2.$       ",
"       8.iVVCgO.X,NVVVVmOooXijhh;=nCVVb==mVVVb&-mVVVVCx&.       ",
"       +OgCVV2XXOgCVVVCmOOX.iVVB>=nCVVCa.fVVVB<.fCVVVVN;.0      ",
"       .>NVCbOX.,NCVVVCmOXX.iBVB>&nCVVVb&;NVVVz$<BVVVVVp.%      ",
"      6.sCCCd.XolCVVVVVmOOO.iVVB>*nCVVVV<.xVVVN-*bVVVVCxo.      ",
"      @OhCCN:..-MVVVVVVmOOo.iVVB>&mCVVVVl@2VVVV2.kCVVVVm=.A     ",
"      .-MCCj*..2VVVVVVVmOO..iVVB>&bCVVVVb*;NVVVl@2VVVVVB>.q     ",
"     r.1CCCfXXokVVVVVVVmO...iVVB>*mCVVVVV>&vCVVb&;NVVVVVp.4     ",
"     6.fCVV2.X&nVVVVVVVmOooXiVVB>*mCCCCBVs.fCVVB:&bVVVCCf.$     ",
"     $oxCVB>..:MVVVVVVVmOOXXiVVB>&bCCCCCCz.2VVVV1+xCVVVCgOo     ",
"     +&jCVm=X.1VVBVVVVVmOXXXiVVB>&mCVVVVCj&>BVVCs.fVVVVVb&.     ",
"     .=MCCj&..aCVVVVVVVmO.X.iVVB>*mCVVVVVm*=NVVVl.pCVVVCm=.F    ",
"     .;NVCgo.XfCVVVVVVVmOOo.iBVB>*mCVCCBVN;&nCVCc.1VVVVVM-.A    ",
"     .>BVCzXXXzCVBVVVVVmOO..iVVB>*mCVVCVVB>&jCVCj&,BVVVVB:.u    ",
"     .>BVCkXXoxCVVVVVVVmOoo.iVVB>&bCCCVVVB,ovCVVj&>NVVVVB>.e    ",
"     .<BVCfXXOgCVBVVVVVm:OX.iVVB>&bCCBCVVV<#vCVVb&>NVVVVB>.r    ",
"     .<BCCf..@vCVVVVVVCm=...2VVB>&mCVVCBVV,ovCVCn&:BVVVVV>.e    ",
"     .,VCCfo.@cCVVVVVVVm=.@.2VVB>*mCCCCCVV>ojCVVbO:BVVVVB>.r    ",
"     .>BCCl..oxVVVVVVVCm=...iCVB>*mCCBCBVB>&bCVCjO>VVVVVN:.t    ",
"     .:NCCx&@.fCVVVVVVVm=.@.2VVB>&bCCCCCVN-&nCVCc@<VVVVVM;.A    ",
"     .-MCCb&..sVVVVVVVVm=.@.pVVB>*nCCCCBVm*-NCVCz.pCVVVCm=.F    ",
"     .&bCCM=..1BVVVVVVVm=...2VVB>=nCBCVVCjO>BVVCd.dCVVVVb&.L    ",
"     3@xCVB>.@:BVVVVVVCn=...2VVB>&mCVVVVCz.pVVVVi.zCVVVCxoX     ",
"     6.fCVVp..*bVVVVVVCM=.@.2VVB>*bVVVVVCa.fCVVB>OjCVVVCfX#     ",
"     e.2VVVz@.&lCVVVVVCm=...2CVB>*nCVVVVB>&vCVCn*-MVVVVC2.4     ",
"      .:NVVb&+.2VVVVVVCm=.@.2CVB>&nCVVVVb*;NVVCxo1VVVCVN:.q     ",
"      +OvVVB,..-NVVVCCCm=...2VVB>*nCVVVVf.aVVVCa.dCVVVCb&.Z     ",
"      5.fCVCf.@.lVVVVCCm=.@.pCVB>=nCVVVB>&vVVVN:ObCVVVVkXX      ",
"      u.>NVVm=.+,BVVVVCm=.@.2VVB>&mVVVVj&:BVVCvo>VCVVVB1.$      ",
"       +&vVVV2..3xVVVVVm=...iVVV>*mCVVB2.fCVVVp.dCVVCCn*.0      ",
"       7.aVVVb*.+>NVVVVm=...1Mmn:*nCVVv&:NCVCn=*nVVVVCfXXH      ",
"        .=bVVV2.+.fVVVVm=...#===.=nCVN<.fCVVCf.2VVVVVB:.$       ",
"        4.sCVCn=..*jCCVm:&&&&&&&O:MCCdX,NVCCM-OhCVVVCzo.w       ",
"        D.=nCVCk#..:mCVVmbbbbnbnnnVCgO*jCVVVdX2VVVVVN,XX        ",
"         4.iVVCVp...,MVVVCCCCVCCCCCg=okVVVCj*OhVVVVVlXXq        ",
"         J.&xCVVM,.@.,nVVVVVVVVVCVz=XaBVVCB2XaVVVVVM:XX         ",
"          0.:mCCVm>...;xVVVVVVCCmpO+aBVVVCko;MVVVVVaXXe         ",
"           $.2BCVCm<+..o1xMBNMca-XOdBVVVCh*oxVVVVVzoXo          ",
"           Go+dVVVVNd*...@-:>=o.X:cCVVVVn;XaVVVVVb-XXF          ",
"            t.ofVVVVVbp=@.....&>kNCCVVCn>X1BVVVVm>XXq           ",
"             w.OfVVVVVVnzsiiafjBCCVVVCn>.,MCCVVM,XX8            ",
"              9.osBVVVVVVVVVVCVVCCCCVc-+1MCCVVn,X.4             ",
"               w.o<bCVVVVVVCVVVVVVCNdO@pMCVVVg;X.4              ",
"                ZX.=fmVCVVVVVVVCCNk:X-zCCCVna&..0               ",
"                 P4..-dvNVVVBBMjd:oX,ghclf2=..#S                ",
"                   u$..O:<ppi,-O.XXo*OoXX...#e                  ",
"                     D8$........XX@#$%4580eH                    ",
"                        GtqqetAJK                               "
};
