/* XPM */
static char *_01fd6d4c1224d4bee5b61ddde1b0b6erjKQN2YxVSAYPLpq[] = {
/* columns rows colors chars-per-pixel */
"64 64 223 2 ",
"   c None",
".  c #391F11",
"X  c #2F2216",
"o  c #2C251B",
"O  c #2B271A",
"+  c #342215",
"@  c #3C2415",
"#  c #342619",
"$  c #3C2619",
"%  c #332B1B",
"&  c #3A2C1C",
"*  c #35301B",
"=  c #39311C",
"-  c #2E2821",
";  c #35322C",
":  c #3A342A",
">  c #3D3C38",
",  c #372B21",
"<  c #432515",
"1  c #4A2514",
"2  c #462817",
"3  c #4A2916",
"4  c #442C1B",
"5  c #4B2C19",
"6  c #432718",
"7  c #552B16",
"8  c #5C2C17",
"9  c #542C19",
"0  c #5B2E19",
"q  c #512714",
"w  c #45331E",
"e  c #49381A",
"r  c #5D3217",
"t  c #54351C",
"y  c #5C331B",
"u  c #54391B",
"i  c #612F19",
"p  c #64321A",
"a  c #6C341A",
"s  c #6B3A1C",
"d  c #623B18",
"f  c #73361A",
"g  c #743A1B",
"h  c #7B3A1C",
"j  c #4D3122",
"k  c #4A3A25",
"l  c #4B3D29",
"z  c #423423",
"x  c #533524",
"c  c #573C23",
"v  c #423F3B",
"b  c #733C20",
"n  c #59461C",
"m  c #4C411A",
"M  c #68461B",
"N  c #73421A",
"B  c #7A441A",
"V  c #64551A",
"C  c #6C5918",
"Z  c #745517",
"A  c #79651C",
"S  c #4C4025",
"D  c #4D402B",
"F  c #534226",
"G  c #5D4B25",
"H  c #55432A",
"J  c #5A462D",
"K  c #5B4B2C",
"L  c #5B4323",
"P  c #454138",
"I  c #564D34",
"U  c #5E4D31",
"Y  c #524C3D",
"T  c #58523C",
"R  c #634221",
"E  c #644A23",
"W  c #614D2B",
"Q  c #6A4927",
"!  c #7B4022",
"~  c #774921",
"^  c #685728",
"/  c #735326",
"(  c #715A25",
")  c #755A2C",
"_  c #785428",
"`  c #624E32",
"'  c #645333",
"]  c #6B5A36",
"[  c #6C5A39",
"{  c #685536",
"}  c #745D38",
"|  c #796636",
" . c #76633C",
".. c #79653C",
"X. c #7A6836",
"o. c #6B633C",
"O. c #464542",
"+. c #4C4B45",
"@. c #4A4A49",
"#. c #484744",
"$. c #565448",
"%. c #514F48",
"&. c #645C45",
"*. c #6C6443",
"=. c #68654F",
"-. c #7C6B43",
";. c #7C6D48",
":. c #776442",
">. c #76765C",
",. c #766C53",
"<. c #833C1C",
"1. c #85421D",
"2. c #8C431C",
"3. c #834C1D",
"4. c #8A4B19",
"5. c #804F17",
"6. c #93441D",
"7. c #9A461E",
"8. c #964A1C",
"9. c #9C4A1C",
"0. c #87561A",
"q. c #985C19",
"w. c #A44C1D",
"e. c #AA4D1F",
"r. c #A2511B",
"t. c #A9581B",
"y. c #B8561E",
"u. c #BC5B1C",
"i. c #B4581B",
"p. c #8E6A15",
"a. c #976719",
"s. c #8A7519",
"d. c #9A791A",
"f. c #AA6418",
"g. c #B26D14",
"h. c #B57612",
"j. c #B4790F",
"k. c #824422",
"l. c #844921",
"z. c #895A23",
"x. c #9A5424",
"c. c #965622",
"v. c #A74C20",
"b. c #876725",
"n. c #936523",
"m. c #916929",
"M. c #8A752A",
"N. c #997327",
"B. c #836D3D",
"V. c #876932",
"C. c #8A7538",
"Z. c #957732",
"A. c #AB7428",
"S. c #C86D18",
"D. c #C27319",
"F. c #D97E16",
"G. c #D37514",
"H. c #826E43",
"J. c #827045",
"K. c #857348",
"L. c #8B764B",
"P. c #8E794D",
"I. c #8C7643",
"U. c #937D44",
"Y. c #927D4F",
"T. c #947E50",
"R. c #877A6D",
"E. c #A6891C",
"W. c #B6991D",
"Q. c #9A822A",
"!. c #9D883C",
"~. c #A98528",
"^. c #A9923D",
"/. c #B48E2A",
"(. c #BBA83E",
"). c #DB9A0D",
"_. c #C19F1F",
"`. c #E38A12",
"'. c #E49111",
"]. c #C3A21B",
"[. c #9A8549",
"{. c #86835B",
"}. c #958252",
"|. c #9C8653",
" X c #9E8854",
".X c #948C56",
"XX c #A28C4C",
"oX c #A08947",
"OX c #A69248",
"+X c #A18B56",
"@X c #A68F5A",
"#X c #AA945D",
"$X c #A99259",
"%X c #B69F57",
"&X c #B9A44F",
"*X c #898864",
"=X c #94946B",
"-X c #9D9B6B",
";X c #A99A64",
":X c #B39C63",
">X c #BDA669",
",X c #BBA366",
"<X c #A5A268",
"1X c #D2BA4A",
"2X c #C1AA5E",
"3X c #C7B349",
"4X c #C5AD64",
"5X c #C3AC6C",
"6X c #CAB26E",
"7X c #C9B564",
"8X c #D4BA67",
"9X c #CBB372",
"0X c #C9B679",
"qX c #D0B772",
"wX c #D4BB75",
"eX c #D7BD78",
"rX c #D8BF77",
"tX c #DCC84D",
"yX c #E5CA5E",
"uX c #DBC16A",
"iX c #E1C665",
"pX c #9B8F82",
"aX c #BDAE8C",
/* pixels */
"                                                                                                                                ",
"                                                                                                                                ",
"                                                                                                                                ",
"                                                                                                                                ",
"                                                                                                                                ",
"                                                                        5 4                                                     ",
"                                                                        B N                                                     ",
"                                                              $ 6 $ @ < 8.i.d                                                   ",
"                                                          < 9 0 p f g N S.S.4.                                                  ",
"                                                        2 i i <.w.e.6.f.'.`.g.                                                  ",
"                                                      6 i i f e.u.w.B S.'.'.).Z                                                 ",
"                                                      0 i f h v.y.2.t.F.G.D.).p.                                                ",
"                                                    6 8 a h h <.9.h f.F.`.i.D.a.                                                ",
"                                                    3 p f h h f s 8.i.u.S.D.S.q.                                                ",
"                                                    9 a a p 9 0 h 2.w.y.y.t.`.h.                                                ",
"                                                    q a 5 5 c b.m.N.a.4.v.9.y.f.n     #                                         ",
"                                                    7 p 5 Q ) ( G ( ~.].a.B p.p.^ K - ; : :           G ^                       ",
"                                                    8 8 5 Q E O O O O V W._.E.s.{ ] ; > O.T S         C.&X                      ",
"                                                  $ p p 9 y Z.~.n * * * m m O * [ U : P @.$.S     k [ J.3XQ.                    ",
"                                        n         1 p a y p g z.~.E.W.E.* ^ A F T D P +.+.T K K J -.K.;.OX(.                    ",
"                                        N.  o y 8.h 0 a a 8 h 9.8.l.n.E.% E.d.e % ; v @.+.U J.J.-.K.K.;.[.1X^                   ",
"                                        /._ p y g <.3 p f a 7 <.g.y.n.s.% E.3.r - ; O.$.%.[ K.K.K.K.K.K.[.tXQ.                  ",
"                                      5 _ ~ w.8.R s 1 9 p f a i 7.w.n.p.e E.4.  - ; > $.D ;.K.K.K.K.K.K.[.tXQ.                  ",
"                                    $ i <.<.B z./ Q < < 0 8 f a i 2.m.C V d.g   # , ; ; & [ K.K.K.K.K.K.oXtXX.                  ",
"                                    1 8 i B ~.A.) } t < 1 8 8 a 0 h n.V s.Z     $ x ,     l *.;.;.;.;.;..X7X|                   ",
"                                    @ 8 3 / K.XXF ) M 1 . 1 7 q 9 a m.C s.w     z x         O.+.$.%.$.@.>.-X                    ",
"                                    t 3 u B.9X4X' ` V.1 1 1 < q 1 a m.m.A       j j         v +.@.@.@.@.{.{.                    ",
"                                  F Q _ / +XeX XH.J b.Z q q . < 6 i ~ Z.L     $ x j         v @.@.@.@.$.-X$.                    ",
"                                  } ` c ' :X,XL.>X..J Z.M 1 < . + 0 t L #     & x           P @.@.@.@.>.{.                      ",
"                                H -.+X:X5X>X:.>XeX:X[ Q V./ c x k H G X       4 x         > @.@.@.O.=.*XI                       ",
"                                ' T.qXwXeX#XK.wX6XwX:X..J Q J k U %X^.        4 j     I +.#.#.@.P =.=X*.                        ",
"                                 .;XwXwXuX|.+XeX4X6XrX6X:XT.P.|.5XyXQ.        z c   I =X=.%.+.=.*X<X*.                          ",
"                              U  X>X:XrX8XB.,XrX7X5XeXeXrX5X5XeXiX1X(         x c   { -X=X=X-X<X.X'                             ",
"                              ] :XwXOX[.!.-.>XrXwXqXwXqX5XT.5XwX,XX.          x x     I &.*.o.U                                 ",
"                              [ :XwX8XQ.F -.$X:X#X@XL.K.:.K.T.P.J           $ c c                                               ",
"                              ] @X9XwX1XE E J.#XT.L.L.P.*.H.X.] (           & M                                                 ",
"                              U |.:XwX8XM.5.0.n.Z.C.U.:.R.aXeX-.b.s.        x R                                                 ",
"                              l K.+X5XuX!.2 d p.g.j.h._ pXaX0X[ B.OX)   X.e R R                                                 ",
"                                {  X:XqX4X[.| k e R N F &.,.&.H I.I.[.C.U.L Q                                                   ",
"                                k ;.5XwXwXrXwXP.k H ` ' J l J K W ..$XH.X.J c                                                   ",
"                                  U +XqXwX9X6XXXX.F ' { { J U H G X.[.H H | I.                                                  ",
"                                    :.,X9X#X5X2X%XK F J H c D D K W H K K  .oX                                                  ",
"                                      L.$X:X6X8X@XF & w & & = k D G F K B.XXC.                                                  ",
"                                      U L.>XwX|...F &     # % & : D n ) [.[.                                                    ",
"                                      z ..@X@X .H W         # % % w f.n.[.|                                                     ",
"                                        J } J : k c y       + # 5 3.A.f.W                                                       ",
"                                          & $ 7 s 8.8.      # 5 l.x.x.z.                                                        ",
"                                          7 a 9.r.r.4.    @ t p k.x.x.u                                                         ",
"                                        i f p r.r.8.d     3 y p ~ c.c.                                                          ",
"                                      9 f a g 8.r.4.    @ 9 9 g k.x.B                                                           ",
"                                    6 f a p 6.e.i.N     2 r 9 g ! l.M                                                           ",
"                                    9 f f p 2.8.2.      2 p 9 y ! k.u                                                           ",
"                                    p a f 6.e.e.h       3 9 t s ! ! y                                                           ",
"                                    a f g 7.7.9.s       9 p 9 y ~ ! 9                                                           ",
"                                    0 f f 1.6.7.p       2 p r p s y c y                                                         ",
"                                    6 8 a f g b g d     + 2 1 3 p ! k.l.N                                                       ",
"                                  $ 2 1 3 h 7.v.e.9.    + . . 2 y b k.k.k.t                                                     ",
"                                  2 0 3 8 f <.6.7.6.r   + 6 6 5 9 9 x p i 6                                                     ",
"                                    6 3 5 9 9 9 0 9 +     X + + + + + + X                                                       ",
"                                                                                                                                ",
"                                                                                                                                ",
"                                                                                                                                ",
"                                                                                                                                ",
"                                                                                                                                "
};
