/* XPM */
static char *_1677262714[] = {
/* columns rows colors chars-per-pixel */
"64 64 237 2 ",
"   c #010101",
".  c #0B0402",
"X  c #060806",
"o  c #090907",
"O  c #03040B",
"+  c #06090C",
"@  c #0A0A0B",
"#  c #0A060C",
"$  c #120401",
"%  c #140904",
"&  c #150B0B",
"*  c #0E100D",
"=  c #1D130C",
"-  c #11130F",
";  c #040312",
":  c #0B0C13",
">  c #0D0B1B",
",  c #06071A",
"<  c #110E1C",
"1  c #160B15",
"2  c #0D1217",
"3  c #131412",
"4  c #13131C",
"5  c #1B1C1C",
"6  c #1A1816",
"7  c #220B06",
"8  c #23150D",
"9  c #29180B",
"0  c #341C0C",
"q  c #371B08",
"w  c #240E13",
"e  c #231611",
"r  c #241A14",
"t  c #2C1D13",
"y  c #28191B",
"u  c #321E13",
"i  c #351E16",
"p  c #3D220E",
"a  c #2B221A",
"s  c #342114",
"d  c #382318",
"f  c #0D0C22",
"g  c #0A0623",
"h  c #141324",
"j  c #15132A",
"k  c #19162B",
"l  c #1C1B2C",
"z  c #191824",
"x  c #1D1A33",
"c  c #100F22",
"v  c #1D2127",
"b  c #25262A",
"n  c #372A26",
"m  c #36332B",
"M  c #2A2A34",
"N  c #282837",
"B  c #363738",
"V  c #2E3337",
"C  c #221425",
"Z  c #4B250C",
"A  c #48260F",
"S  c #55280D",
"D  c #442512",
"F  c #4B2710",
"G  c #432815",
"H  c #4C2A14",
"J  c #482A1A",
"K  c #552C12",
"L  c #592E17",
"P  c #4B351C",
"I  c #48341A",
"U  c #5B331A",
"Y  c #573417",
"T  c #6C3D1B",
"R  c #653517",
"E  c #723C1B",
"W  c #472C21",
"Q  c #4D3921",
"!  c #493427",
"~  c #533C24",
"^  c #593725",
"/  c #503D31",
"(  c #683C27",
")  c #723F20",
"_  c #3E403D",
"`  c #6C451C",
"'  c #75431D",
"]  c #46453C",
"[  c #584637",
"{  c #5C4C35",
"}  c #69462B",
"|  c #744423",
" . c #7C4926",
".. c #7C4B2A",
"X. c #774826",
"o. c #6F4D35",
"O. c #363642",
"+. c #39384A",
"@. c #2A2941",
"#. c #423D42",
"$. c #413F54",
"%. c #3F4247",
"&. c #434443",
"*. c #464944",
"=. c #4A4C46",
"-. c #44464A",
";. c #46494A",
":. c #4A4B4B",
">. c #4B4446",
",. c #564E45",
"<. c #4D514C",
"1. c #52544D",
"2. c #5E5A4D",
"3. c #585447",
"4. c #4C4D53",
"5. c #484857",
"6. c #534D53",
"7. c #4E5355",
"8. c #4E535A",
"9. c #4B5652",
"0. c #525454",
"q. c #595555",
"w. c #565955",
"e. c #5A5C56",
"r. c #54555B",
"t. c #59565B",
"y. c #55595C",
"u. c #5B5C5C",
"i. c #675A48",
"p. c #625C57",
"a. c #795D47",
"s. c #5D615C",
"d. c #5B6358",
"f. c #61645D",
"g. c #6A6B5D",
"h. c #656659",
"j. c #736B58",
"k. c #696249",
"l. c #545462",
"z. c #5A5762",
"x. c #565C62",
"c. c #5B5C62",
"v. c #5D5D69",
"b. c #635D66",
"n. c #5D6164",
"m. c #626464",
"M. c #656A64",
"N. c #6A6C65",
"B. c #64646A",
"V. c #69666A",
"C. c #666A6B",
"Z. c #6A6C6C",
"A. c #6D7266",
"S. c #6E716B",
"D. c #69756B",
"F. c #72746D",
"G. c #73796C",
"H. c #797C6D",
"J. c #767566",
"K. c #6C6D73",
"L. c #686773",
"P. c #706E72",
"I. c #726F78",
"U. c #6E7174",
"Y. c #6E7775",
"T. c #727374",
"R. c #767A73",
"E. c #7A7D74",
"W. c #74747A",
"Q. c #76797C",
"!. c #7B7C7B",
"~. c #787677",
"^. c #824C2A",
"/. c #864A25",
"(. c #8A512A",
"). c #9B582B",
"_. c #865535",
"`. c #995B35",
"'. c #844D31",
"]. c #A15F31",
"[. c #9C643B",
"{. c #9A6237",
"}. c #8D6036",
"|. c #A36233",
" X c #A4643C",
".X c #AA6838",
"XX c #B26C39",
"oX c #B4723D",
"OX c #BB743C",
"+X c #BD783F",
"@X c #A6602F",
"#X c #876245",
"$X c #986C49",
"%X c #AC6B41",
"&X c #A46A44",
"*X c #A97247",
"=X c #B37343",
"-X c #BA7541",
";X c #BD7A42",
":X c #B4754B",
">X c #BB7B4A",
",X c #B67847",
"<X c #AF7955",
"1X c #827E76",
"2X c #837567",
"3X c #C47E4A",
"4X c #C27A43",
"5X c #758176",
"6X c #7D8175",
"7X c #7E827B",
"8X c #77837B",
"9X c #7B806A",
"0X c #828476",
"qX c #82847C",
"wX c #85897D",
"eX c #878879",
"rX c #81846F",
"tX c #BD8355",
"yX c #C7824D",
"uX c #C58150",
"iX c #7D7D83",
"pX c #7F7F8A",
"aX c #777781",
"sX c #7F8084",
"dX c #7D8A80",
"fX c #828385",
"gX c #868A82",
"hX c #898D84",
"jX c #84848A",
"kX c #87888C",
"lX c #898B8C",
"zX c #8A9185",
"xX c #929389",
"cX c #8B8B92",
"vX c #868691",
"bX c #959697",
"nX c #8E9293",
/* pixels */
"K.I.K.I.W.T.T.K.4.B.m.z.c.c.y.c.n.d.B.aXU.L.T.I.K.W.Z.Z.G.D.9X9XD.D.R.F.N.s.bXkXfXfXkXkX!.fXkXP.T.L.K.K.K.T.U.T.B.iXcXcXcXcXnXcX",
"K.K.L.L.L.K.L.Z.7.c.v.y.c.c.z.y.c.8.n.Y.L.L.K.K.L.T.M.gXzXzX7XwXwX8XlX7XgXR.u.fXkXiXfXkXfXjX!.c.K.T.U.U.U.K.K.T.B.!.jXkXjXjXjXpX",
"I.I.U.U.K.T.K.K.4.y.y.r.y.y.r.y.y.0.v.Z.K.Z.L.L.K.T.u.fX7X7X9XqXwX7XR.N.R.Q.&.kXkXiXiXjXjXkXQ.t.K.K.K.K.K.K.Z.I.B.!.jXjXiXiXjXiX",
"L.B.B.B.B.B.m.c.;.r.r.6.t.r.r.c.u.0.m.Z.L.K.K.B.P.T.u.7X6XE.G.6X9X5XN.A.m.Z.0.Z.iXiXaXaXaXpXW.v.B.B.Z.Z.B.Z.K.Z.c.T.jXjXjXkXvXjX",
"K.K.K.K.K.K.L.C.;.0.0.4.4.-.-.r.6.:.0.z.r.x.x.9.0.y.y.F.7XE.1X0X0X7XZ.F.C.p.L.B.y.B.c.4.8.l.z.6.r.r.r.0.r.y.y.r.4.Z.iXjXjXjXkXiX",
"vXvXvXvXvXvXjXjXvXcXcXkXkXQ.P.sX~.I.Q.Q.~.aXQ.n.!.fXS.G.!.H.E.N.0XE.F.M.Z.u.n.~.T.sXT.v.B.W.W.Q.Q.!.W.T.Q.W.aXW.y.K.kXkXjXjXfXiX",
"sXsXsXpXjXjXpXpXjXjXjXkXkXU.b.N.Z.V.Z.K.C.K.n.x.B.C.<.d.F.1XwX1XG.R.G.F.E.1.9.Z.K.I.c.y.B.K.C.K.m.Z.Z.Z.V.K.K.K.n.W.jXkXfXkXkXfX",
"jXsXsXvXjXjXpXpXsXiX!.kXkXZ.w.u.T.Z.U.Y.D.Y.Y.d.Y.S.<.n.Z.E.S.g.E.eXJ.6XS.1.T.!.T.Z.0.t.!.Q.Z.T.u.Z.T.T.K.T.Q.T.v.T.iXiXaXiXjXjX",
"iXiXiXfXjXjXpXpXaXQ.K.!.nXq.m.T.C.R.r.n.9.n.D.dX8XY.d.=.Z.R.F.S.H.E.H.E.g.1.7X7X!.!.qXw.<.S.Z.E.qXu.M.N.Q.V.K.V.4.K.fXpXaXfXkXkX",
"kXjXjXjXjXjXpXiXT.C.W.fXkXZ.!.qXD.d.w.d.8X5X5X5XD.D.d.=.A.E.!.R.H.9X9X6XA.h.qX6XN.F.!.qXf.1.S.lXlXwXZ.:.u.r.r.C.l.W.vXjXfXjXkXfX",
"jXfXfXpXpXjXpXpXpXiXcXT.T.~.fXR.7Xn.M.d.7X6X7X9XG.G.M.1.F.6XgX7X0X6XH.G.N.G.R.G.F.F.T.A.e.A.lXgXqXqXR.m.T.Z.C.W.z.I.jXjXiXfXiXiX",
"iXfXpXjXjXcXvXjXjXnXjXZ.!.E.G.R.5XR.5XM.g.8X6X9XeXH.g.3.h.Z.T.G.6XJ.A.N.e.F.G.7XE.S.G.h.f.0XeXgXhX!.!.!.f.r.c.K.B.W.jXcXkXkXjXkX",
"C.B.B.C.L.L.L.L.B.L.y.m.7XS.R.6XG.R.R.N.,.J.J.2Xj.,.! m B m m m m m B B a B &.N.T.R.S.d.A.gX0XeXqX0XhXfXu.0.n.aXc.L.W.aXW.Q.T.T.",
"0.4.4.4.8.8.4.;.y.c.:.0.u.f.gXS.6XG.6XH.h.h.i.i.! a 8 = = . .   +         X X z B f.w.M.hXhXgX6X6XwXE.u.n.0.:.y.r.z.v.B.B.c.c.y.",
"m.b.c.v.z.z.l.r.I.Q.B.y.<.f.7XS.G.F.0X1XJ.[ ! 0 W s s t t % .   3 X     X         6 V E.bXF.G.wX0XG.f.=.K.~.U.U.K.K.K.U.K.K.Z.Z.",
"y.u.y.t.z.z.r.r.K.K.Z.s.f.d.w.E.F.E.J.j.[ Q [ ~ J p d t 8 . .       X   O   X   X   . B h.E.!.7XR.e.N.M.!.U.T.L.I.K.I.K.T.I.T.W.",
"p.t.c.c.8.z.x.6.p.m.0.D.5X8XN.e.G.J.i.[ { #X} U K D 0 s 9 . . .                         b p.R.f.w.G.fXR.w.f.V.K.U.K.T.W.I.L.K.K.",
"p.q.y.c.r.c.b.6.6.u.9.G.dX8XT.1.p.i.{ { o.$X} R K Z 0 s 9 . .                             5 &.1.R.0X1XhXZ.1.T.7XT.T.T.T.U.K.K.U.",
"b.6.t.y.z.b.z.#.b.s.D.5XR.G.6Xj.[ ~ } o.$X$X..T K F 0 t r . .                         X     b e.6XgXfXqX!.f.R.m.K.Z.Z.Z.K.K.K.K.",
"b.t.c.x.8.z.6.#.0.&.R.5X5X6XE.2X^ ..$X[.&X[.(.T L J p d r % .                         X     . M T.E.hXqXqXZ.w.C.T.K.K.L.K.U.I.I.",
"t.y.n.n.8.8.6.#.q.:.f.g.J.1X2Xi...{.tX@X*X{.(.R R H i d r @ .                     X             *.G.gXS.M.m.=.N.T.R.W.K.K.W.W.K.",
"r.8.x.x.8.4.q.4.V.!.M.s.h.j.2X{ {.XX4X@XXX{./.R U H i i r & .                             o X   3 h.A.M.f.Z.u.1.u.m.C.b.c.B.B.n.",
"z.r.x.x.r.y.b.6.V.qX5X9X9Xj.k.#X=XOX4XXXOX|./.E Y J u i e % . .                                 @ m w.E.7XT.N.e.;.u.B.u.y.v.n.c.",
"B.l.l.x.r.b.z.6.iXD.9XJ.J.j.! tXoX4XyXXXoX.X/.R L J u y = % .                   X     X           o M.G.N.E.E.Z.0.N.R.K.Z.U.W.T.",
"l.8.x.x.7.r.m.,.W.R.G.A.9Xa.} <X,X;X3X@X>X X .L H J t y r % . .                                   @ f.G.Z.F.0XG.<.N.R.C.I.V.U.L.",
"v.l.l.n.u.m.u.B Q.T.G.A.j.{ } tXoX=X3X|.:X X..U K J i t 9 o $ . .                               X o =.G.F.R.R.R.&.f.T.F.T.T.W.K.",
"5.%.%.%.B >.0.#.s.d.d.d.{ Q } tX X=X>X).:X$X'.U L W d a a = % .                                     6 e.e.f.1.e.] 1.w.y.:.c.m.c.",
"L.B.K.n.:.M.qXxXlXdXdXeXk.I | *X|.%X>X|.=X&X_.( ^ J d n a a = .                                 X   3 u.R.!.G.qXhXlX7XZ.-.m.C.c.",
"aXaXW.M.w.Z.F.~.Y.D.5X5Xk.P X.:X XoXyX].=X&X(.R ^ J t a a a 6                                       * w.0X7XqXgX1XE.G.Z.*.K.T.K.",
"v.L.Z.C.f.eX1X!.Y.D.D.D.{ I X.:X.X-XyX@X,X.X(.R ^ p t a v a 5                                     X 3 e.7XT.!.6XE.R.R.M.&.Z.K.L.",
"aXaXW.S.f.wX~.!.!.8XY.9Xk.Y ..,XoX-X3X@X-X|./.R U G s a 5 5 5 X                                     @ N.0XR.0XwX7XE.!.V.=.T.W.iX",
"l.x.c.u.q.wXF.1XdXkX5XD.k.Y  .,XoX-X3X.X,X|./.L Y p s a = 3 5 X                                   + @ R.!.T.R.0XE.E.qXs.&.c.y.y.",
"B.B.B.V.r.Q.R.!.6XG.5XG.3.[ ..,XoX4XyX|.%X`.^.U I d s e = - :                                       X S.wXfXE.H.E.E.R.M._ Z.T.U.",
"U.K.P.S.8.K.C.D.g.g.5X5X3.Q ' =XOX;XyX|.%X`. .K H p t a y 6 -                                     O 3 F.!.F.A.E.S.N.M.s.*.S.T.N.",
"U.U.T.I.0.n.n.M.g.d.g.D.3.~  .oX;X;X3X].%X`. .K F p t e r 6 3 .                                 X   X e.F.M.M.h.N.f.q.1.;.I.R.K.",
"U.K.V.C.;.4.-.*.] ] ] 3.] P | ,X+XOX>X).%X`...K G 0 8 8 = 6 1 o                                   @ 3 *.1.=.w.<.*.*.] %.*.Z.Q.aX",
"8.7.4.y.4.8.y.<.0XeXzX6Xq.I ` oX;XOXOX).%X&X..S F 0 7 = = r 3 .                                     @ 1.7XhXhXF.] e.u.q.4.r.8.4.",
"aXaXT.Q.U.W.Y.d.eXxXzX6Xk.Q ' >X;XOXOX).XX[...S Z p 0 t r r & .                                   X 3 N.fXR.F.S.:.!.gXjXkXjXpXpX",
"U.K.V.Z.K.U.Y.<.eXzX7XS.2.P ` oX+XOXOX).*X[. .Z Z p s s r e & .                                     X F.hX7XF.Z.:.7XkXiXjXpXpXpX",
"U.I.K.V.C.K.C.] g.0XwXR.p.P ` oX+XOXOX).oX.X/.S Z p s s 8 = % .                                   X - S.E.R.F.R.=.fXfX!.vXvXvXpX",
"K.U.P.!.W.V.Z.7.A.H.qXR.2.P ' tXOXOXyX@X=X&X'.S F D 0 t 8 % . . .                                   6 m.E.N.M.S.:.fXfX!.jXiXpXpX",
"Y.L.u.V.C.B.n.=.A.H.6XF.2.Q ` oX+X+X4X|.:X%X^.R K G 0 t 8 % . .                                     * f.R.N.m.f.*.qXfXkXkXcXpXpX",
"aXaXY.Q.U.K.C.<.g.A.D.g.2.~  .,X+XOXOX|.:X X^.L F G 0 9 8 % $ .                                   X 3 e.F.N.h.s.*.qXfXfXiXjXpXvX",
"L.n.n.K.K.Q.C.=.k.d.d.1.] I ' =XOXOX-X).%X`. .S H G 0 t 8 $ $ . .                                   - <.s.u.f.f.=.T.fXlXfXcXjXpX",
"U.W.Q.V.%.-.9.<.3.3.1.<.] I | ,XXX:X3X`. X`.) S F D u i 8 $ .                                     X * =.e.1.1.1.<.e.:.:.:.!.jXkX",
"r.0.6.t.y.lXnXlXxXxXzX8Xk.~ ' =X-X3X3X). X`.^.L D G d i 8 $ . .                                     - f.gXhXhXhXT.qXR.N.-.C.c.y.",
"W.U.I.Z.x.sXQ.D.6XH.6XR.e.Q ' ,X%X-X3X).`.'.) K A G u i 8 . .   .                               O   * m.E.Z.N.S.E.hXqXS.B b.m.Z.",
"L.U.T.Z.0.8XQ.6XqX6XR.F.2.I T :X-X-X=X/.)./.( S D G s t = . . .                                     3 N.R.s.g.0XwXwXE.Z.] S.Z.N.",
"L.aXI.L.e.6XG.rX0X5XT.G.2.I X.*X XXX4X/.`.'.E Z F q 9 t 8 .                                         X g.eXg.9XG.7XqXE.N.&.S.G.N.",
"L.K.U.C.d.wX9XrX0X6XT.F.3.P X.*X].%X%X/./. .E Z q p d 7 .                                           - G.zXJ.6X0XG.H.E.N.&.m.G.T.",
"L.v.v.n.w.7XH.J.6XR.U.Z.3.Q X.[.). X%XE  .E ( F q d t $ .                                           - N.hX6XH.H.gXR.N.m.:.m.u.w.",
"z.x.x.x.w.6X0X1XE.R.D.C.{ Q ..[./.`.].E E ( L J d 9 $ .                                         O   3 e.7XwXE.E.gX!.U.c.*.u.u.q.",
"z.v.v.8.9.n.N.M.e.u.y.u.{ P X.[./.).`.R ( ( ^ W i $ .   .     O   X .   O   .       .   X   .   O O 5 &.w.s.u.f.N.n.y.-.-.K.!.!.",
"z.v.n.8.%.;.=.&.e.u.n.f.<.I ` [./.'.'.R ( ( ! i $ . . . . + . X o o o X o o X X X o X o o o X X O O 6 *.w.s.e.e.&.] +.B -.K.T.v.",
"r.r.r.x.y.8.w.,.E.1XsX7Xk.P ` {./.) '.L ( ! d & . . @ @ . # @ o @ @ @ @ # o o o o o @ @ o # o # : + 5 m.wXgXqX7X=.u.T.L.L.T.K.K.",
"b.u.r.l.n.8.e.=.V.T.6X5Xk.Q ` [. .'.( L ^ W 8 . @ # # @ + o o & @ @ # o + . + +     O X +   O   +   4 Z.qXF.N.S.:.u.K.K.T.W.U.T.",
"0.9.x.n.8.r.t.,.1XT.R.F.i.I ` }...) ( ^ d 7 . @ X : : + o . . . @ O +   # o :   # + # : # O + :   6 3 N.qXG.E.F.*.C.C.K.iXI.Z.K.",
"e.u.8.8.y.b.t.&.!.F.R.R.p.I ` _.( o.( W 7 % & o 2   X 2     * & #   z aXjXK.r.Z.aXT.K.U.U.T.T.W.c.0.b M.!.G.G.S.<.Z.L.B.Z.K.K.K.",
"e.s.x.n.B.n.w.,.1XT.R.T.k.I } a.( ( ^ 7 $ $ 1 o X 2   O 4   & fXbXjXjXvXvXaXT.aXI.L.B.K.T.aXW.W.y.7.b s.T.G.!.7X0.m.Q.W.I.I.K.T.",
"b b v v b z m q.E.N.D.M.] m o.a./ W 7 $ $ $ # # : O 2 M V M B M V N O.M O.N b l M N M V V N M N b b y u.E.R.E.7X<.M b M N b b O.",
"o : c k z , 5 ] Y.D.D.D.w.m [ a.d w $ $ * : + 2 ; 2 c 2 > 4 < < > < O h , h > l : > < < , O ; , O O 4 4.!.iX!.!.4.> ; ; , f ; ; ",
"< M %.l.l.5.%.] 9.9.%.%.*.a y i w 1 1 1 1 < 2 2 l 2 c l l j h k > x k c h l h h k k k j h h N O.+.O.O.;.y.y.t.c.5.+.+.5.5.$.N > ",
"g x @.+.+.+.%._ V _ %.V +.w w w 1 C C 4 < h z z h j j f g j x f k k j , x > h k g f f j h k N +.+.+.+.B B B B :.O.+.+.$.+.@.N f ",
"k j j j , ; 2 + X 2 + ; z # 1 w C C < < h h c h c l c c x j g x g k h j k x f h j h j k j f g g > > c ; , 6 > > , > ; g g g j j "
};
