/* XPM */
static char *df5959342b2742efda600b653f6062c3Z4K1sLV6qW2UORd6[] = {
/* columns rows colors chars-per-pixel */
"64 64 143 2 ",
"   c #01010E",
".  c #050412",
"X  c #080715",
"o  c #0B0A17",
"O  c #07051A",
"+  c #09071C",
"@  c #0D0C1C",
"#  c #100F1F",
"$  c #12121D",
"%  c #0E0C21",
"&  c #100F23",
"*  c #141225",
"=  c #181727",
"-  c #1A1A24",
";  c #151329",
":  c #18172A",
">  c #1B1B2B",
",  c #1F1D32",
"<  c #201F2D",
"1  c #22222C",
"2  c #262532",
"3  c #2A2A36",
"4  c #272639",
"5  c #2D2C3A",
"6  c #302F3D",
"7  c #303135",
"8  c #33333D",
"9  c #3B3C3E",
"0  c #302F41",
"q  c #343344",
"w  c #383746",
"e  c #3C3D43",
"r  c #38364B",
"t  c #3B3A4C",
"y  c #3F4045",
"u  c #414245",
"i  c #44454A",
"p  c #47484D",
"a  c #494A4E",
"s  c #444353",
"d  c #4C4D52",
"f  c #474658",
"g  c #4E4D5B",
"h  c #4F5055",
"j  c #515256",
"k  c #54555A",
"l  c #57585C",
"z  c #595A5E",
"x  c #5C5D62",
"c  c #5F6065",
"v  c #616266",
"b  c #64656A",
"n  c #67686D",
"m  c #696A6E",
"M  c #676674",
"N  c #6C6D72",
"B  c #6D6C7A",
"V  c #6F7075",
"C  c #717276",
"Z  c #75767B",
"A  c #75767A",
"S  c #76777B",
"D  c #74757A",
"F  c #72727C",
"G  c #74747C",
"H  c #75757D",
"J  c #76777C",
"K  c #74747E",
"L  c #77777F",
"P  c #76767E",
"I  c #727379",
"U  c #77787C",
"Y  c #77787D",
"T  c #78797E",
"R  c #797A7F",
"E  c #7A7B7F",
"W  c #767683",
"Q  c #787880",
"!  c #7A7B80",
"~  c #787882",
"^  c #7B7B83",
"/  c #7B7C80",
"(  c #7B7C81",
")  c #7C7D81",
"_  c #7C7D82",
"`  c #7D7E83",
"'  c #7D7E82",
"]  c #7E7F83",
"[  c #7B7B85",
"{  c #7D7D85",
"}  c #7E7F84",
"|  c #7D7D87",
" . c #7F7F87",
".. c #7F8085",
"X. c #7F8084",
"o. c #808185",
"O. c #808186",
"+. c #818286",
"@. c #818287",
"#. c #828387",
"$. c #848587",
"%. c #808088",
"&. c #828388",
"*. c #83838B",
"=. c #838488",
"-. c #838489",
";. c #848589",
":. c #84858A",
">. c #85868A",
",. c #85868B",
"<. c #86878B",
"1. c #85858D",
"2. c #86878C",
"3. c #85858F",
"4. c #87878F",
"5. c #86868E",
"6. c #87888C",
"7. c #87888D",
"8. c #88898D",
"9. c #88898E",
"0. c #898A8E",
"q. c #898A8F",
"w. c #8A8B8F",
"e. c #878791",
"r. c #898991",
"t. c #8A8B90",
"y. c #888892",
"u. c #898993",
"i. c #8B8B93",
"p. c #8B8C90",
"a. c #8B8C91",
"s. c #8C8D91",
"d. c #8C8D92",
"f. c #8D8E92",
"g. c #8D8E93",
"h. c #8A8A94",
"j. c #8B8B95",
"k. c #8E8F94",
"l. c #8E8E98",
"z. c #919296",
"x. c #919297",
"c. c #96979C",
"v. c #97989D",
/* pixels */
"V N N C D C C N d v v x x x x x c x M D C N C V V X.n c N J I N C D F V J m c.........c.......I V V V N N V V V n X.v...v.v...v.",
"N N N N N N N n h v c l x x k x x k c C N N V N m D n z n F V N m N n c n x ..................c C V N V V V C I c X.............",
"C C N V V V N N d l l k k k h x k k c m m m N m m C c z b N m N D V V n N b k.................z N V N m N N C C v ..............",
"n b v b b b c x p k k h l k k x z k c n n m N b m F c c n N m V m x b c b x J J ..............v n n m n m m M N z C ............",
"V N N N N N m n d h h h k a i k h y z k k k c y z c k y c x k x b j b x b z n b z c z y y k x y k j y x k l y x g C ....v.......",
"7.7.,.,.7.7.-.&.7.p.7.p.e.C N | D V X.X.F X.X.b F ..D C X...D ..V z F V D N V V I ..C c C V X.X.C X.C X.W ..X...l ..........c...",
"&.&...O.-.-.&.} 7.-...7.-.m c C N n N N n N m l b N m m m m b V V j I N I N N V n I b k M V n V m n N n b m N N c X...v.........",
"&.....&.-.-.O....._ | 7.1.N c D C N C C N C V x m N N C F V m C J l J N D V N D n X.m x C X.m m C C C C V C I I x N ............",
"........-.,.....Y D V _ g.x x c b m c b m b m j c m c c V c n N b j c F n c n n b b z k c N N B M N b b V N b V y V ........v...",
"7.,.-.-.-.,...| V V D _ 7.l c m c c j x b c m y y c k z c l c x l y h b b y y x k x z y z x l z y k l k c k j x k X.............",
"-.-...-.-.-....._ ......-.k c N V C c b C C C x c X.C C J C D V I V V J X.b x n k x x z c x z x x N I X.I n n X.z N ............",
"......-.7.7.,.,.,.p.7.-.9.c V D F D c m D D J c h M c c n c N c n V n n I c y x k x x x v c z v y v V V N x x C v X.....v.....c.",
"b b b b n m m b c n c x V k c c c c j l c c b j z N c z c c m c c n c c n l y z y z k k k y y x j c n n b l z V z n N X...X.V C ",
"k h h h h d d p l l d p c h x d c b x c n b m x z c h j c c c c c c c b c l l n k c x z x k y j y h d j k h h z k l c b b x x z ",
"c c x x x x k k D ~ m c ~ m N c n J V J J C X.m D X.c X.g.............c.........x M N V N z y x c c x b I I N C N N V V N N m N ",
"x l l l l l k k m V n c Y m D n c C m F C m F N V m l F c...........x.......c...z n V Z I x z c k k d x I X.N M V V N B C N N X.",
"x l x x h k x h c x x c c M c k c c M m c n N c c c c c C ......X.......X.X.V X.x b V b V v y k k j y n V b N N N N C X.M m n V ",
"l k l x k x x d j k h h k x k a k l x k a h x l V C n N C C c h b m m N v b b b d f l l z z y h j d y b V N X.V V V C I N N V V ",
"x k l x x x x y c c c x x c c l k k x c x N ..9.............C z m N N V N N N N c d x x z b x v x k d b V N C n N N N n N V N N ",
"c l x x g k h y h k x k h j k k x k x k d c ....g.......g.d.X.c N N M N V V V V v y k l d l k k c c d b V N I n V V N n N V V V ",
"z l c x h h h y j x c c c c c c c c c c k c ..j.....X.Y ....N c V N N N V V C C N k c v x b c z k k y b V V X.n N X.C N N I C N ",
"j j x x j j j d y y d d p d d d y 8 y y y j c V N N M N V C c k c v c x x c b n d e a a y g p d h j y j x x b x z b n c c b b c ",
"l l x z g l x h l c c c c c c c c c c c c c c c k z z k l z k y d d h f y a d k l h l k z z k v c b k x x k c j y c x x l x c x ",
"c x z x z c c d C D D C C D D C I c n D N C D I X.I c z g l z c x c v x k h x n c c c k x c h V C ..N V V N X.M k N X.C n n X.C ",
"l g c z l c x d m I N V T D m m m c c Z N N N m m m c h l c l g l l x x d k l k z k z k z x h m C N b b N N N N k n C N n n n b ",
"x j z x k x x d c C N m D I N T N c m X.D C W I X.X.n h k z k l l k x z d k l k c x c l z c k N X.V B X.X.V V V k n C B C X.X.C ",
"d i p i y p d y d x x j l k k c l h k c c c c l d l d y y y d y p e p p e e p y a y y y y y y h l l x v l k k l y d k k k z z k ",
"b b b c x c b c c b c c c l h h k y h k h k l h y c c c n m n n b x c b c c n v v x v h z v l M c x c b c k k z z b N n b n b c ",
"D V D V c m F V V F C N D N l k c k l c k l c h l C X.D X.D N N ..n n V C C X.m V m N x n V b X.X.N N V N c c m n X.X.C C V B N ",
"m m V c k c m b b m c m Y C c k c l l c k c c k k N C m N N n n M x x b m m m n n b b k c N b V V N N X.m x b X.b n b b N N N m ",
"I I T V c c D C c m c m C m x g c c c c g c c l c C C M C D D X...c b X.V X.X.V I V N z b X.N X.B N N X.B x x X.V V C X.C X.X.I ",
"l l c l p d l k c c c l x d y y y y y a y h k y y l l h z c k h c i p l l l z k z k h e y g d z z l x v c d y v z k k k k z l l ",
"c b b b b b b c c b c g b V m b v n c n x x N u n N n N v d x N x h ......................X.z h z z h k k d k l e k n n n N V N ",
"I V V V I V I V D D c x N Q C C N N C R V C H j N V n I m l N T b x ........................m z c x l x c c c x g b X.C N N N n ",
"I I I C I I I I Y V l j b D N m N N N H V N N d V H N G N x N C z k ..........................f k k k k l l k h h b X.C n X...V ",
"m m m m m b m m V m x x V Y C V N H N C C N N k b N v m b k n n c z ........................V k x x b z l c l x d z c n n n X.V ",
"g j j j h j j j d d y y j k d h l x d d l k k p i d u d j i l l d e b v ..n m m b c b l x b d y i i g i i h x b h x c n g k k j ",
"E T Y D I Y Q Y z c b n V c x b n N z x N N N N N D N C V m I N n g X.m ..C V V m n X.x b C b b x x X.c c ......................",
"V N m m m V V V l n V D V c x V n C l x C N C I V I n N n c n x c h V b N b N m b b N x x V m X.c z X.c N ......................",
"V V V N m m V I h b V D N x c ! V ^ x v T N N C N C n N I V R V b k V b X.N N X.V n X.c c ..N ..b z X.l X.......................",
"V N V F I V N I d h l x h d h l x b a d x l x x z z l b j b n n k p c n b m c b x b c k c x x x p p c x C ......................",
"V m m m m c c m d x D ..| D D Y D H l l x x v c c x x b d N T I ..N X.X.....b m ..................X...N X.......................",
"D C V C V N N V l V ,.7.-.7.t.p.p.p.N N H C ^ ^ T I C S l { z.:.............V ..........................n ....C ..............v.",
"V m m m N N N V d N .._ Y _ -...` ..b v N b n n V b n N a G i.E ......C ....b ........................b c X.m b ................",
"V N N N V I C m p m 7.g.p.p.q...1.7.V N D N m b m m N I z $.z.$.............b ..........................C ..............v.......",
"k x k j j j d y e k b c c c c x x c d k c z x k k x k x d c c v b X.m c N b i z b c g k n C z l b x x p i g j b l z x z N b v m ",
"C F C V V C c x C C N n c b N V x b k x N n V N m I v m v v h v ..................V b m C V N N N x b c l l l V n n n m n n N n ",
"m N V N V D c k N N V D D N N V D Y c b V N N N N / v C S V z ' ....................b m N N N N X.c N X.V b l V N N N N N N N N ",
"M C F N N C n j V V N N ~ b H N b C x v C V V b V C V V C m b V $.A $.U A $.$.$.$.E z n b A v N b n m N m z z V V m n m m m V V ",
"m V V M N V n l V V B N ^ n W N V C z x V V T I V I V V A n b V $.U $.$.$.$.$.$.$.$.m V C $.C E C X.C C V z x C A C V A A A A C ",
"c c c c v b c k c c x x m k n x c v a d j k x d z c x x c k j z m z m m z m v v x x a a a z j l z x l k l a a l j j l l z z j l ",
"x x x k l x z j x z l z b j B C A T C S G C V j c b b c n v x b v l v v z m z z v v a a j z j l h k j j j a a z a j l l z z c z ",
"x x z z z x x z l z z z c a U 8.' $.$.z.f.f.f.b n C C V A C V U A z V V m A V A m C v j z x x x k x z l x z l b j v m A C A A A ",
"l l z l l z z z j k l k l i I w.+.X.X.>.E X.6.x v V N n V C N C V l m m m V m A m m b a l j k k l x l l z l j c a v m m m m m m ",
"k k k l l j k l v c z z v a I $.f.6.$.6.U X.f.x v V V b N V m V m z m A V V m m V A V a z k x l j x l j z z z c 9 z m V m m m m ",
"z z z z z l l z c j d h z y x n v x v n z n S u k b v z x c z c v a z m v v l z j j j 7 y 8 y e 9 p u u a a a j 9 z V V V V A V ",
"k l z l l l z x v u a v l j N $.{ T m c v C C b V { *.{ T { %.E $.U U $.$.C v m c c c b c c x b k h h l k h x V m m m m A A V m ",
"l l z z z z k j u 7 9 l h j A 8. .[ C v b B B v C %.1.| ^ %.*.{ $.$.$.$.$.m z m | D V V D V C D x j l x l k c Y z v m m m V m m ",
"c x z z v b v x N z c b z c A $.i.i.{ F G { ~ B { i.l.4.1.i.i.4.$.$.$.$.$.A V A C m b N C I C C x x x x x x b Y m C A m V m A A ",
"1 1 < 1 1 1 1 1 1 - - $ $ 1 7 9 5 4 2 < 2 4 3 < 2 5 6 3 3 6 6 5 9 7 7 7 7 7 1 7 3 3 3 6 6 5 3 3 < > 2 2 2 > 2 6 7 7 7 7 7 7 7 7 ",
"  o - - = $ # # - - * * 1 - #   # # @ # & * = & @ & & # @ & # # # $ # # - $ $ - o o # # o   . o . . o @ O . . o . . . % $ $ o o ",
"- 3 i g g d s d W Q B m N d < # ; ; & * * = ; & & ; * = ; * ; * & = & # - - $ - : = : = & * 4 r q r t t r q q 0 t t t y i 9 7 $ ",
"@ = 5 w w w w w s f s s g 6 $ * ; ; ; ; ; & ; & : ; * ; ; ; * ; & = ; & ; = $ $ & % & * * : 4 q r t t t r r r r t t t y y 0 - $ ",
"= = * @ @ @ @ # o # . O = @ . < ; ; & & ; ; ; ; ; ; & ; ; ; ; ; % ; * * ; = & - ; & * : ; % % % + % % % % % & % % % + + % # $ - "
};
