/* XPM */
static char *_f19c9fc37464402e340ebe7960ac9adouKko1wCoZsatVwQ[] = {
/* columns rows colors chars-per-pixel */
"64 64 107 2 ",
"   c #271600",
".  c #3E2C14",
"X  c #402C14",
"o  c #43321B",
"O  c #49361E",
"+  c #473720",
"@  c #493721",
"#  c #4C3B23",
"$  c #4F3F28",
"%  c #523E26",
"&  c #513F29",
"*  c #504027",
"=  c #55422B",
"-  c #59452D",
";  c #58482F",
":  c #574631",
">  c #5C4732",
",  c #5D4B34",
"<  c #5E4D38",
"1  c #624E36",
"2  c #634F39",
"3  c #65523B",
"4  c #6A553E",
"5  c #67593F",
"6  c #69583F",
"7  c #675740",
"8  c #6C5740",
"9  c #6C5B43",
"0  c #6E5E49",
"q  c #705741",
"w  c #715D46",
"e  c #725F4A",
"r  c #6E6046",
"t  c #6F604B",
"y  c #716047",
"u  c #74634B",
"i  c #7A654E",
"p  c #76684E",
"a  c #7A684F",
"s  c #766551",
"d  c #7B6752",
"f  c #7C6A53",
"g  c #7D6B59",
"h  c #7E7056",
"j  c #7F705C",
"k  c #826D56",
"l  c #836F58",
"z  c #857157",
"x  c #85735B",
"c  c #8A755D",
"v  c #87795F",
"b  c #8B785E",
"n  c #91795D",
"m  c #877660",
"M  c #8A7661",
"N  c #867A60",
"B  c #8D7A63",
"V  c #8E7E69",
"C  c #907761",
"Z  c #927D65",
"A  c #937F69",
"S  c #987F69",
"D  c #8E8066",
"F  c #8F8069",
"G  c #928067",
"H  c #988064",
"J  c #95836B",
"K  c #9A856D",
"L  c #96886E",
"P  c #9B886F",
"I  c #968671",
"U  c #9B8771",
"Y  c #978873",
"T  c #9D8B73",
"R  c #9D8D79",
"E  c #9F9177",
"W  c #9F907A",
"Q  c #A28A6F",
"!  c #A28D75",
"~  c #A48F79",
"^  c #A88F79",
"/  c #A49076",
"(  c #A4937B",
")  c #AA957D",
"_  c #A7997F",
"`  c #A9987F",
"'  c #A69581",
"]  c #AB9781",
"[  c #AC9A82",
"{  c #AE9C89",
"}  c #B09781",
"|  c #B29C85",
" . c #B19E8A",
".. c #AEA086",
"X. c #AFA08D",
"o. c #B3A086",
"O. c #B4A28B",
"+. c #BAA68E",
"@. c #B9A98F",
"#. c #B5A390",
"$. c #B9A791",
"%. c #BBAA93",
"&. c #C0AE96",
"*. c #C0AE99",
"=. c #C2B29B",
"-. c #CCBAA2",
";. c #D2C0A8",
/* pixels */
", t m 9 g m 0 g g e e g g 0 g g s u u p p s p p p p s s p p s u d d p a u u a u u u u s u u s u p p p 1 x h f r p r v h u r h ; ",
"d X.' { R g ' #.R ' ' ' ' ' { ' { ' [ [ ' W E _ { { [ ' ' ' ' _ ( ( ( W ( ( ( ( / / ( / / ( / / ( Y F p G L E W E ..G 5 E ..E L ",
"< ' m A l > R R ' { ' R ' ' R R R W W _ _ W W [ ( E W Y Y Y Y Y _ ( _ ) ) _ ` ) ) _ _ _ [ ) _ _ [ .._ L _ E ) _ E E v 3 b E E D ",
"g ' ' R V I #.R R ' ' R ' X.' ' _ ( ' [ [ ' [ X._ ' ' _ ( ( ( ( / ( / ) ( ( ) ) ) ( ( ) ) ( ( ( P ( ( E _ W T E [ W _ D E L E L ",
"0 m s m A V ' I ' R ' R I ' S R W E Y Y L F F F W W E W W ( W W _ ) ' ) _ [ [ [ _ ) _ ' _ _ ) _ E _ E E / ( E ..G ..J a _ f 3 B ",
"0 V < R { s ' #.#.' #.#.' #.' { ......{ ' W W ( [ [ [ ..........) ) _ ) ) _ ) ) ) ) ) ( ) ) ) ) _ O._ ..( E B J @.[ T G ..G b L ",
"e ' l ' *.l V X.g > S ' R #.{ X.[ ' [ [ [ _ ' ..( W ( ' ' ' W _ [ _ [ _ ` ` _ [ [ [ ' [ [ [ [ ` / [ ( O.) U f h G x ( ( R E O.B ",
"0 R X.A #.' < l g & R #.R { ' R [ ' ' _ ( Y Y W _ ( ' W W ( W ( ~ E / / T R T T W / / / ~ E R / / ) J _ E ) J ( . p ` P [ E T B ",
"3 [ R U O.R l # @ q 0 2 2 2 e 2 . : * t : , u 9 t 7 t 0 9 < p , O 0 , ; , 6 ; 9 , 9 9 3 6 3 3 9 - q 9 6 1 > 1 # f 6 a | ) K ( Z ",
"0 U T *.O., = g & g l g V M V S 7   s 7 h j j h B h x x N g F 9 ; B z z x J k J G L B x B B b B 4 x b c k k e > B Z K [ ) / ) Z ",
"y R K  .O.y y B < e e g S l V V R 2 + F r V I J W F F J Y I W p # B B B F / G T [ ) J B K R P J i K ! ~ H b k 1 G | ) / ! ) [ B ",
"9 ` J L O.[ R z q g l M V m M m N %.9 . F p j [ Y F G Y _ Y [ f = L U G P [ P ( [ / c k L / K G i K ! ) ! n k 1 B | ) ! ! / ( Z ",
"9 ) K ( O.P A c < m M M V V R I p F O.7 , V J J / Y Y ( _ Y [ j 1 R E T T ..T [ O.[ B c U [ T J k ! ) } ! C k 2 C ) ^ ) ) ! ( K ",
"6 ) U [ +.J B b & M A V M C R S ( 0 I %.+ 7 L J ( Y ( _ _ Y [ x 9 ~ T U T [ T o.%.o.L B E [ R K k ( ) } ! S l 3 S ^ ( | ) ! ! S ",
"6 ` T E @.` T l 7 V S S V M S R _ [ g N %.+ < T R J Y W W Y [ h g _ R ( [ o.T %.O.[ P Z ~ ) U L x ! ) } ! C z 3 K ! ) | ! ! ) Z ",
"w _ P ` $.K B M < d l V C g M S B ' W m J ' 3 , L B Y Y ( E X.D z / K / ) ( F [ [ ` U L / [ E Y k / ) | ! Z z 2 ! ! | | ! ) +.Z ",
"y / J ' O.U I c @ s g g B u e B U A ^ ! x ! ~ - 3 F z F E E _ D v T U P ` ` T _ O.| R T [ ` T U z / ' ) [ x B 1 G ` ( o.( T o.B ",
"y R I ' $.T L m & $ g a u L k - S S ! ) S S T ) ; , L x _ %.L L b E R P ) ( T ` O.[ T P ` ` E R k / ) ) ` c B , G [ ( | ) T { B ",
"y R L ] #.T K m , 7 @ d T l g e > S ^ C S K J A K * 5 E N L @.L b / R P ) ( / { O.[ T K ) ` / / h / ( ( ` x B 1 G [ ( | ( / o.B ",
"u ~ J ] $.Y U m # d m @ 9 ) x R i i k Q | ! b J E _ # 9 G L L _ B / / U _ ` ( O.O.o.R L ) [ / T z W ) ( ` v N , G [ ( { _ T O.B ",
"0 ~ U ] $.T I m + d d s : 2 ' M Q i w b K T ~ ! B L ) . B L F G x W E U ) ) ( O.o.o./ R ` [ / J h / ) ( [ x B 1 G [ / { ( / O.B ",
"e R I { %.! I m 7 = x B g 2 $ M A A Z k i K ) Z G x B %.o z B c f U R U ` _ ( O.{ o.( T [ [ T G l W _ ( [ x B 1 B ` / [ ( T o.G ",
"e R U [ %.R K m o J c u m d 9 7 b B G ) ) B c / / L G B [ o k B u J P T ) ) ( O.[ O.( T ` [ R G g W ) ( ' x B 1 Z _ ~ ` / T O.B ",
"e / U { %.! I x = s J g 9 m B s O x x d ~ ~ c J R T J J G [ w e 9 F L P ` ) ( O.o.O./ L ( [ / K z / ) ( [ x B 1 B ) E ' E U O.Z ",
"0 ( J ' %.! I A & e A g : 2 B A % - B Z f L T b P B ( ( l S ' e 3 J G G ( ) U @.{ O.( ! ( _ T E B T ' / _ N c 3 L U ( @.9 ) o.G ",
"0 ( I ) %.! I A : e J M 9 d Y I w % 3 c b D Z U B B ! ` U Z U ! z 9 K Z / [ U O.o.O.` T ( ) R / B R [ ( ) B x 3 G U ( [ p / { B ",
"0 ( L ) %.U I A : e V V z J ) Y h 9 y y f D b J P P Z K ] ! A S ( 1 f G G [ U [ O.O._ / ( _ R T b E ' ( [ b c 3 F R ` T x / [ B ",
"9 ( U ' %.Y I A = e V M m Y ( W p x B u y f g P J ~ G c ! ] Q C f =.* ; T L L _ o.O.) T ( ) ! / b T [ / ) B v 3 G ) { K G ( { G ",
"9 ' T ] $.Y I A & s B m B U ( ( f p D D h r 9 T k Z ! K c K ] ! T a -.. = A G / [ O._ T ( ` T R x T [ ( ` B c 3 G ` o.J b / { G ",
"7 ) Y ' %.Y J I & g Z m V Y ( ' h h L D v f 9 y Z x K ! C S Q Q ` g m -.  % A R ) { ( T ` ( / T x U [ ` [ c x 3 G ( [ P a T [ B ",
"7 ) Y ] $.U I A & g B m L ~ W ' p N [ L h G h ; K Z x n ! Q c C ! J P z @.. O U / [ / ~ ` ) E T z T [ ` ' b c 7 G / [ / 4 T o.F ",
"9 ' U ] $.Y K J % d B x U ) ~ / r r E [ D G F f w T Z i S K k S G ) P c L ) O # Y ( / Y [ [ Y Y z T [ ` [ N c 3 J ) | ) , ~ O.G ",
"9 ' R ' %.I h U * p H b P / / / 9 h _ / J R J Z q q C C C S ^ S Q n P ` z n o.1 . { ' Y ' [ Y ' t W ' [ [ v b 1 K ) ) Q C K } S ",
"0 W R ' %.J f J * p H D H / / / 9 f ) / K ( P G C k k k S C S S z ! Q Q ) n b Q l o Y R ' ' ' F s Y ( _ ) c Z 1 K | | ^ Q ^ | C ",
"0 ' R ' %.J f B = k H b P Q / Q 9 f ( ( K ( ~ K S k k k C C C S H H K K ^ ! b K ~ x $ N Y ' V Y p Y ( ( ` x Z 1 K } | } ^ ^ | S ",
"0 R W ' @.I z B % k D H P / / Q w f ( / T [ ) ~ S S k q k S C S Q n / H n ` Q z L =.u $ R R ' Y g E ) _ ` x Z 4 A ) | | ^ ^ } C ",
"t Y ' ' #.Y B B = k n n H Q Q Q w k / / T | ] ~ ^ } S k k C c C k K ) b G ^ G ) F c @.f 0 W { F z / _ ) ' x Z 1 S ^ ) } Q ^ } C ",
"t Y W { @.W L G = k G n Q Q / Q u k ( / T | [ ) } S C C C k k C H z H ! K P T / U g Y =.< s m J g R ' ) ` x Z 1 U } ) } ^ ^ } S ",
"t Y ' { O.( P Z % k G Z Q / / / a z ( W U | } ^ | S C S S C k k K z z P K K / B / / B J ' o 9 z u P ( ) [ v B 1 S ] } } ^ } } S ",
"t Y W { O.( U B % a Z b H / / / f x ( R ! | } ^ } S ^ ^ ^ S C 2 - ) k y / J B ( Z ) L B ' J o w 9 J / / ` x B 1 S ^ ^ } } ^ } C ",
"t R ' ' X.W Y F % k n Z H ! / / k d [ / Y O.[ / } S S ! ^ ' S l % 6 T B z Y L A ) B T / b K H * 3 b T T ) b n 2 K ^ ^ } Q ! } C ",
"t W ' ' X.W L F = a n Z K Q / ) z a ' ( U O.` /  .S S ! ^ ^ S c k = , O.Z y O.B x K ` ~ G H P b 1 9 G R ` c k 1 U ) ^ } ^ ! ^ C ",
"t R ' ' O.( L Z * a Z G K Q / ` x a ) / P o.) ) | Q S S ^ } ^ C s j 3 , R Y y ~ K K b K ` Q H / E 9 , U P y ! - K ) ^ ^ ! ! } C ",
"t R ' ' O.( J F = a Z n K Q / ` c a ( / J { ) ) | ^ S Q ^ } ^ C g d V 7 , Y J m ) G a c ) / H H ) ( a , m z k 2 K ^ ^ } ! Q } C ",
"t R ' ' O.W L F * k n Z Q Q / ` z a ) T B [ ` ) } Q S ^ ] } Q M F j V ' : < ..N c K P b k H ) H G c ;.y % M w % S ^ ^ } ! ^ } C ",
"t R ' ' @.W L Z = k G Z H / ^ ) f f ` J c [ ) ( } S ! ' ^ } Q c 0 X.Y j F 7 , W G b Q ! z z Q / K f R / k 2 f > S } ^ ^ S ^ } C ",
"t R W [ O.( L Z = a n H P / ^ ) i z [ B f [ | ! ] S S ^ ] } ^ S s Y X.g V L < g T B b K ^ n n / T &., 6 -.e & d S } ^ } ^ ^ } C ",
"t R ' [ O.( K B = a G H P / ( ' y z [ x a | | P ] Q S ! ^ } ) K m Y I ' ' Y F < 6 ) H y Q ` Q Q ) b o.- e $.q X S ] ^ } ^ S ^ C ",
"s W W ..%.( F G ; u B T ! Q Q ] q e ) S e ^ } K ^ U U ! ^ ( ^ ! p E E E D ( L L 5 5 _ L a L T G K K ~ J 4 k Q 3 S ^ ^ ) ! Q ^ A ",
"7 E E _ @.E G J ; a H P ( ) ) | q k | Q k ] | ! ) ^ ! ^ ) } ) ! r Y Y T F _ L L E u = L J p [ E / K ! ) c x U e Q ^ ~ ) ~ ! ) M ",
"9 E _ _ @.( L L % i Z Z K ! ! ! 4 k ] S k Q ] U ~ K S K ~ ( ! K y U E E L ( G D E E r , L E a T K K K ! A z c q Q ' ^ ) ! ) ] c ",
"r _ _ ( O.) K G - k A Z K ^ ! S 4 l ^ Q C ! } ^ ] ! K U ) } ( K y L T E G E b x ( v / r * L R u b ( K S S S c 2 S ^ ] ^ Q ^ } M ",
"r E E / @._ J B % k Z C K ^ K C 4 k S S S Q ) ! ^ Q S K ^ ) ! A y L L R G Y v x ( E z v ; ; / B f K c k S C z q S ) } ) ! ! ] C ",
"r E E ` %._ P L = w k z A U K C 2 k n S A S ! K U S M C K K S n u G G T L / F F L %.x r L 9 * B Z C k x S i w w U ) ) } ! U ) C ",
"p E W X.%.P B U 2 w k i c C M M 4 k k c M c S M C m c c C S c x 5 z g b z B g c G z L f a z O % Z Z k S b i i q U K K ) ( ! ^ C ",
"r E E ....h y B % - % - 2 2 1 4 # 2 % 1 q 2 8 1 q 8 3 4 4 8 3 2 = 6 1 6 3 y 1 6 6 9 * 3 9 = * O - q 4 q 4 q i 1 S c k ! ) ! ) A ",
"r L Y O.%.9 u y x K / ~ T ! ! K U Q U ! ! U ! ! Q U U ! U Q ! U ~ T T P ! ! ! T ! ! T ~ ! T ! ! U K U ! ! K S z C l C ) S K  .c ",
"u ` _ [ @.L G y i n K K K ! ^ ! Q U Q U U ! ! ! ! ! ! T ! ! U Q P K K K T ! ! P T T K K P ! ( ) ! ! U U U S l i k k c ] ^ U } z ",
"5 L G .._ z x Z k A K K S K K K K K K S S A S A S S K S S I K K T T P ! ! ! P K ) ( ( ( ! ! / ~ ^ ! ! ^ ^ ! U A Q K S ) | ! ^ S ",
"r D f W L c b ` ! ) ) ( ! ! ! ! ~ ^ ~ ^ ^ ! ^ ! ) ^ ) ^ ^ ^ ^ ^ T P K ! K K A B 3 q k C P T ! T U Q Q ! ) ^ ^ ~ U Q M A Q c i l ",
"r D 3 5 x ..E G K T ~ ! ! ! ~ ! ^ ' ] ) ' ^ ^ ^ ' ] ] ) ' ] ) ] | } | | | ) ) ^ l c S ^ } | | | } } } | } | } ] ] | } ^ ] K k S ",
"r v r r v _ T R ! ! T ! ! ^ ^ ^ ^ ^ ~ ! ^ ^ ~ Q ~ ^ ( ^ ! ^ ^ ^ ! ! ! ^ ( ( ^ ! } } ) ^ ^ ! Q U ! ! ! U U Q U U ^ ^ U l M C k K ",
"r h G D T B Z | ( ( ! ^ ~ Q ! ! Q U Q ! U ! ! ! ! Q ! ! ! ! Q Q ^ ! ^ ( } } ) } ^ ^ ^ ! ! ~ ^ } ^ ^ ) ) } ^ } ) ) ! K d l K C K ",
"o u G 5 z x g a i i i f k k i f d k k k k k k k k k k k k k k k k k i f k k z k l c x x x c c c c x M c x z z l c z C k z S q 1 "
};
